<svg xmlns="http://www.w3.org/2000/svg" width="768" height="432"><path d="M344.6,203.3L338.1,123L279.9,211Z" fill="rgb(49,49,49)" stroke="rgb(49,49,49)" stroke-width="1" stroke-linejoin="round" shape-rendering="crispEdges"></path><path d="M338.1,123L261.7,133L279.9,211Z" fill="rgb(45,45,45)" stroke="rgb(45,45,45)" stroke-width="1" stroke-linejoin="round" shape-rendering="crispEdges"></path><path d="M426,75.3L339.6,76.8L338.1,123Z" fill="rgb(42,42,42)" stroke="rgb(42,42,42)" stroke-width="1" stroke-linejoin="round" shape-rendering="crispEdges"></path><path d="M338.1,123L267.3,66.5L261.7,133Z" fill="rgb(40,40,40)" stroke="rgb(40,40,40)" stroke-width="1" stroke-linejoin="round" shape-rendering="crispEdges"></path><path d="M339.6,76.8L267.3,66.5L338.1,123Z" fill="rgb(39,39,39)" stroke="rgb(39,39,39)" stroke-width="1" stroke-linejoin="round" shape-rendering="crispEdges"></path><path d="M209.7,64.9L191.2,154.8L261.7,133Z" fill="rgb(37,37,37)" stroke="rgb(37,37,37)" stroke-width="1" stroke-linejoin="round" shape-rendering="crispEdges"></path><path d="M261.7,133L191.2,154.8L279.9,211Z" fill="rgb(43,43,43)" stroke="rgb(43,43,43)" stroke-width="1" stroke-linejoin="round" shape-rendering="crispEdges"></path><path d="M344.6,203.3L439.2,152.4L338.1,123Z" fill="rgb(49,49,49)" stroke="rgb(49,49,49)" stroke-width="1" stroke-linejoin="round" shape-rendering="crispEdges"></path><path d="M191.2,154.8L180.6,206.4L279.9,211Z" fill="rgb(44,44,44)" stroke="rgb(44,44,44)" stroke-width="1" stroke-linejoin="round" shape-rendering="crispEdges"></path><path d="M191.8,284L266,292.4L279.9,211Z" fill="rgb(52,52,52)" stroke="rgb(52,52,52)" stroke-width="1" stroke-linejoin="round" shape-rendering="crispEdges"></path><path d="M279.9,211L266,292.4L344.6,203.3Z" fill="rgb(52,52,52)" stroke="rgb(52,52,52)" stroke-width="1" stroke-linejoin="round" shape-rendering="crispEdges"></path><path d="M344.6,203.3L432.7,214.1L439.2,152.4Z" fill="rgb(54,54,54)" stroke="rgb(54,54,54)" stroke-width="1" stroke-linejoin="round" shape-rendering="crispEdges"></path><path d="M410.3,282.3L432.7,214.1L344.6,203.3Z" fill="rgb(57,57,57)" stroke="rgb(57,57,57)" stroke-width="1" stroke-linejoin="round" shape-rendering="crispEdges"></path><path d="M267.3,66.5L209.7,64.9L261.7,133Z" fill="rgb(36,36,36)" stroke="rgb(36,36,36)" stroke-width="1" stroke-linejoin="round" shape-rendering="crispEdges"></path><path d="M191.2,154.8L137,212L180.6,206.4Z" fill="rgb(41,41,41)" stroke="rgb(41,41,41)" stroke-width="1" stroke-linejoin="round" shape-rendering="crispEdges"></path><path d="M439.2,152.4L426,75.3L338.1,123Z" fill="rgb(47,47,47)" stroke="rgb(47,47,47)" stroke-width="1" stroke-linejoin="round" shape-rendering="crispEdges"></path><path d="M339.6,76.8L334.8,8.3L267.3,66.5Z" fill="rgb(35,35,35)" stroke="rgb(35,35,35)" stroke-width="1" stroke-linejoin="round" shape-rendering="crispEdges"></path><path d="M266,292.4L362.5,308.2L344.6,203.3Z" fill="rgb(57,57,57)" stroke="rgb(57,57,57)" stroke-width="1" stroke-linejoin="round" shape-rendering="crispEdges"></path><path d="M362.5,308.2L410.3,282.3L344.6,203.3Z" fill="rgb(59,59,59)" stroke="rgb(59,59,59)" stroke-width="1" stroke-linejoin="round" shape-rendering="crispEdges"></path><path d="M426,75.3L334.8,8.3L339.6,76.8Z" fill="rgb(38,38,38)" stroke="rgb(38,38,38)" stroke-width="1" stroke-linejoin="round" shape-rendering="crispEdges"></path><path d="M267.3,66.5L211.4,8.8L209.7,64.9Z" fill="rgb(30,30,30)" stroke="rgb(30,30,30)" stroke-width="1" stroke-linejoin="round" shape-rendering="crispEdges"></path><path d="M334.8,8.3L268.4,6.3L267.3,66.5Z" fill="rgb(32,32,32)" stroke="rgb(32,32,32)" stroke-width="1" stroke-linejoin="round" shape-rendering="crispEdges"></path><path d="M180.6,206.4L191.8,284L279.9,211Z" fill="rgb(48,48,48)" stroke="rgb(48,48,48)" stroke-width="1" stroke-linejoin="round" shape-rendering="crispEdges"></path><path d="M266,292.4L354.1,358.1L362.5,308.2Z" fill="rgb(54,54,54)" stroke="rgb(54,54,54)" stroke-width="1" stroke-linejoin="round" shape-rendering="crispEdges"></path><path d="M126.3,124.5L137,212L191.2,154.8Z" fill="rgb(38,38,38)" stroke="rgb(38,38,38)" stroke-width="1" stroke-linejoin="round" shape-rendering="crispEdges"></path><path d="M180.6,206.4L137,212L191.8,284Z" fill="rgb(45,45,45)" stroke="rgb(45,45,45)" stroke-width="1" stroke-linejoin="round" shape-rendering="crispEdges"></path><path d="M268.4,6.3L211.4,8.8L267.3,66.5Z" fill="rgb(30,30,30)" stroke="rgb(30,30,30)" stroke-width="1" stroke-linejoin="round" shape-rendering="crispEdges"></path><path d="M209.7,64.9L126.3,124.5L191.2,154.8Z" fill="rgb(34,34,34)" stroke="rgb(34,34,34)" stroke-width="1" stroke-linejoin="round" shape-rendering="crispEdges"></path><path d="M116,57.8L126.3,124.5L209.7,64.9Z" fill="rgb(30,30,30)" stroke="rgb(30,30,30)" stroke-width="1" stroke-linejoin="round" shape-rendering="crispEdges"></path><path d="M255,375.3L354.1,358.1L266,292.4Z" fill="rgb(49,49,49)" stroke="rgb(49,49,49)" stroke-width="1" stroke-linejoin="round" shape-rendering="crispEdges"></path><path d="M362.5,308.2L429.1,373.6L410.3,282.3Z" fill="rgb(58,58,58)" stroke="rgb(58,58,58)" stroke-width="1" stroke-linejoin="round" shape-rendering="crispEdges"></path><path d="M512.6,231.1L510.4,132.6L439.2,152.4Z" fill="rgb(57,57,57)" stroke="rgb(57,57,57)" stroke-width="1" stroke-linejoin="round" shape-rendering="crispEdges"></path><path d="M439.2,152.4L510.4,132.6L426,75.3Z" fill="rgb(50,50,50)" stroke="rgb(50,50,50)" stroke-width="1" stroke-linejoin="round" shape-rendering="crispEdges"></path><path d="M426,75.3L433.3,0.9L334.8,8.3Z" fill="rgb(37,37,37)" stroke="rgb(37,37,37)" stroke-width="1" stroke-linejoin="round" shape-rendering="crispEdges"></path><path d="M512.6,231.1L439.2,152.4L432.7,214.1Z" fill="rgb(58,58,58)" stroke="rgb(58,58,58)" stroke-width="1" stroke-linejoin="round" shape-rendering="crispEdges"></path><path d="M511.7,81.2L433.3,0.9L426,75.3Z" fill="rgb(43,43,43)" stroke="rgb(43,43,43)" stroke-width="1" stroke-linejoin="round" shape-rendering="crispEdges"></path><path d="M334.8,8.3L342.1,-86.4L268.4,6.3Z" fill="rgb(30,30,30)" stroke="rgb(30,30,30)" stroke-width="1" stroke-linejoin="round" shape-rendering="crispEdges"></path><path d="M509.2,302.3L512.6,231.1L410.3,282.3Z" fill="rgb(66,66,66)" stroke="rgb(66,66,66)" stroke-width="1" stroke-linejoin="round" shape-rendering="crispEdges"></path><path d="M410.3,282.3L512.6,231.1L432.7,214.1Z" fill="rgb(61,61,61)" stroke="rgb(61,61,61)" stroke-width="1" stroke-linejoin="round" shape-rendering="crispEdges"></path><path d="M210,379.3L266,292.4L191.8,284Z" fill="rgb(49,49,49)" stroke="rgb(49,49,49)" stroke-width="1" stroke-linejoin="round" shape-rendering="crispEdges"></path><path d="M210,379.3L255,375.3L266,292.4Z" fill="rgb(46,46,46)" stroke="rgb(46,46,46)" stroke-width="1" stroke-linejoin="round" shape-rendering="crispEdges"></path><path d="M211.4,8.8L116,57.8L209.7,64.9Z" fill="rgb(27,27,27)" stroke="rgb(27,27,27)" stroke-width="1" stroke-linejoin="round" shape-rendering="crispEdges"></path><path d="M55.2,293.1L124.1,307.7L137,212Z" fill="rgb(45,45,45)" stroke="rgb(45,45,45)" stroke-width="1" stroke-linejoin="round" shape-rendering="crispEdges"></path><path d="M556.3,140.9L511.7,81.2L510.4,132.6Z" fill="rgb(51,51,51)" stroke="rgb(51,51,51)" stroke-width="1" stroke-linejoin="round" shape-rendering="crispEdges"></path><path d="M510.4,132.6L511.7,81.2L426,75.3Z" fill="rgb(49,49,49)" stroke="rgb(49,49,49)" stroke-width="1" stroke-linejoin="round" shape-rendering="crispEdges"></path><path d="M59.5,127.9L137,212L126.3,124.5Z" fill="rgb(34,34,34)" stroke="rgb(34,34,34)" stroke-width="1" stroke-linejoin="round" shape-rendering="crispEdges"></path><path d="M137,212L124.1,307.7L191.8,284Z" fill="rgb(47,47,47)" stroke="rgb(47,47,47)" stroke-width="1" stroke-linejoin="round" shape-rendering="crispEdges"></path><path d="M124.1,307.7L210,379.3L191.8,284Z" fill="rgb(45,45,45)" stroke="rgb(45,45,45)" stroke-width="1" stroke-linejoin="round" shape-rendering="crispEdges"></path><path d="M420.4,433.1L429.1,373.6L354.1,358.1Z" fill="rgb(48,48,48)" stroke="rgb(48,48,48)" stroke-width="1" stroke-linejoin="round" shape-rendering="crispEdges"></path><path d="M354.1,358.1L429.1,373.6L362.5,308.2Z" fill="rgb(53,53,53)" stroke="rgb(53,53,53)" stroke-width="1" stroke-linejoin="round" shape-rendering="crispEdges"></path><path d="M275.5,437.6L354.1,358.1L255,375.3Z" fill="rgb(43,43,43)" stroke="rgb(43,43,43)" stroke-width="1" stroke-linejoin="round" shape-rendering="crispEdges"></path><path d="M429.1,373.6L509.2,302.3L410.3,282.3Z" fill="rgb(61,61,61)" stroke="rgb(61,61,61)" stroke-width="1" stroke-linejoin="round" shape-rendering="crispEdges"></path><path d="M512.6,231.1L556.3,140.9L510.4,132.6Z" fill="rgb(56,56,56)" stroke="rgb(56,56,56)" stroke-width="1" stroke-linejoin="round" shape-rendering="crispEdges"></path><path d="M581.1,199.5L556.3,140.9L512.6,231.1Z" fill="rgb(56,56,56)" stroke="rgb(56,56,56)" stroke-width="1" stroke-linejoin="round" shape-rendering="crispEdges"></path><path d="M116,57.8L59.5,127.9L126.3,124.5Z" fill="rgb(29,29,29)" stroke="rgb(29,29,29)" stroke-width="1" stroke-linejoin="round" shape-rendering="crispEdges"></path><path d="M433.3,0.9L342.1,-86.4L334.8,8.3Z" fill="rgb(33,33,33)" stroke="rgb(33,33,33)" stroke-width="1" stroke-linejoin="round" shape-rendering="crispEdges"></path><path d="M268.4,6.3L202.5,-73.1L211.4,8.8Z" fill="rgb(26,26,26)" stroke="rgb(26,26,26)" stroke-width="1" stroke-linejoin="round" shape-rendering="crispEdges"></path><path d="M211.4,8.8L114.2,-21.6L116,57.8Z" fill="rgb(23,23,23)" stroke="rgb(23,23,23)" stroke-width="1" stroke-linejoin="round" shape-rendering="crispEdges"></path><path d="M261.1,-102.7L202.5,-73.1L268.4,6.3Z" fill="rgb(27,27,27)" stroke="rgb(27,27,27)" stroke-width="1" stroke-linejoin="round" shape-rendering="crispEdges"></path><path d="M116,57.8L29.5,52.7L59.5,127.9Z" fill="rgb(25,25,25)" stroke="rgb(25,25,25)" stroke-width="1" stroke-linejoin="round" shape-rendering="crispEdges"></path><path d="M511.7,81.2L504.9,-13.6L433.3,0.9Z" fill="rgb(41,41,41)" stroke="rgb(41,41,41)" stroke-width="1" stroke-linejoin="round" shape-rendering="crispEdges"></path><path d="M433.3,0.9L439,-100.2L342.1,-86.4Z" fill="rgb(34,34,34)" stroke="rgb(34,34,34)" stroke-width="1" stroke-linejoin="round" shape-rendering="crispEdges"></path><path d="M562.1,-5.3L504.9,-13.6L511.7,81.2Z" fill="rgb(41,41,41)" stroke="rgb(41,41,41)" stroke-width="1" stroke-linejoin="round" shape-rendering="crispEdges"></path><path d="M202.5,-73.1L114.2,-21.6L211.4,8.8Z" fill="rgb(23,23,23)" stroke="rgb(23,23,23)" stroke-width="1" stroke-linejoin="round" shape-rendering="crispEdges"></path><path d="M59.5,127.9L40.4,217.1L137,212Z" fill="rgb(35,35,35)" stroke="rgb(35,35,35)" stroke-width="1" stroke-linejoin="round" shape-rendering="crispEdges"></path><path d="M342.1,-86.4L261.1,-102.7L268.4,6.3Z" fill="rgb(29,29,29)" stroke="rgb(29,29,29)" stroke-width="1" stroke-linejoin="round" shape-rendering="crispEdges"></path><path d="M188,436.2L275.5,437.6L210,379.3Z" fill="rgb(35,35,35)" stroke="rgb(35,35,35)" stroke-width="1" stroke-linejoin="round" shape-rendering="crispEdges"></path><path d="M210,379.3L275.5,437.6L255,375.3Z" fill="rgb(39,39,39)" stroke="rgb(39,39,39)" stroke-width="1" stroke-linejoin="round" shape-rendering="crispEdges"></path><path d="M587.7,305.2L581.1,199.5L512.6,231.1Z" fill="rgb(61,61,61)" stroke="rgb(61,61,61)" stroke-width="1" stroke-linejoin="round" shape-rendering="crispEdges"></path><path d="M557.3,-66.1L495.1,-68.5L504.9,-13.6Z" fill="rgb(39,39,39)" stroke="rgb(39,39,39)" stroke-width="1" stroke-linejoin="round" shape-rendering="crispEdges"></path><path d="M429.1,373.6L487.9,376.2L509.2,302.3Z" fill="rgb(58,58,58)" stroke="rgb(58,58,58)" stroke-width="1" stroke-linejoin="round" shape-rendering="crispEdges"></path><path d="M509.2,302.3L587.7,305.2L512.6,231.1Z" fill="rgb(66,66,66)" stroke="rgb(66,66,66)" stroke-width="1" stroke-linejoin="round" shape-rendering="crispEdges"></path><path d="M420.4,433.1L487.9,376.2L429.1,373.6Z" fill="rgb(50,50,50)" stroke="rgb(50,50,50)" stroke-width="1" stroke-linejoin="round" shape-rendering="crispEdges"></path><path d="M40.4,217.1L55.2,293.1L137,212Z" fill="rgb(40,40,40)" stroke="rgb(40,40,40)" stroke-width="1" stroke-linejoin="round" shape-rendering="crispEdges"></path><path d="M124.1,307.7L126.3,384.3L210,379.3Z" fill="rgb(39,39,39)" stroke="rgb(39,39,39)" stroke-width="1" stroke-linejoin="round" shape-rendering="crispEdges"></path><path d="M32.6,379.2L126.3,384.3L124.1,307.7Z" fill="rgb(36,36,36)" stroke="rgb(36,36,36)" stroke-width="1" stroke-linejoin="round" shape-rendering="crispEdges"></path><path d="M275.5,437.6L360.6,450.4L354.1,358.1Z" fill="rgb(41,41,41)" stroke="rgb(41,41,41)" stroke-width="1" stroke-linejoin="round" shape-rendering="crispEdges"></path><path d="M360.6,450.4L420.4,433.1L354.1,358.1Z" fill="rgb(44,44,44)" stroke="rgb(44,44,44)" stroke-width="1" stroke-linejoin="round" shape-rendering="crispEdges"></path><path d="M126.3,384.3L188,436.2L210,379.3Z" fill="rgb(35,35,35)" stroke="rgb(35,35,35)" stroke-width="1" stroke-linejoin="round" shape-rendering="crispEdges"></path><path d="M275.5,437.6L286.2,511.8L360.6,450.4Z" fill="rgb(37,37,37)" stroke="rgb(37,37,37)" stroke-width="1" stroke-linejoin="round" shape-rendering="crispEdges"></path><path d="M495.1,-68.5L439,-100.2L433.3,0.9Z" fill="rgb(37,37,37)" stroke="rgb(37,37,37)" stroke-width="1" stroke-linejoin="round" shape-rendering="crispEdges"></path><path d="M342.1,-86.4L439,-100.2L261.1,-102.7Z" fill="rgb(32,32,32)" stroke="rgb(32,32,32)" stroke-width="1" stroke-linejoin="round" shape-rendering="crispEdges"></path><path d="M65,-23.4L29.5,52.7L116,57.8Z" fill="rgb(20,20,20)" stroke="rgb(20,20,20)" stroke-width="1" stroke-linejoin="round" shape-rendering="crispEdges"></path><path d="M-34.3,135.1L-11.4,231L40.4,217.1Z" fill="rgb(32,32,32)" stroke="rgb(32,32,32)" stroke-width="1" stroke-linejoin="round" shape-rendering="crispEdges"></path><path d="M589.9,54.9L511.7,81.2L556.3,140.9Z" fill="rgb(46,46,46)" stroke="rgb(46,46,46)" stroke-width="1" stroke-linejoin="round" shape-rendering="crispEdges"></path><path d="M504.9,-13.6L495.1,-68.5L433.3,0.9Z" fill="rgb(38,38,38)" stroke="rgb(38,38,38)" stroke-width="1" stroke-linejoin="round" shape-rendering="crispEdges"></path><path d="M649,75L589.9,54.9L556.3,140.9Z" fill="rgb(42,42,42)" stroke="rgb(42,42,42)" stroke-width="1" stroke-linejoin="round" shape-rendering="crispEdges"></path><path d="M589.9,54.9L562.1,-5.3L511.7,81.2Z" fill="rgb(41,41,41)" stroke="rgb(41,41,41)" stroke-width="1" stroke-linejoin="round" shape-rendering="crispEdges"></path><path d="M116.3,-97L65,-23.4L114.2,-21.6Z" fill="rgb(18,18,18)" stroke="rgb(18,18,18)" stroke-width="1" stroke-linejoin="round" shape-rendering="crispEdges"></path><path d="M114.2,-21.6L65,-23.4L116,57.8Z" fill="rgb(19,19,19)" stroke="rgb(19,19,19)" stroke-width="1" stroke-linejoin="round" shape-rendering="crispEdges"></path><path d="M116.3,-97L114.2,-21.6L202.5,-73.1Z" fill="rgb(21,21,21)" stroke="rgb(21,21,21)" stroke-width="1" stroke-linejoin="round" shape-rendering="crispEdges"></path><path d="M564,425.3L558.5,352.2L487.9,376.2Z" fill="rgb(53,53,53)" stroke="rgb(53,53,53)" stroke-width="1" stroke-linejoin="round" shape-rendering="crispEdges"></path><path d="M487.9,376.2L558.5,352.2L509.2,302.3Z" fill="rgb(60,60,60)" stroke="rgb(60,60,60)" stroke-width="1" stroke-linejoin="round" shape-rendering="crispEdges"></path><path d="M558.5,352.2L587.7,305.2L509.2,302.3Z" fill="rgb(61,61,61)" stroke="rgb(61,61,61)" stroke-width="1" stroke-linejoin="round" shape-rendering="crispEdges"></path><path d="M581.1,199.5L664.2,158.8L556.3,140.9Z" fill="rgb(50,50,50)" stroke="rgb(50,50,50)" stroke-width="1" stroke-linejoin="round" shape-rendering="crispEdges"></path><path d="M587.7,305.2L629.3,204.5L581.1,199.5Z" fill="rgb(57,57,57)" stroke="rgb(57,57,57)" stroke-width="1" stroke-linejoin="round" shape-rendering="crispEdges"></path><path d="M261.1,-102.7L116.3,-97L202.5,-73.1Z" fill="rgb(24,24,24)" stroke="rgb(24,24,24)" stroke-width="1" stroke-linejoin="round" shape-rendering="crispEdges"></path><path d="M-34.3,135.1L40.4,217.1L59.5,127.9Z" fill="rgb(30,30,30)" stroke="rgb(30,30,30)" stroke-width="1" stroke-linejoin="round" shape-rendering="crispEdges"></path><path d="M40.4,217.1L-11.4,231L55.2,293.1Z" fill="rgb(38,38,38)" stroke="rgb(38,38,38)" stroke-width="1" stroke-linejoin="round" shape-rendering="crispEdges"></path><path d="M54.3,458.8L123,455L126.3,384.3Z" fill="rgb(26,26,26)" stroke="rgb(26,26,26)" stroke-width="1" stroke-linejoin="round" shape-rendering="crispEdges"></path><path d="M645.9,-69.2L557.3,-66.1L562.1,-5.3Z" fill="rgb(34,34,34)" stroke="rgb(34,34,34)" stroke-width="1" stroke-linejoin="round" shape-rendering="crispEdges"></path><path d="M562.1,-5.3L557.3,-66.1L504.9,-13.6Z" fill="rgb(38,38,38)" stroke="rgb(38,38,38)" stroke-width="1" stroke-linejoin="round" shape-rendering="crispEdges"></path><path d="M495.1,-68.5L557.3,-66.1L439,-100.2Z" fill="rgb(39,39,39)" stroke="rgb(39,39,39)" stroke-width="1" stroke-linejoin="round" shape-rendering="crispEdges"></path><path d="M32.6,379.2L124.1,307.7L55.2,293.1Z" fill="rgb(39,39,39)" stroke="rgb(39,39,39)" stroke-width="1" stroke-linejoin="round" shape-rendering="crispEdges"></path><path d="M126.3,384.3L123,455L188,436.2Z" fill="rgb(30,30,30)" stroke="rgb(30,30,30)" stroke-width="1" stroke-linejoin="round" shape-rendering="crispEdges"></path><path d="M203.3,520L286.2,511.8L275.5,437.6Z" fill="rgb(35,35,35)" stroke="rgb(35,35,35)" stroke-width="1" stroke-linejoin="round" shape-rendering="crispEdges"></path><path d="M-46.5,49.9L-34.3,135.1L29.5,52.7Z" fill="rgb(21,21,21)" stroke="rgb(21,21,21)" stroke-width="1" stroke-linejoin="round" shape-rendering="crispEdges"></path><path d="M29.5,52.7L-34.3,135.1L59.5,127.9Z" fill="rgb(24,24,24)" stroke="rgb(24,24,24)" stroke-width="1" stroke-linejoin="round" shape-rendering="crispEdges"></path><path d="M420.4,433.1L497.3,452.1L487.9,376.2Z" fill="rgb(47,47,47)" stroke="rgb(47,47,47)" stroke-width="1" stroke-linejoin="round" shape-rendering="crispEdges"></path><path d="M639.5,357.7L657.5,301.6L587.7,305.2Z" fill="rgb(54,54,54)" stroke="rgb(54,54,54)" stroke-width="1" stroke-linejoin="round" shape-rendering="crispEdges"></path><path d="M417.4,505.5L497.3,452.1L420.4,433.1Z" fill="rgb(44,44,44)" stroke="rgb(44,44,44)" stroke-width="1" stroke-linejoin="round" shape-rendering="crispEdges"></path><path d="M417.4,505.5L420.4,433.1L360.6,450.4Z" fill="rgb(42,42,42)" stroke="rgb(42,42,42)" stroke-width="1" stroke-linejoin="round" shape-rendering="crispEdges"></path><path d="M203.3,520L275.5,437.6L188,436.2Z" fill="rgb(33,33,33)" stroke="rgb(33,33,33)" stroke-width="1" stroke-linejoin="round" shape-rendering="crispEdges"></path><path d="M-15.8,295.9L32.6,379.2L55.2,293.1Z" fill="rgb(36,36,36)" stroke="rgb(36,36,36)" stroke-width="1" stroke-linejoin="round" shape-rendering="crispEdges"></path><path d="M-38.1,350.9L-15.8,295.9L-99.3,274.6Z" fill="rgb(37,37,37)" stroke="rgb(37,37,37)" stroke-width="1" stroke-linejoin="round" shape-rendering="crispEdges"></path><path d="M-11.4,231L-15.8,295.9L55.2,293.1Z" fill="rgb(39,39,39)" stroke="rgb(39,39,39)" stroke-width="1" stroke-linejoin="round" shape-rendering="crispEdges"></path><path d="M664.2,158.8L649,75L556.3,140.9Z" fill="rgb(44,44,44)" stroke="rgb(44,44,44)" stroke-width="1" stroke-linejoin="round" shape-rendering="crispEdges"></path><path d="M589.9,54.9L647.3,-0.8L562.1,-5.3Z" fill="rgb(35,35,35)" stroke="rgb(35,35,35)" stroke-width="1" stroke-linejoin="round" shape-rendering="crispEdges"></path><path d="M116.3,-97L42.9,-73.2L65,-23.4Z" fill="rgb(16,16,16)" stroke="rgb(16,16,16)" stroke-width="1" stroke-linejoin="round" shape-rendering="crispEdges"></path><path d="M-24.5,-6.4L-46.5,49.9L29.5,52.7Z" fill="rgb(15,15,15)" stroke="rgb(15,15,15)" stroke-width="1" stroke-linejoin="round" shape-rendering="crispEdges"></path><path d="M629.3,204.5L664.2,158.8L581.1,199.5Z" fill="rgb(50,50,50)" stroke="rgb(50,50,50)" stroke-width="1" stroke-linejoin="round" shape-rendering="crispEdges"></path><path d="M722.5,221.1L664.2,158.8L629.3,204.5Z" fill="rgb(47,47,47)" stroke="rgb(47,47,47)" stroke-width="1" stroke-linejoin="round" shape-rendering="crispEdges"></path><path d="M363.9,531.2L417.4,505.5L360.6,450.4Z" fill="rgb(41,41,41)" stroke="rgb(41,41,41)" stroke-width="1" stroke-linejoin="round" shape-rendering="crispEdges"></path><path d="M575.4,515.4L564,425.3L497.3,452.1Z" fill="rgb(45,45,45)" stroke="rgb(45,45,45)" stroke-width="1" stroke-linejoin="round" shape-rendering="crispEdges"></path><path d="M497.3,452.1L564,425.3L487.9,376.2Z" fill="rgb(49,49,49)" stroke="rgb(49,49,49)" stroke-width="1" stroke-linejoin="round" shape-rendering="crispEdges"></path><path d="M587.7,305.2L657.5,301.6L629.3,204.5Z" fill="rgb(58,58,58)" stroke="rgb(58,58,58)" stroke-width="1" stroke-linejoin="round" shape-rendering="crispEdges"></path><path d="M139,524.3L203.3,520L188,436.2Z" fill="rgb(30,30,30)" stroke="rgb(30,30,30)" stroke-width="1" stroke-linejoin="round" shape-rendering="crispEdges"></path><path d="M286.2,511.8L363.9,531.2L360.6,450.4Z" fill="rgb(39,39,39)" stroke="rgb(39,39,39)" stroke-width="1" stroke-linejoin="round" shape-rendering="crispEdges"></path><path d="M203.3,520L363.9,531.2L286.2,511.8Z" fill="rgb(36,36,36)" stroke="rgb(36,36,36)" stroke-width="1" stroke-linejoin="round" shape-rendering="crispEdges"></path><path d="M-24.5,-6.4L29.5,52.7L65,-23.4Z" fill="rgb(13,13,13)" stroke="rgb(13,13,13)" stroke-width="1" stroke-linejoin="round" shape-rendering="crispEdges"></path><path d="M-99.3,274.6L-15.8,295.9L-11.4,231Z" fill="rgb(38,38,38)" stroke="rgb(38,38,38)" stroke-width="1" stroke-linejoin="round" shape-rendering="crispEdges"></path><path d="M42.9,-73.2L-24.5,-6.4L65,-23.4Z" fill="rgb(13,13,13)" stroke="rgb(13,13,13)" stroke-width="1" stroke-linejoin="round" shape-rendering="crispEdges"></path><path d="M639.5,357.7L587.7,305.2L558.5,352.2Z" fill="rgb(55,55,55)" stroke="rgb(55,55,55)" stroke-width="1" stroke-linejoin="round" shape-rendering="crispEdges"></path><path d="M711.8,68L647.3,-0.8L649,75Z" fill="rgb(33,33,33)" stroke="rgb(33,33,33)" stroke-width="1" stroke-linejoin="round" shape-rendering="crispEdges"></path><path d="M649,75L647.3,-0.8L589.9,54.9Z" fill="rgb(35,35,35)" stroke="rgb(35,35,35)" stroke-width="1" stroke-linejoin="round" shape-rendering="crispEdges"></path><path d="M564,425.3L639.5,357.7L558.5,352.2Z" fill="rgb(49,49,49)" stroke="rgb(49,49,49)" stroke-width="1" stroke-linejoin="round" shape-rendering="crispEdges"></path><path d="M32.6,379.2L54.3,458.8L126.3,384.3Z" fill="rgb(28,28,28)" stroke="rgb(28,28,28)" stroke-width="1" stroke-linejoin="round" shape-rendering="crispEdges"></path><path d="M123,455L139,524.3L188,436.2Z" fill="rgb(29,29,29)" stroke="rgb(29,29,29)" stroke-width="1" stroke-linejoin="round" shape-rendering="crispEdges"></path><path d="M-14.5,446.8L54.3,458.8L32.6,379.2Z" fill="rgb(22,22,22)" stroke="rgb(22,22,22)" stroke-width="1" stroke-linejoin="round" shape-rendering="crispEdges"></path><path d="M-15.8,295.9L-38.1,350.9L32.6,379.2Z" fill="rgb(32,32,32)" stroke="rgb(32,32,32)" stroke-width="1" stroke-linejoin="round" shape-rendering="crispEdges"></path><path d="M-93,151.7L-11.4,231L-34.3,135.1Z" fill="rgb(30,30,30)" stroke="rgb(30,30,30)" stroke-width="1" stroke-linejoin="round" shape-rendering="crispEdges"></path><path d="M417.4,505.5L497.6,511.4L497.3,452.1Z" fill="rgb(46,46,46)" stroke="rgb(46,46,46)" stroke-width="1" stroke-linejoin="round" shape-rendering="crispEdges"></path><path d="M564,425.3L638.3,449.2L639.5,357.7Z" fill="rgb(43,43,43)" stroke="rgb(43,43,43)" stroke-width="1" stroke-linejoin="round" shape-rendering="crispEdges"></path><path d="M363.9,531.2L497.6,511.4L417.4,505.5Z" fill="rgb(43,43,43)" stroke="rgb(43,43,43)" stroke-width="1" stroke-linejoin="round" shape-rendering="crispEdges"></path><path d="M59.3,503.4L139,524.3L123,455Z" fill="rgb(26,26,26)" stroke="rgb(26,26,26)" stroke-width="1" stroke-linejoin="round" shape-rendering="crispEdges"></path><path d="M203.3,520L139,524.3L363.9,531.2Z" fill="rgb(34,34,34)" stroke="rgb(34,34,34)" stroke-width="1" stroke-linejoin="round" shape-rendering="crispEdges"></path><path d="M-110.7,74.1L-34.3,135.1L-46.5,49.9Z" fill="rgb(22,22,22)" stroke="rgb(22,22,22)" stroke-width="1" stroke-linejoin="round" shape-rendering="crispEdges"></path><path d="M-110.7,74.1L-93,151.7L-34.3,135.1Z" fill="rgb(25,25,25)" stroke="rgb(25,25,25)" stroke-width="1" stroke-linejoin="round" shape-rendering="crispEdges"></path><path d="M647.3,-0.8L645.9,-69.2L562.1,-5.3Z" fill="rgb(32,32,32)" stroke="rgb(32,32,32)" stroke-width="1" stroke-linejoin="round" shape-rendering="crispEdges"></path><path d="M557.3,-66.1L645.9,-69.2L439,-100.2Z" fill="rgb(37,37,37)" stroke="rgb(37,37,37)" stroke-width="1" stroke-linejoin="round" shape-rendering="crispEdges"></path><path d="M707.9,-73.3L645.9,-69.2L647.3,-0.8Z" fill="rgb(28,28,28)" stroke="rgb(28,28,28)" stroke-width="1" stroke-linejoin="round" shape-rendering="crispEdges"></path><path d="M723.5,122.8L649,75L664.2,158.8Z" fill="rgb(39,39,39)" stroke="rgb(39,39,39)" stroke-width="1" stroke-linejoin="round" shape-rendering="crispEdges"></path><path d="M723.5,122.8L711.8,68L649,75Z" fill="rgb(35,35,35)" stroke="rgb(35,35,35)" stroke-width="1" stroke-linejoin="round" shape-rendering="crispEdges"></path><path d="M722.5,221.1L723.5,122.8L664.2,158.8Z" fill="rgb(42,42,42)" stroke="rgb(42,42,42)" stroke-width="1" stroke-linejoin="round" shape-rendering="crispEdges"></path><path d="M722.5,221.1L629.3,204.5L657.5,301.6Z" fill="rgb(52,52,52)" stroke="rgb(52,52,52)" stroke-width="1" stroke-linejoin="round" shape-rendering="crispEdges"></path><path d="M-14.5,446.8L59.3,503.4L54.3,458.8Z" fill="rgb(22,22,22)" stroke="rgb(22,22,22)" stroke-width="1" stroke-linejoin="round" shape-rendering="crispEdges"></path><path d="M54.3,458.8L59.3,503.4L123,455Z" fill="rgb(25,25,25)" stroke="rgb(25,25,25)" stroke-width="1" stroke-linejoin="round" shape-rendering="crispEdges"></path><path d="M714.1,299.9L722.5,221.1L657.5,301.6Z" fill="rgb(52,52,52)" stroke="rgb(52,52,52)" stroke-width="1" stroke-linejoin="round" shape-rendering="crispEdges"></path><path d="M-114.9,229.8L-99.3,274.6L-11.4,231Z" fill="rgb(36,36,36)" stroke="rgb(36,36,36)" stroke-width="1" stroke-linejoin="round" shape-rendering="crispEdges"></path><path d="M-38.1,350.9L-14.5,446.8L32.6,379.2Z" fill="rgb(26,26,26)" stroke="rgb(26,26,26)" stroke-width="1" stroke-linejoin="round" shape-rendering="crispEdges"></path><path d="M42.9,-73.2L-33.6,-82L-24.5,-6.4Z" fill="rgb(10,10,10)" stroke="rgb(10,10,10)" stroke-width="1" stroke-linejoin="round" shape-rendering="crispEdges"></path><path d="M-107.4,-4.1L-110.7,74.1L-46.5,49.9Z" fill="rgb(16,16,16)" stroke="rgb(16,16,16)" stroke-width="1" stroke-linejoin="round" shape-rendering="crispEdges"></path><path d="M116.3,-97L-33.6,-82L42.9,-73.2Z" fill="rgb(14,14,14)" stroke="rgb(14,14,14)" stroke-width="1" stroke-linejoin="round" shape-rendering="crispEdges"></path><path d="M-93,151.7L-114.9,229.8L-11.4,231Z" fill="rgb(32,32,32)" stroke="rgb(32,32,32)" stroke-width="1" stroke-linejoin="round" shape-rendering="crispEdges"></path><path d="M-110.7,74.1L-114.9,229.8L-93,151.7Z" fill="rgb(28,28,28)" stroke="rgb(28,28,28)" stroke-width="1" stroke-linejoin="round" shape-rendering="crispEdges"></path><path d="M-99.2,454.6L-14.5,446.8L-38.1,350.9Z" fill="rgb(22,22,22)" stroke="rgb(22,22,22)" stroke-width="1" stroke-linejoin="round" shape-rendering="crispEdges"></path><path d="M-107.4,-4.1L-46.5,49.9L-24.5,-6.4Z" fill="rgb(12,12,12)" stroke="rgb(12,12,12)" stroke-width="1" stroke-linejoin="round" shape-rendering="crispEdges"></path><path d="M708.8,384.5L714.1,299.9L657.5,301.6Z" fill="rgb(48,48,48)" stroke="rgb(48,48,48)" stroke-width="1" stroke-linejoin="round" shape-rendering="crispEdges"></path><path d="M708.8,384.5L657.5,301.6L639.5,357.7Z" fill="rgb(47,47,47)" stroke="rgb(47,47,47)" stroke-width="1" stroke-linejoin="round" shape-rendering="crispEdges"></path><path d="M575.4,515.4L638.3,449.2L564,425.3Z" fill="rgb(41,41,41)" stroke="rgb(41,41,41)" stroke-width="1" stroke-linejoin="round" shape-rendering="crispEdges"></path><path d="M638.4,528.7L575.4,515.4L497.6,511.4Z" fill="rgb(43,43,43)" stroke="rgb(43,43,43)" stroke-width="1" stroke-linejoin="round" shape-rendering="crispEdges"></path><path d="M497.6,511.4L575.4,515.4L497.3,452.1Z" fill="rgb(47,47,47)" stroke="rgb(47,47,47)" stroke-width="1" stroke-linejoin="round" shape-rendering="crispEdges"></path><path d="M781.8,1.3L721.4,6.1L711.8,68Z" fill="rgb(25,25,25)" stroke="rgb(25,25,25)" stroke-width="1" stroke-linejoin="round" shape-rendering="crispEdges"></path><path d="M711.8,68L721.4,6.1L647.3,-0.8Z" fill="rgb(28,28,28)" stroke="rgb(28,28,28)" stroke-width="1" stroke-linejoin="round" shape-rendering="crispEdges"></path><path d="M-33.6,-82L-107.4,-4.1L-24.5,-6.4Z" fill="rgb(10,10,10)" stroke="rgb(10,10,10)" stroke-width="1" stroke-linejoin="round" shape-rendering="crispEdges"></path><path d="M714.2,436L708.8,384.5L638.3,449.2Z" fill="rgb(35,35,35)" stroke="rgb(35,35,35)" stroke-width="1" stroke-linejoin="round" shape-rendering="crispEdges"></path><path d="M638.3,449.2L708.8,384.5L639.5,357.7Z" fill="rgb(41,41,41)" stroke="rgb(41,41,41)" stroke-width="1" stroke-linejoin="round" shape-rendering="crispEdges"></path><path d="M714.1,299.9L787.8,214.5L722.5,221.1Z" fill="rgb(46,46,46)" stroke="rgb(46,46,46)" stroke-width="1" stroke-linejoin="round" shape-rendering="crispEdges"></path><path d="M721.4,6.1L707.9,-73.3L647.3,-0.8Z" fill="rgb(26,26,26)" stroke="rgb(26,26,26)" stroke-width="1" stroke-linejoin="round" shape-rendering="crispEdges"></path><path d="M645.9,-69.2L707.9,-73.3L439,-100.2Z" fill="rgb(33,33,33)" stroke="rgb(33,33,33)" stroke-width="1" stroke-linejoin="round" shape-rendering="crispEdges"></path><path d="M-114.9,229.8L-111.6,372L-99.3,274.6Z" fill="rgb(39,39,39)" stroke="rgb(39,39,39)" stroke-width="1" stroke-linejoin="round" shape-rendering="crispEdges"></path><path d="M-99.3,274.6L-111.6,372L-38.1,350.9Z" fill="rgb(34,34,34)" stroke="rgb(34,34,34)" stroke-width="1" stroke-linejoin="round" shape-rendering="crispEdges"></path><path d="M116.3,-97L-92,-99.6L-33.6,-82Z" fill="rgb(10,10,10)" stroke="rgb(10,10,10)" stroke-width="1" stroke-linejoin="round" shape-rendering="crispEdges"></path><path d="M-33.6,-82L-92,-99.6L-107.4,-4.1Z" fill="rgb(10,10,10)" stroke="rgb(10,10,10)" stroke-width="1" stroke-linejoin="round" shape-rendering="crispEdges"></path><path d="M261.1,-102.7L-92,-99.6L116.3,-97Z" fill="rgb(18,18,18)" stroke="rgb(18,18,18)" stroke-width="1" stroke-linejoin="round" shape-rendering="crispEdges"></path><path d="M812.4,301L787.8,214.5L714.1,299.9Z" fill="rgb(46,46,46)" stroke="rgb(46,46,46)" stroke-width="1" stroke-linejoin="round" shape-rendering="crispEdges"></path><path d="M722.5,221.1L787.8,214.5L723.5,122.8Z" fill="rgb(40,40,40)" stroke="rgb(40,40,40)" stroke-width="1" stroke-linejoin="round" shape-rendering="crispEdges"></path><path d="M723.5,122.8L798.7,70.6L711.8,68Z" fill="rgb(31,31,31)" stroke="rgb(31,31,31)" stroke-width="1" stroke-linejoin="round" shape-rendering="crispEdges"></path><path d="M721.4,6.1L781.8,1.3L707.9,-73.3Z" fill="rgb(23,23,23)" stroke="rgb(23,23,23)" stroke-width="1" stroke-linejoin="round" shape-rendering="crispEdges"></path><path d="M721.2,504.2L714.2,436L638.3,449.2Z" fill="rgb(34,34,34)" stroke="rgb(34,34,34)" stroke-width="1" stroke-linejoin="round" shape-rendering="crispEdges"></path><path d="M708.8,384.5L793.2,356.9L714.1,299.9Z" fill="rgb(42,42,42)" stroke="rgb(42,42,42)" stroke-width="1" stroke-linejoin="round" shape-rendering="crispEdges"></path><path d="M363.9,531.2L638.4,528.7L497.6,511.4Z" fill="rgb(47,47,47)" stroke="rgb(47,47,47)" stroke-width="1" stroke-linejoin="round" shape-rendering="crispEdges"></path><path d="M575.4,515.4L638.4,528.7L638.3,449.2Z" fill="rgb(39,39,39)" stroke="rgb(39,39,39)" stroke-width="1" stroke-linejoin="round" shape-rendering="crispEdges"></path><path d="M787.8,214.5L800.9,140.2L723.5,122.8Z" fill="rgb(36,36,36)" stroke="rgb(36,36,36)" stroke-width="1" stroke-linejoin="round" shape-rendering="crispEdges"></path><path d="M-111.6,372L-99.2,454.6L-38.1,350.9Z" fill="rgb(26,26,26)" stroke="rgb(26,26,26)" stroke-width="1" stroke-linejoin="round" shape-rendering="crispEdges"></path><path d="M-14.5,446.8L-33.1,531.4L59.3,503.4Z" fill="rgb(21,21,21)" stroke="rgb(21,21,21)" stroke-width="1" stroke-linejoin="round" shape-rendering="crispEdges"></path><path d="M-99.2,454.6L-33.1,531.4L-14.5,446.8Z" fill="rgb(20,20,20)" stroke="rgb(20,20,20)" stroke-width="1" stroke-linejoin="round" shape-rendering="crispEdges"></path><path d="M59.3,503.4L-33.1,531.4L139,524.3Z" fill="rgb(24,24,24)" stroke="rgb(24,24,24)" stroke-width="1" stroke-linejoin="round" shape-rendering="crispEdges"></path><path d="M139,524.3L-33.1,531.4L363.9,531.2Z" fill="rgb(29,29,29)" stroke="rgb(29,29,29)" stroke-width="1" stroke-linejoin="round" shape-rendering="crispEdges"></path><path d="M800.9,140.2L798.7,70.6L723.5,122.8Z" fill="rgb(32,32,32)" stroke="rgb(32,32,32)" stroke-width="1" stroke-linejoin="round" shape-rendering="crispEdges"></path><path d="M798.7,70.6L781.8,1.3L711.8,68Z" fill="rgb(25,25,25)" stroke="rgb(25,25,25)" stroke-width="1" stroke-linejoin="round" shape-rendering="crispEdges"></path><path d="M780.1,432.7L793.2,356.9L708.8,384.5Z" fill="rgb(34,34,34)" stroke="rgb(34,34,34)" stroke-width="1" stroke-linejoin="round" shape-rendering="crispEdges"></path><path d="M787.8,214.5L856.3,233.7L800.9,140.2Z" fill="rgb(40,40,40)" stroke="rgb(40,40,40)" stroke-width="1" stroke-linejoin="round" shape-rendering="crispEdges"></path><path d="M780.1,432.7L708.8,384.5L714.2,436Z" fill="rgb(32,32,32)" stroke="rgb(32,32,32)" stroke-width="1" stroke-linejoin="round" shape-rendering="crispEdges"></path><path d="M793.2,356.9L812.4,301L714.1,299.9Z" fill="rgb(43,43,43)" stroke="rgb(43,43,43)" stroke-width="1" stroke-linejoin="round" shape-rendering="crispEdges"></path><path d="M800.9,140.2L860.3,129.1L798.7,70.6Z" fill="rgb(32,32,32)" stroke="rgb(32,32,32)" stroke-width="1" stroke-linejoin="round" shape-rendering="crispEdges"></path><path d="M638.4,528.7L721.2,504.2L638.3,449.2Z" fill="rgb(36,36,36)" stroke="rgb(36,36,36)" stroke-width="1" stroke-linejoin="round" shape-rendering="crispEdges"></path><path d="M-111.6,372L-111.7,508.2L-99.2,454.6Z" fill="rgb(20,20,20)" stroke="rgb(20,20,20)" stroke-width="1" stroke-linejoin="round" shape-rendering="crispEdges"></path><path d="M-99.2,454.6L-111.7,508.2L-33.1,531.4Z" fill="rgb(20,20,20)" stroke="rgb(20,20,20)" stroke-width="1" stroke-linejoin="round" shape-rendering="crispEdges"></path><path d="M-114.9,229.8L-111.7,508.2L-111.6,372Z" fill="rgb(29,29,29)" stroke="rgb(29,29,29)" stroke-width="1" stroke-linejoin="round" shape-rendering="crispEdges"></path><path d="M721.2,504.2L780.1,432.7L714.2,436Z" fill="rgb(30,30,30)" stroke="rgb(30,30,30)" stroke-width="1" stroke-linejoin="round" shape-rendering="crispEdges"></path><path d="M858.3,291.6L856.3,233.7L812.4,301Z" fill="rgb(47,47,47)" stroke="rgb(47,47,47)" stroke-width="1" stroke-linejoin="round" shape-rendering="crispEdges"></path><path d="M858.3,291.6L812.4,301L879.3,383.4Z" fill="rgb(43,43,43)" stroke="rgb(43,43,43)" stroke-width="1" stroke-linejoin="round" shape-rendering="crispEdges"></path><path d="M812.4,301L856.3,233.7L787.8,214.5Z" fill="rgb(44,44,44)" stroke="rgb(44,44,44)" stroke-width="1" stroke-linejoin="round" shape-rendering="crispEdges"></path><path d="M798.7,70.6L868,66.3L781.8,1.3Z" fill="rgb(25,25,25)" stroke="rgb(25,25,25)" stroke-width="1" stroke-linejoin="round" shape-rendering="crispEdges"></path><path d="M856.3,233.7L860.3,129.1L800.9,140.2Z" fill="rgb(37,37,37)" stroke="rgb(37,37,37)" stroke-width="1" stroke-linejoin="round" shape-rendering="crispEdges"></path><path d="M781.8,1.3L802.9,-84.4L707.9,-73.3Z" fill="rgb(21,21,21)" stroke="rgb(21,21,21)" stroke-width="1" stroke-linejoin="round" shape-rendering="crispEdges"></path><path d="M707.9,-73.3L802.9,-84.4L439,-100.2Z" fill="rgb(29,29,29)" stroke="rgb(29,29,29)" stroke-width="1" stroke-linejoin="round" shape-rendering="crispEdges"></path><path d="M886.2,-11.5L802.9,-84.4L781.8,1.3Z" fill="rgb(20,20,20)" stroke="rgb(20,20,20)" stroke-width="1" stroke-linejoin="round" shape-rendering="crispEdges"></path><path d="M879.3,383.4L812.4,301L793.2,356.9Z" fill="rgb(39,39,39)" stroke="rgb(39,39,39)" stroke-width="1" stroke-linejoin="round" shape-rendering="crispEdges"></path><path d="M886.2,-11.5L868,66.3L860.3,129.1Z" fill="rgb(27,27,27)" stroke="rgb(27,27,27)" stroke-width="1" stroke-linejoin="round" shape-rendering="crispEdges"></path><path d="M886.2,-11.5L860.3,129.1L879.3,383.4Z" fill="rgb(37,37,37)" stroke="rgb(37,37,37)" stroke-width="1" stroke-linejoin="round" shape-rendering="crispEdges"></path><path d="M860.3,129.1L868,66.3L798.7,70.6Z" fill="rgb(29,29,29)" stroke="rgb(29,29,29)" stroke-width="1" stroke-linejoin="round" shape-rendering="crispEdges"></path><path d="M721.2,504.2L791.1,513.8L780.1,432.7Z" fill="rgb(28,28,28)" stroke="rgb(28,28,28)" stroke-width="1" stroke-linejoin="round" shape-rendering="crispEdges"></path><path d="M780.1,432.7L879.3,383.4L793.2,356.9Z" fill="rgb(33,33,33)" stroke="rgb(33,33,33)" stroke-width="1" stroke-linejoin="round" shape-rendering="crispEdges"></path><path d="M638.4,528.7L791.1,513.8L721.2,504.2Z" fill="rgb(32,32,32)" stroke="rgb(32,32,32)" stroke-width="1" stroke-linejoin="round" shape-rendering="crispEdges"></path><path d="M879.3,383.4L860.3,129.1L856.3,233.7Z" fill="rgb(44,44,44)" stroke="rgb(44,44,44)" stroke-width="1" stroke-linejoin="round" shape-rendering="crispEdges"></path><path d="M868,66.3L886.2,-11.5L781.8,1.3Z" fill="rgb(22,22,22)" stroke="rgb(22,22,22)" stroke-width="1" stroke-linejoin="round" shape-rendering="crispEdges"></path><path d="M887.6,435.2L879.3,383.4L780.1,432.7Z" fill="rgb(30,30,30)" stroke="rgb(30,30,30)" stroke-width="1" stroke-linejoin="round" shape-rendering="crispEdges"></path><path d="M858.3,291.6L879.3,383.4L856.3,233.7Z" fill="rgb(46,46,46)" stroke="rgb(46,46,46)" stroke-width="1" stroke-linejoin="round" shape-rendering="crispEdges"></path><path d="M886.2,-11.5L879.9,-95.8L802.9,-84.4Z" fill="rgb(20,20,20)" stroke="rgb(20,20,20)" stroke-width="1" stroke-linejoin="round" shape-rendering="crispEdges"></path><path d="M802.9,-84.4L879.9,-95.8L439,-100.2Z" fill="rgb(25,25,25)" stroke="rgb(25,25,25)" stroke-width="1" stroke-linejoin="round" shape-rendering="crispEdges"></path><path d="M439,-100.2L879.9,-95.8L261.1,-102.7Z" fill="rgb(39,39,39)" stroke="rgb(39,39,39)" stroke-width="1" stroke-linejoin="round" shape-rendering="crispEdges"></path><path d="M791.1,513.8L887.6,435.2L780.1,432.7Z" fill="rgb(28,28,28)" stroke="rgb(28,28,28)" stroke-width="1" stroke-linejoin="round" shape-rendering="crispEdges"></path><path d="M879.3,383.4L887.6,435.2L886.2,-11.5Z" fill="rgb(46,46,46)" stroke="rgb(46,46,46)" stroke-width="1" stroke-linejoin="round" shape-rendering="crispEdges"></path><path d="M638.4,528.7L871.3,521.3L791.1,513.8Z" fill="rgb(28,28,28)" stroke="rgb(28,28,28)" stroke-width="1" stroke-linejoin="round" shape-rendering="crispEdges"></path><path d="M791.1,513.8L871.3,521.3L887.6,435.2Z" fill="rgb(28,28,28)" stroke="rgb(28,28,28)" stroke-width="1" stroke-linejoin="round" shape-rendering="crispEdges"></path></svg>