<svg xmlns="http://www.w3.org/2000/svg" width="764" height="429.75"><path d="M408.4,222.8L355.5,228.2L358,291.2Z" fill="rgb(75,75,75)" stroke="rgb(75,75,75)" stroke-width="1" stroke-linejoin="round" shape-rendering="crispEdges"></path><path d="M358,291.2L419.9,289.6L408.4,222.8Z" fill="rgb(69,69,69)" stroke="rgb(69,69,69)" stroke-width="1" stroke-linejoin="round" shape-rendering="crispEdges"></path><path d="M274.1,274.9L337.6,358.1L358,291.2Z" fill="rgb(72,72,72)" stroke="rgb(72,72,72)" stroke-width="1" stroke-linejoin="round" shape-rendering="crispEdges"></path><path d="M358,291.2L418.4,376.6L419.9,289.6Z" fill="rgb(63,63,63)" stroke="rgb(63,63,63)" stroke-width="1" stroke-linejoin="round" shape-rendering="crispEdges"></path><path d="M355.5,228.2L274.1,274.9L358,291.2Z" fill="rgb(77,77,77)" stroke="rgb(77,77,77)" stroke-width="1" stroke-linejoin="round" shape-rendering="crispEdges"></path><path d="M419.9,289.6L486.2,198.5L408.4,222.8Z" fill="rgb(70,70,70)" stroke="rgb(70,70,70)" stroke-width="1" stroke-linejoin="round" shape-rendering="crispEdges"></path><path d="M329.5,127.5L268,211.7L355.5,228.2Z" fill="rgb(93,93,93)" stroke="rgb(93,93,93)" stroke-width="1" stroke-linejoin="round" shape-rendering="crispEdges"></path><path d="M337.6,358.1L418.4,376.6L358,291.2Z" fill="rgb(65,65,65)" stroke="rgb(65,65,65)" stroke-width="1" stroke-linejoin="round" shape-rendering="crispEdges"></path><path d="M419.9,289.6L510.5,287.4L486.2,198.5Z" fill="rgb(62,62,62)" stroke="rgb(62,62,62)" stroke-width="1" stroke-linejoin="round" shape-rendering="crispEdges"></path><path d="M420.3,126.5L355.5,228.2L408.4,222.8Z" fill="rgb(84,84,84)" stroke="rgb(84,84,84)" stroke-width="1" stroke-linejoin="round" shape-rendering="crispEdges"></path><path d="M355.5,228.2L268,211.7L274.1,274.9Z" fill="rgb(85,85,85)" stroke="rgb(85,85,85)" stroke-width="1" stroke-linejoin="round" shape-rendering="crispEdges"></path><path d="M505.7,365.2L510.5,287.4L419.9,289.6Z" fill="rgb(55,55,55)" stroke="rgb(55,55,55)" stroke-width="1" stroke-linejoin="round" shape-rendering="crispEdges"></path><path d="M486.2,198.5L420.3,126.5L408.4,222.8Z" fill="rgb(81,81,81)" stroke="rgb(81,81,81)" stroke-width="1" stroke-linejoin="round" shape-rendering="crispEdges"></path><path d="M420.3,126.5L329.5,127.5L355.5,228.2Z" fill="rgb(93,93,93)" stroke="rgb(93,93,93)" stroke-width="1" stroke-linejoin="round" shape-rendering="crispEdges"></path><path d="M274.1,274.9L285.5,363L337.6,358.1Z" fill="rgb(74,74,74)" stroke="rgb(74,74,74)" stroke-width="1" stroke-linejoin="round" shape-rendering="crispEdges"></path><path d="M337.6,358.1L331.2,438.4L418.4,376.6Z" fill="rgb(64,64,64)" stroke="rgb(64,64,64)" stroke-width="1" stroke-linejoin="round" shape-rendering="crispEdges"></path><path d="M329.5,127.5L276.8,142.6L268,211.7Z" fill="rgb(102,102,102)" stroke="rgb(102,102,102)" stroke-width="1" stroke-linejoin="round" shape-rendering="crispEdges"></path><path d="M418.4,376.6L505.7,365.2L419.9,289.6Z" fill="rgb(57,57,57)" stroke="rgb(57,57,57)" stroke-width="1" stroke-linejoin="round" shape-rendering="crispEdges"></path><path d="M558.2,126.7L476.2,123.1L486.2,198.5Z" fill="rgb(80,80,80)" stroke="rgb(80,80,80)" stroke-width="1" stroke-linejoin="round" shape-rendering="crispEdges"></path><path d="M486.2,198.5L476.2,123.1L420.3,126.5Z" fill="rgb(85,85,85)" stroke="rgb(85,85,85)" stroke-width="1" stroke-linejoin="round" shape-rendering="crispEdges"></path><path d="M420.3,126.5L352.8,80.1L329.5,127.5Z" fill="rgb(101,101,101)" stroke="rgb(101,101,101)" stroke-width="1" stroke-linejoin="round" shape-rendering="crispEdges"></path><path d="M574.6,274.8L559.8,223.4L510.5,287.4Z" fill="rgb(57,57,57)" stroke="rgb(57,57,57)" stroke-width="1" stroke-linejoin="round" shape-rendering="crispEdges"></path><path d="M510.5,287.4L559.8,223.4L486.2,198.5Z" fill="rgb(62,62,62)" stroke="rgb(62,62,62)" stroke-width="1" stroke-linejoin="round" shape-rendering="crispEdges"></path><path d="M413.6,57.6L352.8,80.1L420.3,126.5Z" fill="rgb(101,101,101)" stroke="rgb(101,101,101)" stroke-width="1" stroke-linejoin="round" shape-rendering="crispEdges"></path><path d="M329.5,127.5L252.4,68.5L276.8,142.6Z" fill="rgb(110,110,110)" stroke="rgb(110,110,110)" stroke-width="1" stroke-linejoin="round" shape-rendering="crispEdges"></path><path d="M200.2,230.8L202.9,293.9L274.1,274.9Z" fill="rgb(87,87,87)" stroke="rgb(87,87,87)" stroke-width="1" stroke-linejoin="round" shape-rendering="crispEdges"></path><path d="M274.1,274.9L202.9,293.9L285.5,363Z" fill="rgb(80,80,80)" stroke="rgb(80,80,80)" stroke-width="1" stroke-linejoin="round" shape-rendering="crispEdges"></path><path d="M200.2,230.8L274.1,274.9L268,211.7Z" fill="rgb(91,91,91)" stroke="rgb(91,91,91)" stroke-width="1" stroke-linejoin="round" shape-rendering="crispEdges"></path><path d="M192.6,143.6L200.2,230.8L268,211.7Z" fill="rgb(102,102,102)" stroke="rgb(102,102,102)" stroke-width="1" stroke-linejoin="round" shape-rendering="crispEdges"></path><path d="M285,427.4L337.6,358.1L285.5,363Z" fill="rgb(71,71,71)" stroke="rgb(71,71,71)" stroke-width="1" stroke-linejoin="round" shape-rendering="crispEdges"></path><path d="M285,427.4L331.2,438.4L337.6,358.1Z" fill="rgb(69,69,69)" stroke="rgb(69,69,69)" stroke-width="1" stroke-linejoin="round" shape-rendering="crispEdges"></path><path d="M418.4,376.6L507.2,432.3L505.7,365.2Z" fill="rgb(52,52,52)" stroke="rgb(52,52,52)" stroke-width="1" stroke-linejoin="round" shape-rendering="crispEdges"></path><path d="M570.1,372L574.6,274.8L510.5,287.4Z" fill="rgb(51,51,51)" stroke="rgb(51,51,51)" stroke-width="1" stroke-linejoin="round" shape-rendering="crispEdges"></path><path d="M181.9,367.1L285,427.4L285.5,363Z" fill="rgb(77,77,77)" stroke="rgb(77,77,77)" stroke-width="1" stroke-linejoin="round" shape-rendering="crispEdges"></path><path d="M331.2,438.4L432.8,452.2L418.4,376.6Z" fill="rgb(60,60,60)" stroke="rgb(60,60,60)" stroke-width="1" stroke-linejoin="round" shape-rendering="crispEdges"></path><path d="M476.2,123.1L413.6,57.6L420.3,126.5Z" fill="rgb(94,94,94)" stroke="rgb(94,94,94)" stroke-width="1" stroke-linejoin="round" shape-rendering="crispEdges"></path><path d="M432.8,452.2L507.2,432.3L418.4,376.6Z" fill="rgb(54,54,54)" stroke="rgb(54,54,54)" stroke-width="1" stroke-linejoin="round" shape-rendering="crispEdges"></path><path d="M505.7,365.2L570.1,372L510.5,287.4Z" fill="rgb(50,50,50)" stroke="rgb(50,50,50)" stroke-width="1" stroke-linejoin="round" shape-rendering="crispEdges"></path><path d="M507.2,432.3L570.1,372L505.7,365.2Z" fill="rgb(49,49,49)" stroke="rgb(49,49,49)" stroke-width="1" stroke-linejoin="round" shape-rendering="crispEdges"></path><path d="M559.8,223.4L558.2,126.7L486.2,198.5Z" fill="rgb(72,72,72)" stroke="rgb(72,72,72)" stroke-width="1" stroke-linejoin="round" shape-rendering="crispEdges"></path><path d="M476.2,123.1L491.5,46.7L413.6,57.6Z" fill="rgb(95,95,95)" stroke="rgb(95,95,95)" stroke-width="1" stroke-linejoin="round" shape-rendering="crispEdges"></path><path d="M648.8,156.5L558.2,126.7L559.8,223.4Z" fill="rgb(74,74,74)" stroke="rgb(74,74,74)" stroke-width="1" stroke-linejoin="round" shape-rendering="crispEdges"></path><path d="M252.4,68.5L192.6,143.6L276.8,142.6Z" fill="rgb(114,114,114)" stroke="rgb(114,114,114)" stroke-width="1" stroke-linejoin="round" shape-rendering="crispEdges"></path><path d="M276.8,142.6L192.6,143.6L268,211.7Z" fill="rgb(106,106,106)" stroke="rgb(106,106,106)" stroke-width="1" stroke-linejoin="round" shape-rendering="crispEdges"></path><path d="M124.3,288.5L181.9,367.1L202.9,293.9Z" fill="rgb(85,85,85)" stroke="rgb(85,85,85)" stroke-width="1" stroke-linejoin="round" shape-rendering="crispEdges"></path><path d="M202.9,293.9L181.9,367.1L285.5,363Z" fill="rgb(81,81,81)" stroke="rgb(81,81,81)" stroke-width="1" stroke-linejoin="round" shape-rendering="crispEdges"></path><path d="M124.3,288.5L202.9,293.9L200.2,230.8Z" fill="rgb(89,89,89)" stroke="rgb(89,89,89)" stroke-width="1" stroke-linejoin="round" shape-rendering="crispEdges"></path><path d="M352.8,80.1L252.4,68.5L329.5,127.5Z" fill="rgb(110,110,110)" stroke="rgb(110,110,110)" stroke-width="1" stroke-linejoin="round" shape-rendering="crispEdges"></path><path d="M328.3,-12.4L252.4,68.5L352.8,80.1Z" fill="rgb(116,116,116)" stroke="rgb(116,116,116)" stroke-width="1" stroke-linejoin="round" shape-rendering="crispEdges"></path><path d="M558.2,126.7L491.5,46.7L476.2,123.1Z" fill="rgb(86,86,86)" stroke="rgb(86,86,86)" stroke-width="1" stroke-linejoin="round" shape-rendering="crispEdges"></path><path d="M413.6,57.6L412.5,-5.4L352.8,80.1Z" fill="rgb(107,107,107)" stroke="rgb(107,107,107)" stroke-width="1" stroke-linejoin="round" shape-rendering="crispEdges"></path><path d="M361.4,503.2L421.3,501L432.8,452.2Z" fill="rgb(58,58,58)" stroke="rgb(58,58,58)" stroke-width="1" stroke-linejoin="round" shape-rendering="crispEdges"></path><path d="M432.8,452.2L489.3,508.2L507.2,432.3Z" fill="rgb(51,51,51)" stroke="rgb(51,51,51)" stroke-width="1" stroke-linejoin="round" shape-rendering="crispEdges"></path><path d="M361.4,503.2L432.8,452.2L331.2,438.4Z" fill="rgb(62,62,62)" stroke="rgb(62,62,62)" stroke-width="1" stroke-linejoin="round" shape-rendering="crispEdges"></path><path d="M265.4,498.8L331.2,438.4L285,427.4Z" fill="rgb(70,70,70)" stroke="rgb(70,70,70)" stroke-width="1" stroke-linejoin="round" shape-rendering="crispEdges"></path><path d="M265.4,498.8L361.4,503.2L331.2,438.4Z" fill="rgb(68,68,68)" stroke="rgb(68,68,68)" stroke-width="1" stroke-linejoin="round" shape-rendering="crispEdges"></path><path d="M648.5,297L642.8,227.8L574.6,274.8Z" fill="rgb(54,54,54)" stroke="rgb(54,54,54)" stroke-width="1" stroke-linejoin="round" shape-rendering="crispEdges"></path><path d="M574.6,274.8L642.8,227.8L559.8,223.4Z" fill="rgb(60,60,60)" stroke="rgb(60,60,60)" stroke-width="1" stroke-linejoin="round" shape-rendering="crispEdges"></path><path d="M558.2,126.7L575.5,63.7L491.5,46.7Z" fill="rgb(88,88,88)" stroke="rgb(88,88,88)" stroke-width="1" stroke-linejoin="round" shape-rendering="crispEdges"></path><path d="M109.4,212.1L124.3,288.5L200.2,230.8Z" fill="rgb(97,97,97)" stroke="rgb(97,97,97)" stroke-width="1" stroke-linejoin="round" shape-rendering="crispEdges"></path><path d="M491.5,46.7L412.5,-5.4L413.6,57.6Z" fill="rgb(103,103,103)" stroke="rgb(103,103,103)" stroke-width="1" stroke-linejoin="round" shape-rendering="crispEdges"></path><path d="M653.6,372.2L648.5,297L570.1,372Z" fill="rgb(48,48,48)" stroke="rgb(48,48,48)" stroke-width="1" stroke-linejoin="round" shape-rendering="crispEdges"></path><path d="M570.1,372L648.5,297L574.6,274.8Z" fill="rgb(50,50,50)" stroke="rgb(50,50,50)" stroke-width="1" stroke-linejoin="round" shape-rendering="crispEdges"></path><path d="M210,497.5L265.4,498.8L285,427.4Z" fill="rgb(75,75,75)" stroke="rgb(75,75,75)" stroke-width="1" stroke-linejoin="round" shape-rendering="crispEdges"></path><path d="M179.9,450.1L285,427.4L181.9,367.1Z" fill="rgb(78,78,78)" stroke="rgb(78,78,78)" stroke-width="1" stroke-linejoin="round" shape-rendering="crispEdges"></path><path d="M555.6,532.7L489.3,508.2L421.3,501Z" fill="rgb(50,50,50)" stroke="rgb(50,50,50)" stroke-width="1" stroke-linejoin="round" shape-rendering="crispEdges"></path><path d="M421.3,501L489.3,508.2L432.8,452.2Z" fill="rgb(54,54,54)" stroke="rgb(54,54,54)" stroke-width="1" stroke-linejoin="round" shape-rendering="crispEdges"></path><path d="M507.2,432.3L568.3,458.6L570.1,372Z" fill="rgb(47,47,47)" stroke="rgb(47,47,47)" stroke-width="1" stroke-linejoin="round" shape-rendering="crispEdges"></path><path d="M489.3,508.2L568.3,458.6L507.2,432.3Z" fill="rgb(47,47,47)" stroke="rgb(47,47,47)" stroke-width="1" stroke-linejoin="round" shape-rendering="crispEdges"></path><path d="M635.1,74.1L575.5,63.7L558.2,126.7Z" fill="rgb(86,86,86)" stroke="rgb(86,86,86)" stroke-width="1" stroke-linejoin="round" shape-rendering="crispEdges"></path><path d="M491.5,46.7L506.2,-8.7L412.5,-5.4Z" fill="rgb(102,102,102)" stroke="rgb(102,102,102)" stroke-width="1" stroke-linejoin="round" shape-rendering="crispEdges"></path><path d="M412.5,-5.4L328.3,-12.4L352.8,80.1Z" fill="rgb(113,113,113)" stroke="rgb(113,113,113)" stroke-width="1" stroke-linejoin="round" shape-rendering="crispEdges"></path><path d="M252.4,68.5L189.5,61.6L192.6,143.6Z" fill="rgb(120,120,120)" stroke="rgb(120,120,120)" stroke-width="1" stroke-linejoin="round" shape-rendering="crispEdges"></path><path d="M192.6,143.6L109.4,212.1L200.2,230.8Z" fill="rgb(106,106,106)" stroke="rgb(106,106,106)" stroke-width="1" stroke-linejoin="round" shape-rendering="crispEdges"></path><path d="M181.1,-12.5L189.5,61.6L252.4,68.5Z" fill="rgb(127,127,127)" stroke="rgb(127,127,127)" stroke-width="1" stroke-linejoin="round" shape-rendering="crispEdges"></path><path d="M115,130.5L109.4,212.1L192.6,143.6Z" fill="rgb(115,115,115)" stroke="rgb(115,115,115)" stroke-width="1" stroke-linejoin="round" shape-rendering="crispEdges"></path><path d="M119.9,371.8L179.9,450.1L181.9,367.1Z" fill="rgb(83,83,83)" stroke="rgb(83,83,83)" stroke-width="1" stroke-linejoin="round" shape-rendering="crispEdges"></path><path d="M713.6,215.8L648.8,156.5L642.8,227.8Z" fill="rgb(66,66,66)" stroke="rgb(66,66,66)" stroke-width="1" stroke-linejoin="round" shape-rendering="crispEdges"></path><path d="M642.8,227.8L648.8,156.5L559.8,223.4Z" fill="rgb(66,66,66)" stroke="rgb(66,66,66)" stroke-width="1" stroke-linejoin="round" shape-rendering="crispEdges"></path><path d="M60.6,295.6L119.9,371.8L124.3,288.5Z" fill="rgb(90,90,90)" stroke="rgb(90,90,90)" stroke-width="1" stroke-linejoin="round" shape-rendering="crispEdges"></path><path d="M124.3,288.5L119.9,371.8L181.9,367.1Z" fill="rgb(86,86,86)" stroke="rgb(86,86,86)" stroke-width="1" stroke-linejoin="round" shape-rendering="crispEdges"></path><path d="M328.3,-12.4L286,-14.4L252.4,68.5Z" fill="rgb(123,123,123)" stroke="rgb(123,123,123)" stroke-width="1" stroke-linejoin="round" shape-rendering="crispEdges"></path><path d="M640.2,430.6L653.6,372.2L570.1,372Z" fill="rgb(46,46,46)" stroke="rgb(46,46,46)" stroke-width="1" stroke-linejoin="round" shape-rendering="crispEdges"></path><path d="M648.5,297L713.6,215.8L642.8,227.8Z" fill="rgb(57,57,57)" stroke="rgb(57,57,57)" stroke-width="1" stroke-linejoin="round" shape-rendering="crispEdges"></path><path d="M575.5,63.7L506.2,-8.7L491.5,46.7Z" fill="rgb(94,94,94)" stroke="rgb(94,94,94)" stroke-width="1" stroke-linejoin="round" shape-rendering="crispEdges"></path><path d="M412.5,-5.4L347,-102.5L328.3,-12.4Z" fill="rgb(116,116,116)" stroke="rgb(116,116,116)" stroke-width="1" stroke-linejoin="round" shape-rendering="crispEdges"></path><path d="M328.3,-12.4L272.1,-92.2L286,-14.4Z" fill="rgb(124,124,124)" stroke="rgb(124,124,124)" stroke-width="1" stroke-linejoin="round" shape-rendering="crispEdges"></path><path d="M118,531.7L210,497.5L179.9,450.1Z" fill="rgb(81,81,81)" stroke="rgb(81,81,81)" stroke-width="1" stroke-linejoin="round" shape-rendering="crispEdges"></path><path d="M179.9,450.1L210,497.5L285,427.4Z" fill="rgb(77,77,77)" stroke="rgb(77,77,77)" stroke-width="1" stroke-linejoin="round" shape-rendering="crispEdges"></path><path d="M118,531.7L555.6,532.7L361.4,503.2Z" fill="rgb(65,65,65)" stroke="rgb(65,65,65)" stroke-width="1" stroke-linejoin="round" shape-rendering="crispEdges"></path><path d="M361.4,503.2L555.6,532.7L421.3,501Z" fill="rgb(54,54,54)" stroke="rgb(54,54,54)" stroke-width="1" stroke-linejoin="round" shape-rendering="crispEdges"></path><path d="M189.5,61.6L115,130.5L192.6,143.6Z" fill="rgb(121,121,121)" stroke="rgb(121,121,121)" stroke-width="1" stroke-linejoin="round" shape-rendering="crispEdges"></path><path d="M632,530.5L640.2,430.6L568.3,458.6Z" fill="rgb(45,45,45)" stroke="rgb(45,45,45)" stroke-width="1" stroke-linejoin="round" shape-rendering="crispEdges"></path><path d="M568.3,458.6L640.2,430.6L570.1,372Z" fill="rgb(46,46,46)" stroke="rgb(46,46,46)" stroke-width="1" stroke-linejoin="round" shape-rendering="crispEdges"></path><path d="M648.8,156.5L635.1,74.1L558.2,126.7Z" fill="rgb(81,81,81)" stroke="rgb(81,81,81)" stroke-width="1" stroke-linejoin="round" shape-rendering="crispEdges"></path><path d="M575.5,63.7L567.5,-17.3L506.2,-8.7Z" fill="rgb(96,96,96)" stroke="rgb(96,96,96)" stroke-width="1" stroke-linejoin="round" shape-rendering="crispEdges"></path><path d="M489.3,508.2L555.6,532.7L568.3,458.6Z" fill="rgb(47,47,47)" stroke="rgb(47,47,47)" stroke-width="1" stroke-linejoin="round" shape-rendering="crispEdges"></path><path d="M118,531.7L361.4,503.2L265.4,498.8Z" fill="rgb(75,75,75)" stroke="rgb(75,75,75)" stroke-width="1" stroke-linejoin="round" shape-rendering="crispEdges"></path><path d="M119.9,371.8L126.2,451.3L179.9,450.1Z" fill="rgb(83,83,83)" stroke="rgb(83,83,83)" stroke-width="1" stroke-linejoin="round" shape-rendering="crispEdges"></path><path d="M109.4,212.1L60.6,295.6L124.3,288.5Z" fill="rgb(96,96,96)" stroke="rgb(96,96,96)" stroke-width="1" stroke-linejoin="round" shape-rendering="crispEdges"></path><path d="M119.9,371.8L52.7,381L126.2,451.3Z" fill="rgb(87,87,87)" stroke="rgb(87,87,87)" stroke-width="1" stroke-linejoin="round" shape-rendering="crispEdges"></path><path d="M46.3,210.6L60.6,295.6L109.4,212.1Z" fill="rgb(103,103,103)" stroke="rgb(103,103,103)" stroke-width="1" stroke-linejoin="round" shape-rendering="crispEdges"></path><path d="M660.2,-10.5L567.5,-17.3L575.5,63.7Z" fill="rgb(95,95,95)" stroke="rgb(95,95,95)" stroke-width="1" stroke-linejoin="round" shape-rendering="crispEdges"></path><path d="M506.2,-8.7L429.2,-73.5L412.5,-5.4Z" fill="rgb(106,106,106)" stroke="rgb(106,106,106)" stroke-width="1" stroke-linejoin="round" shape-rendering="crispEdges"></path><path d="M736.7,305.6L713.6,215.8L648.5,297Z" fill="rgb(51,51,51)" stroke="rgb(51,51,51)" stroke-width="1" stroke-linejoin="round" shape-rendering="crispEdges"></path><path d="M648.8,156.5L725.5,148L635.1,74.1Z" fill="rgb(79,79,79)" stroke="rgb(79,79,79)" stroke-width="1" stroke-linejoin="round" shape-rendering="crispEdges"></path><path d="M714.2,360L648.5,297L653.6,372.2Z" fill="rgb(47,47,47)" stroke="rgb(47,47,47)" stroke-width="1" stroke-linejoin="round" shape-rendering="crispEdges"></path><path d="M507.9,-90.5L429.2,-73.5L506.2,-8.7Z" fill="rgb(102,102,102)" stroke="rgb(102,102,102)" stroke-width="1" stroke-linejoin="round" shape-rendering="crispEdges"></path><path d="M114.5,-4.2L108.9,65.9L189.5,61.6Z" fill="rgb(133,133,133)" stroke="rgb(133,133,133)" stroke-width="1" stroke-linejoin="round" shape-rendering="crispEdges"></path><path d="M189.5,61.6L108.9,65.9L115,130.5Z" fill="rgb(126,126,126)" stroke="rgb(126,126,126)" stroke-width="1" stroke-linejoin="round" shape-rendering="crispEdges"></path><path d="M57.9,148.6L46.3,210.6L109.4,212.1Z" fill="rgb(114,114,114)" stroke="rgb(114,114,114)" stroke-width="1" stroke-linejoin="round" shape-rendering="crispEdges"></path><path d="M286,-14.4L181.1,-12.5L252.4,68.5Z" fill="rgb(128,128,128)" stroke="rgb(128,128,128)" stroke-width="1" stroke-linejoin="round" shape-rendering="crispEdges"></path><path d="M190,-86.3L181.1,-12.5L286,-14.4Z" fill="rgb(132,132,132)" stroke="rgb(132,132,132)" stroke-width="1" stroke-linejoin="round" shape-rendering="crispEdges"></path><path d="M57.9,148.6L109.4,212.1L115,130.5Z" fill="rgb(118,118,118)" stroke="rgb(118,118,118)" stroke-width="1" stroke-linejoin="round" shape-rendering="crispEdges"></path><path d="M734.6,424.5L653.6,372.2L640.2,430.6Z" fill="rgb(45,45,45)" stroke="rgb(45,45,45)" stroke-width="1" stroke-linejoin="round" shape-rendering="crispEdges"></path><path d="M734.6,424.5L714.2,360L653.6,372.2Z" fill="rgb(45,45,45)" stroke="rgb(45,45,45)" stroke-width="1" stroke-linejoin="round" shape-rendering="crispEdges"></path><path d="M58.8,58.7L57.9,148.6L115,130.5Z" fill="rgb(127,127,127)" stroke="rgb(127,127,127)" stroke-width="1" stroke-linejoin="round" shape-rendering="crispEdges"></path><path d="M714.2,360L736.7,305.6L648.5,297Z" fill="rgb(48,48,48)" stroke="rgb(48,48,48)" stroke-width="1" stroke-linejoin="round" shape-rendering="crispEdges"></path><path d="M31.5,421.8L52.7,381L-47,349.3Z" fill="rgb(94,94,94)" stroke="rgb(94,94,94)" stroke-width="1" stroke-linejoin="round" shape-rendering="crispEdges"></path><path d="M60.6,295.6L52.7,381L119.9,371.8Z" fill="rgb(91,91,91)" stroke="rgb(91,91,91)" stroke-width="1" stroke-linejoin="round" shape-rendering="crispEdges"></path><path d="M786.9,213.4L725.5,148L713.6,215.8Z" fill="rgb(66,66,66)" stroke="rgb(66,66,66)" stroke-width="1" stroke-linejoin="round" shape-rendering="crispEdges"></path><path d="M713.6,215.8L725.5,148L648.8,156.5Z" fill="rgb(70,70,70)" stroke="rgb(70,70,70)" stroke-width="1" stroke-linejoin="round" shape-rendering="crispEdges"></path><path d="M635.1,74.1L660.2,-10.5L575.5,63.7Z" fill="rgb(91,91,91)" stroke="rgb(91,91,91)" stroke-width="1" stroke-linejoin="round" shape-rendering="crispEdges"></path><path d="M429.2,-73.5L347,-102.5L412.5,-5.4Z" fill="rgb(112,112,112)" stroke="rgb(112,112,112)" stroke-width="1" stroke-linejoin="round" shape-rendering="crispEdges"></path><path d="M555.6,532.7L632,530.5L568.3,458.6Z" fill="rgb(46,46,46)" stroke="rgb(46,46,46)" stroke-width="1" stroke-linejoin="round" shape-rendering="crispEdges"></path><path d="M347,-102.5L272.1,-92.2L328.3,-12.4Z" fill="rgb(122,122,122)" stroke="rgb(122,122,122)" stroke-width="1" stroke-linejoin="round" shape-rendering="crispEdges"></path><path d="M555.4,-89.4L507.9,-90.5L506.2,-8.7Z" fill="rgb(99,99,99)" stroke="rgb(99,99,99)" stroke-width="1" stroke-linejoin="round" shape-rendering="crispEdges"></path><path d="M429.2,-73.5L507.9,-90.5L347,-102.5Z" fill="rgb(108,108,108)" stroke="rgb(108,108,108)" stroke-width="1" stroke-linejoin="round" shape-rendering="crispEdges"></path><path d="M555.4,-89.4L506.2,-8.7L567.5,-17.3Z" fill="rgb(98,98,98)" stroke="rgb(98,98,98)" stroke-width="1" stroke-linejoin="round" shape-rendering="crispEdges"></path><path d="M181.1,-12.5L114.5,-4.2L189.5,61.6Z" fill="rgb(134,134,134)" stroke="rgb(134,134,134)" stroke-width="1" stroke-linejoin="round" shape-rendering="crispEdges"></path><path d="M108.9,65.9L58.8,58.7L115,130.5Z" fill="rgb(130,130,130)" stroke="rgb(130,130,130)" stroke-width="1" stroke-linejoin="round" shape-rendering="crispEdges"></path><path d="M120.1,-87.8L114.5,-4.2L181.1,-12.5Z" fill="rgb(138,138,138)" stroke="rgb(138,138,138)" stroke-width="1" stroke-linejoin="round" shape-rendering="crispEdges"></path><path d="M725.5,148L701.3,47L635.1,74.1Z" fill="rgb(83,83,83)" stroke="rgb(83,83,83)" stroke-width="1" stroke-linejoin="round" shape-rendering="crispEdges"></path><path d="M49.4,518.7L118,531.7L126.2,451.3Z" fill="rgb(86,86,86)" stroke="rgb(86,86,86)" stroke-width="1" stroke-linejoin="round" shape-rendering="crispEdges"></path><path d="M126.2,451.3L118,531.7L179.9,450.1Z" fill="rgb(83,83,83)" stroke="rgb(83,83,83)" stroke-width="1" stroke-linejoin="round" shape-rendering="crispEdges"></path><path d="M210,497.5L118,531.7L265.4,498.8Z" fill="rgb(79,79,79)" stroke="rgb(79,79,79)" stroke-width="1" stroke-linejoin="round" shape-rendering="crispEdges"></path><path d="M114.5,-4.2L58.8,58.7L108.9,65.9Z" fill="rgb(136,136,136)" stroke="rgb(136,136,136)" stroke-width="1" stroke-linejoin="round" shape-rendering="crispEdges"></path><path d="M-29.9,123.4L-32.2,220.5L46.3,210.6Z" fill="rgb(120,120,120)" stroke="rgb(120,120,120)" stroke-width="1" stroke-linejoin="round" shape-rendering="crispEdges"></path><path d="M701.3,47L660.2,-10.5L635.1,74.1Z" fill="rgb(90,90,90)" stroke="rgb(90,90,90)" stroke-width="1" stroke-linejoin="round" shape-rendering="crispEdges"></path><path d="M797.6,370.9L784.9,280.3L736.7,305.6Z" fill="rgb(46,46,46)" stroke="rgb(46,46,46)" stroke-width="1" stroke-linejoin="round" shape-rendering="crispEdges"></path><path d="M730.6,526.7L734.6,424.5L640.2,430.6Z" fill="rgb(43,43,43)" stroke="rgb(43,43,43)" stroke-width="1" stroke-linejoin="round" shape-rendering="crispEdges"></path><path d="M662.7,-91.6L555.4,-89.4L567.5,-17.3Z" fill="rgb(97,97,97)" stroke="rgb(97,97,97)" stroke-width="1" stroke-linejoin="round" shape-rendering="crispEdges"></path><path d="M507.9,-90.5L801.4,-103.7L347,-102.5Z" fill="rgb(98,98,98)" stroke="rgb(98,98,98)" stroke-width="1" stroke-linejoin="round" shape-rendering="crispEdges"></path><path d="M-47,349.3L52.7,381L60.6,295.6Z" fill="rgb(95,95,95)" stroke="rgb(95,95,95)" stroke-width="1" stroke-linejoin="round" shape-rendering="crispEdges"></path><path d="M52.7,381L31.5,421.8L126.2,451.3Z" fill="rgb(88,88,88)" stroke="rgb(88,88,88)" stroke-width="1" stroke-linejoin="round" shape-rendering="crispEdges"></path><path d="M272.1,-92.2L190,-86.3L286,-14.4Z" fill="rgb(130,130,130)" stroke="rgb(130,130,130)" stroke-width="1" stroke-linejoin="round" shape-rendering="crispEdges"></path><path d="M120.1,-87.8L190,-86.3L272.1,-92.2Z" fill="rgb(134,134,134)" stroke="rgb(134,134,134)" stroke-width="1" stroke-linejoin="round" shape-rendering="crispEdges"></path><path d="M797.6,370.9L736.7,305.6L714.2,360Z" fill="rgb(46,46,46)" stroke="rgb(46,46,46)" stroke-width="1" stroke-linejoin="round" shape-rendering="crispEdges"></path><path d="M736.7,305.6L784.9,280.3L713.6,215.8Z" fill="rgb(51,51,51)" stroke="rgb(51,51,51)" stroke-width="1" stroke-linejoin="round" shape-rendering="crispEdges"></path><path d="M725.5,148L808.3,75.5L701.3,47Z" fill="rgb(82,82,82)" stroke="rgb(82,82,82)" stroke-width="1" stroke-linejoin="round" shape-rendering="crispEdges"></path><path d="M784.9,280.3L786.9,213.4L713.6,215.8Z" fill="rgb(57,57,57)" stroke="rgb(57,57,57)" stroke-width="1" stroke-linejoin="round" shape-rendering="crispEdges"></path><path d="M701.3,47L705.4,-6L660.2,-10.5Z" fill="rgb(93,93,93)" stroke="rgb(93,93,93)" stroke-width="1" stroke-linejoin="round" shape-rendering="crispEdges"></path><path d="M660.2,-10.5L662.7,-91.6L567.5,-17.3Z" fill="rgb(96,96,96)" stroke="rgb(96,96,96)" stroke-width="1" stroke-linejoin="round" shape-rendering="crispEdges"></path><path d="M798.2,4.5L705.4,-6L701.3,47Z" fill="rgb(91,91,91)" stroke="rgb(91,91,91)" stroke-width="1" stroke-linejoin="round" shape-rendering="crispEdges"></path><path d="M-29.9,123.4L46.3,210.6L57.9,148.6Z" fill="rgb(124,124,124)" stroke="rgb(124,124,124)" stroke-width="1" stroke-linejoin="round" shape-rendering="crispEdges"></path><path d="M46.3,210.6L-32.2,220.5L60.6,295.6Z" fill="rgb(106,106,106)" stroke="rgb(106,106,106)" stroke-width="1" stroke-linejoin="round" shape-rendering="crispEdges"></path><path d="M-32.2,220.5L-37.1,295.4L60.6,295.6Z" fill="rgb(102,102,102)" stroke="rgb(102,102,102)" stroke-width="1" stroke-linejoin="round" shape-rendering="crispEdges"></path><path d="M31.5,421.8L49.4,518.7L126.2,451.3Z" fill="rgb(88,88,88)" stroke="rgb(88,88,88)" stroke-width="1" stroke-linejoin="round" shape-rendering="crispEdges"></path><path d="M-16.4,447L49.4,518.7L31.5,421.8Z" fill="rgb(91,91,91)" stroke="rgb(91,91,91)" stroke-width="1" stroke-linejoin="round" shape-rendering="crispEdges"></path><path d="M734.6,424.5L797.6,370.9L714.2,360Z" fill="rgb(44,44,44)" stroke="rgb(44,44,44)" stroke-width="1" stroke-linejoin="round" shape-rendering="crispEdges"></path><path d="M784.9,280.3L870.1,206.9L786.9,213.4Z" fill="rgb(57,57,57)" stroke="rgb(57,57,57)" stroke-width="1" stroke-linejoin="round" shape-rendering="crispEdges"></path><path d="M797.4,435L797.6,370.9L734.6,424.5Z" fill="rgb(43,43,43)" stroke="rgb(43,43,43)" stroke-width="1" stroke-linejoin="round" shape-rendering="crispEdges"></path><path d="M870.1,206.9L801.4,131.6L786.9,213.4Z" fill="rgb(67,67,67)" stroke="rgb(67,67,67)" stroke-width="1" stroke-linejoin="round" shape-rendering="crispEdges"></path><path d="M786.9,213.4L801.4,131.6L725.5,148Z" fill="rgb(71,71,71)" stroke="rgb(71,71,71)" stroke-width="1" stroke-linejoin="round" shape-rendering="crispEdges"></path><path d="M114.5,-4.2L45.8,-16.4L58.8,58.7Z" fill="rgb(142,142,142)" stroke="rgb(142,142,142)" stroke-width="1" stroke-linejoin="round" shape-rendering="crispEdges"></path><path d="M58.8,58.7L-29.9,123.4L57.9,148.6Z" fill="rgb(132,132,132)" stroke="rgb(132,132,132)" stroke-width="1" stroke-linejoin="round" shape-rendering="crispEdges"></path><path d="M190,-86.3L120.1,-87.8L181.1,-12.5Z" fill="rgb(136,136,136)" stroke="rgb(136,136,136)" stroke-width="1" stroke-linejoin="round" shape-rendering="crispEdges"></path><path d="M347,-102.5L120.1,-87.8L272.1,-92.2Z" fill="rgb(130,130,130)" stroke="rgb(130,130,130)" stroke-width="1" stroke-linejoin="round" shape-rendering="crispEdges"></path><path d="M-42.2,60.3L-29.9,123.4L58.8,58.7Z" fill="rgb(138,138,138)" stroke="rgb(138,138,138)" stroke-width="1" stroke-linejoin="round" shape-rendering="crispEdges"></path><path d="M-104.4,354.6L-47,349.3L-37.1,295.4Z" fill="rgb(97,97,97)" stroke="rgb(97,97,97)" stroke-width="1" stroke-linejoin="round" shape-rendering="crispEdges"></path><path d="M120.1,-87.8L45.8,-16.4L114.5,-4.2Z" fill="rgb(142,142,142)" stroke="rgb(142,142,142)" stroke-width="1" stroke-linejoin="round" shape-rendering="crispEdges"></path><path d="M632,530.5L730.6,526.7L640.2,430.6Z" fill="rgb(44,44,44)" stroke="rgb(44,44,44)" stroke-width="1" stroke-linejoin="round" shape-rendering="crispEdges"></path><path d="M-100.3,221.9L-37.1,295.4L-32.2,220.5Z" fill="rgb(107,107,107)" stroke="rgb(107,107,107)" stroke-width="1" stroke-linejoin="round" shape-rendering="crispEdges"></path><path d="M-37.1,295.4L-47,349.3L60.6,295.6Z" fill="rgb(98,98,98)" stroke="rgb(98,98,98)" stroke-width="1" stroke-linejoin="round" shape-rendering="crispEdges"></path><path d="M-47,349.3L-16.4,447L31.5,421.8Z" fill="rgb(94,94,94)" stroke="rgb(94,94,94)" stroke-width="1" stroke-linejoin="round" shape-rendering="crispEdges"></path><path d="M707.3,-92.4L660.2,-10.5L705.4,-6Z" fill="rgb(95,95,95)" stroke="rgb(95,95,95)" stroke-width="1" stroke-linejoin="round" shape-rendering="crispEdges"></path><path d="M707.3,-92.4L662.7,-91.6L660.2,-10.5Z" fill="rgb(95,95,95)" stroke="rgb(95,95,95)" stroke-width="1" stroke-linejoin="round" shape-rendering="crispEdges"></path><path d="M555.4,-89.4L662.7,-91.6L507.9,-90.5Z" fill="rgb(97,97,97)" stroke="rgb(97,97,97)" stroke-width="1" stroke-linejoin="round" shape-rendering="crispEdges"></path><path d="M805.8,500.6L797.4,435L734.6,424.5Z" fill="rgb(42,42,42)" stroke="rgb(42,42,42)" stroke-width="1" stroke-linejoin="round" shape-rendering="crispEdges"></path><path d="M880.3,143.2L808.3,75.5L801.4,131.6Z" fill="rgb(78,78,78)" stroke="rgb(78,78,78)" stroke-width="1" stroke-linejoin="round" shape-rendering="crispEdges"></path><path d="M870.1,206.9L784.9,280.3L874.8,308.5Z" fill="rgb(51,51,51)" stroke="rgb(51,51,51)" stroke-width="1" stroke-linejoin="round" shape-rendering="crispEdges"></path><path d="M801.4,131.6L808.3,75.5L725.5,148Z" fill="rgb(78,78,78)" stroke="rgb(78,78,78)" stroke-width="1" stroke-linejoin="round" shape-rendering="crispEdges"></path><path d="M45.8,-16.4L-42.2,60.3L58.8,58.7Z" fill="rgb(143,143,143)" stroke="rgb(143,143,143)" stroke-width="1" stroke-linejoin="round" shape-rendering="crispEdges"></path><path d="M-117.2,143L-100.3,221.9L-32.2,220.5Z" fill="rgb(118,118,118)" stroke="rgb(118,118,118)" stroke-width="1" stroke-linejoin="round" shape-rendering="crispEdges"></path><path d="M-45.1,-5.9L-42.2,60.3L45.8,-16.4Z" fill="rgb(147,147,147)" stroke="rgb(147,147,147)" stroke-width="1" stroke-linejoin="round" shape-rendering="crispEdges"></path><path d="M798.2,4.5L707.3,-92.4L705.4,-6Z" fill="rgb(93,93,93)" stroke="rgb(93,93,93)" stroke-width="1" stroke-linejoin="round" shape-rendering="crispEdges"></path><path d="M662.7,-91.6L801.4,-103.7L507.9,-90.5Z" fill="rgb(95,95,95)" stroke="rgb(95,95,95)" stroke-width="1" stroke-linejoin="round" shape-rendering="crispEdges"></path><path d="M808.3,75.5L798.2,4.5L701.3,47Z" fill="rgb(87,87,87)" stroke="rgb(87,87,87)" stroke-width="1" stroke-linejoin="round" shape-rendering="crispEdges"></path><path d="M730.6,526.7L805.8,500.6L734.6,424.5Z" fill="rgb(42,42,42)" stroke="rgb(42,42,42)" stroke-width="1" stroke-linejoin="round" shape-rendering="crispEdges"></path><path d="M874.8,308.5L784.9,280.3L797.6,370.9Z" fill="rgb(46,46,46)" stroke="rgb(46,46,46)" stroke-width="1" stroke-linejoin="round" shape-rendering="crispEdges"></path><path d="M-117.2,143L-32.2,220.5L-29.9,123.4Z" fill="rgb(125,125,125)" stroke="rgb(125,125,125)" stroke-width="1" stroke-linejoin="round" shape-rendering="crispEdges"></path><path d="M-120.7,431L-41,499.5L-16.4,447Z" fill="rgb(93,93,93)" stroke="rgb(93,93,93)" stroke-width="1" stroke-linejoin="round" shape-rendering="crispEdges"></path><path d="M874.8,308.5L797.6,370.9L883.7,356.5Z" fill="rgb(45,45,45)" stroke="rgb(45,45,45)" stroke-width="1" stroke-linejoin="round" shape-rendering="crispEdges"></path><path d="M808.3,75.5L876.1,7.4L798.2,4.5Z" fill="rgb(89,89,89)" stroke="rgb(89,89,89)" stroke-width="1" stroke-linejoin="round" shape-rendering="crispEdges"></path><path d="M-16.4,447L-41,499.5L49.4,518.7Z" fill="rgb(93,93,93)" stroke="rgb(93,93,93)" stroke-width="1" stroke-linejoin="round" shape-rendering="crispEdges"></path><path d="M-120.7,431L-16.4,447L-47,349.3Z" fill="rgb(94,94,94)" stroke="rgb(94,94,94)" stroke-width="1" stroke-linejoin="round" shape-rendering="crispEdges"></path><path d="M120.1,-87.8L27,-77.1L45.8,-16.4Z" fill="rgb(144,144,144)" stroke="rgb(144,144,144)" stroke-width="1" stroke-linejoin="round" shape-rendering="crispEdges"></path><path d="M883.7,356.5L797.6,370.9L870.7,425.8Z" fill="rgb(44,44,44)" stroke="rgb(44,44,44)" stroke-width="1" stroke-linejoin="round" shape-rendering="crispEdges"></path><path d="M-100.3,221.9L-110.6,280.2L-37.1,295.4Z" fill="rgb(103,103,103)" stroke="rgb(103,103,103)" stroke-width="1" stroke-linejoin="round" shape-rendering="crispEdges"></path><path d="M-110.6,280.2L-104.4,354.6L-37.1,295.4Z" fill="rgb(98,98,98)" stroke="rgb(98,98,98)" stroke-width="1" stroke-linejoin="round" shape-rendering="crispEdges"></path><path d="M27,-77.1L-45.1,-5.9L45.8,-16.4Z" fill="rgb(148,148,148)" stroke="rgb(148,148,148)" stroke-width="1" stroke-linejoin="round" shape-rendering="crispEdges"></path><path d="M-104.9,54.1L-117.2,143L-29.9,123.4Z" fill="rgb(134,134,134)" stroke="rgb(134,134,134)" stroke-width="1" stroke-linejoin="round" shape-rendering="crispEdges"></path><path d="M870.7,425.8L797.6,370.9L797.4,435Z" fill="rgb(43,43,43)" stroke="rgb(43,43,43)" stroke-width="1" stroke-linejoin="round" shape-rendering="crispEdges"></path><path d="M874.8,308.5L880.3,143.2L870.1,206.9Z" fill="rgb(60,60,60)" stroke="rgb(60,60,60)" stroke-width="1" stroke-linejoin="round" shape-rendering="crispEdges"></path><path d="M883.7,356.5L880.3,143.2L874.8,308.5Z" fill="rgb(51,51,51)" stroke="rgb(51,51,51)" stroke-width="1" stroke-linejoin="round" shape-rendering="crispEdges"></path><path d="M870.1,206.9L880.3,143.2L801.4,131.6Z" fill="rgb(71,71,71)" stroke="rgb(71,71,71)" stroke-width="1" stroke-linejoin="round" shape-rendering="crispEdges"></path><path d="M805.8,500.6L870.7,425.8L797.4,435Z" fill="rgb(42,42,42)" stroke="rgb(42,42,42)" stroke-width="1" stroke-linejoin="round" shape-rendering="crispEdges"></path><path d="M-104.9,54.1L-29.9,123.4L-42.2,60.3Z" fill="rgb(138,138,138)" stroke="rgb(138,138,138)" stroke-width="1" stroke-linejoin="round" shape-rendering="crispEdges"></path><path d="M-100.3,221.9L-117.2,143L-110.6,280.2Z" fill="rgb(114,114,114)" stroke="rgb(114,114,114)" stroke-width="1" stroke-linejoin="round" shape-rendering="crispEdges"></path><path d="M-45.1,-5.9L-104.9,54.1L-42.2,60.3Z" fill="rgb(144,144,144)" stroke="rgb(144,144,144)" stroke-width="1" stroke-linejoin="round" shape-rendering="crispEdges"></path><path d="M883.7,356.5L887.9,83.2L880.3,143.2Z" fill="rgb(65,65,65)" stroke="rgb(65,65,65)" stroke-width="1" stroke-linejoin="round" shape-rendering="crispEdges"></path><path d="M880.3,143.2L887.9,83.2L808.3,75.5Z" fill="rgb(80,80,80)" stroke="rgb(80,80,80)" stroke-width="1" stroke-linejoin="round" shape-rendering="crispEdges"></path><path d="M798.2,4.5L801.4,-103.7L707.3,-92.4Z" fill="rgb(93,93,93)" stroke="rgb(93,93,93)" stroke-width="1" stroke-linejoin="round" shape-rendering="crispEdges"></path><path d="M-117.2,143L-120.7,431L-110.6,280.2Z" fill="rgb(99,99,99)" stroke="rgb(99,99,99)" stroke-width="1" stroke-linejoin="round" shape-rendering="crispEdges"></path><path d="M-110.6,280.2L-120.7,431L-104.4,354.6Z" fill="rgb(96,96,96)" stroke="rgb(96,96,96)" stroke-width="1" stroke-linejoin="round" shape-rendering="crispEdges"></path><path d="M-104.4,354.6L-120.7,431L-47,349.3Z" fill="rgb(95,95,95)" stroke="rgb(95,95,95)" stroke-width="1" stroke-linejoin="round" shape-rendering="crispEdges"></path><path d="M887.9,83.2L876.1,7.4L808.3,75.5Z" fill="rgb(86,86,86)" stroke="rgb(86,86,86)" stroke-width="1" stroke-linejoin="round" shape-rendering="crispEdges"></path><path d="M866,-79.5L801.4,-103.7L798.2,4.5Z" fill="rgb(93,93,93)" stroke="rgb(93,93,93)" stroke-width="1" stroke-linejoin="round" shape-rendering="crispEdges"></path><path d="M707.3,-92.4L801.4,-103.7L662.7,-91.6Z" fill="rgb(94,94,94)" stroke="rgb(94,94,94)" stroke-width="1" stroke-linejoin="round" shape-rendering="crispEdges"></path><path d="M27,-77.1L-45.8,-86.4L-45.1,-5.9Z" fill="rgb(149,149,149)" stroke="rgb(149,149,149)" stroke-width="1" stroke-linejoin="round" shape-rendering="crispEdges"></path><path d="M-45.1,-5.9L-113.9,-23.9L-104.9,54.1Z" fill="rgb(148,148,148)" stroke="rgb(148,148,148)" stroke-width="1" stroke-linejoin="round" shape-rendering="crispEdges"></path><path d="M120.1,-87.8L-45.8,-86.4L27,-77.1Z" fill="rgb(146,146,146)" stroke="rgb(146,146,146)" stroke-width="1" stroke-linejoin="round" shape-rendering="crispEdges"></path><path d="M347,-102.5L-45.8,-86.4L120.1,-87.8Z" fill="rgb(138,138,138)" stroke="rgb(138,138,138)" stroke-width="1" stroke-linejoin="round" shape-rendering="crispEdges"></path><path d="M-120.7,431L-94.3,533.4L-41,499.5Z" fill="rgb(93,93,93)" stroke="rgb(93,93,93)" stroke-width="1" stroke-linejoin="round" shape-rendering="crispEdges"></path><path d="M-41,499.5L-94.3,533.4L49.4,518.7Z" fill="rgb(93,93,93)" stroke="rgb(93,93,93)" stroke-width="1" stroke-linejoin="round" shape-rendering="crispEdges"></path><path d="M49.4,518.7L-94.3,533.4L118,531.7Z" fill="rgb(91,91,91)" stroke="rgb(91,91,91)" stroke-width="1" stroke-linejoin="round" shape-rendering="crispEdges"></path><path d="M118,531.7L-94.3,533.4L555.6,532.7Z" fill="rgb(79,79,79)" stroke="rgb(79,79,79)" stroke-width="1" stroke-linejoin="round" shape-rendering="crispEdges"></path><path d="M730.6,526.7L877.5,515.4L805.8,500.6Z" fill="rgb(42,42,42)" stroke="rgb(42,42,42)" stroke-width="1" stroke-linejoin="round" shape-rendering="crispEdges"></path><path d="M805.8,500.6L877.5,515.4L870.7,425.8Z" fill="rgb(42,42,42)" stroke="rgb(42,42,42)" stroke-width="1" stroke-linejoin="round" shape-rendering="crispEdges"></path><path d="M870.7,425.8L877.5,515.4L883.7,356.5Z" fill="rgb(42,42,42)" stroke="rgb(42,42,42)" stroke-width="1" stroke-linejoin="round" shape-rendering="crispEdges"></path><path d="M-45.8,-86.4L-113.9,-23.9L-45.1,-5.9Z" fill="rgb(149,149,149)" stroke="rgb(149,149,149)" stroke-width="1" stroke-linejoin="round" shape-rendering="crispEdges"></path><path d="M-104.9,54.1L-113.9,-23.9L-117.2,143Z" fill="rgb(141,141,141)" stroke="rgb(141,141,141)" stroke-width="1" stroke-linejoin="round" shape-rendering="crispEdges"></path><path d="M887.9,83.2L866,-79.5L876.1,7.4Z" fill="rgb(92,92,92)" stroke="rgb(92,92,92)" stroke-width="1" stroke-linejoin="round" shape-rendering="crispEdges"></path><path d="M876.1,7.4L866,-79.5L798.2,4.5Z" fill="rgb(93,93,93)" stroke="rgb(93,93,93)" stroke-width="1" stroke-linejoin="round" shape-rendering="crispEdges"></path><path d="M347,-102.5L-99.3,-86.9L-45.8,-86.4Z" fill="rgb(144,144,144)" stroke="rgb(144,144,144)" stroke-width="1" stroke-linejoin="round" shape-rendering="crispEdges"></path><path d="M-45.8,-86.4L-99.3,-86.9L-113.9,-23.9Z" fill="rgb(149,149,149)" stroke="rgb(149,149,149)" stroke-width="1" stroke-linejoin="round" shape-rendering="crispEdges"></path></svg>