<svg xmlns="http://www.w3.org/2000/svg" width="764" height="429.75"><path d="M428,232.5L509.1,228.4L447.4,124.8Z" fill="rgb(32,92,195)" stroke="rgb(32,92,195)" stroke-width="1" stroke-linejoin="round" shape-rendering="crispEdges"></path><path d="M509.1,228.4L539.8,133.7L447.4,124.8Z" fill="rgb(31,91,192)" stroke="rgb(31,91,192)" stroke-width="1" stroke-linejoin="round" shape-rendering="crispEdges"></path><path d="M509.1,228.4L590.8,161.4L539.8,133.7Z" fill="rgb(30,89,190)" stroke="rgb(30,89,190)" stroke-width="1" stroke-linejoin="round" shape-rendering="crispEdges"></path><path d="M615.5,14.5L519.1,67.5L539.8,133.7Z" fill="rgb(25,74,161)" stroke="rgb(25,74,161)" stroke-width="1" stroke-linejoin="round" shape-rendering="crispEdges"></path><path d="M539.8,133.7L519.1,67.5L447.4,124.8Z" fill="rgb(29,84,178)" stroke="rgb(29,84,178)" stroke-width="1" stroke-linejoin="round" shape-rendering="crispEdges"></path><path d="M330.4,127.6L335.8,205.3L447.4,124.8Z" fill="rgb(29,83,176)" stroke="rgb(29,83,176)" stroke-width="1" stroke-linejoin="round" shape-rendering="crispEdges"></path><path d="M447.4,124.8L335.8,205.3L428,232.5Z" fill="rgb(30,88,187)" stroke="rgb(30,88,187)" stroke-width="1" stroke-linejoin="round" shape-rendering="crispEdges"></path><path d="M519.1,67.5L433.7,52.3L447.4,124.8Z" fill="rgb(27,78,166)" stroke="rgb(27,78,166)" stroke-width="1" stroke-linejoin="round" shape-rendering="crispEdges"></path><path d="M335.8,205.3L397.3,310.4L428,232.5Z" fill="rgb(32,93,197)" stroke="rgb(32,93,197)" stroke-width="1" stroke-linejoin="round" shape-rendering="crispEdges"></path><path d="M428,232.5L529,322.2L509.1,228.4Z" fill="rgb(35,100,211)" stroke="rgb(35,100,211)" stroke-width="1" stroke-linejoin="round" shape-rendering="crispEdges"></path><path d="M509.1,228.4L611.6,197L590.8,161.4Z" fill="rgb(29,89,191)" stroke="rgb(29,89,191)" stroke-width="1" stroke-linejoin="round" shape-rendering="crispEdges"></path><path d="M594.1,306.9L611.6,197L509.1,228.4Z" fill="rgb(31,93,201)" stroke="rgb(31,93,201)" stroke-width="1" stroke-linejoin="round" shape-rendering="crispEdges"></path><path d="M352,68L330.4,127.6L447.4,124.8Z" fill="rgb(27,77,164)" stroke="rgb(27,77,164)" stroke-width="1" stroke-linejoin="round" shape-rendering="crispEdges"></path><path d="M397.3,310.4L529,322.2L428,232.5Z" fill="rgb(35,100,211)" stroke="rgb(35,100,211)" stroke-width="1" stroke-linejoin="round" shape-rendering="crispEdges"></path><path d="M433.7,52.3L352,68L447.4,124.8Z" fill="rgb(26,75,160)" stroke="rgb(26,75,160)" stroke-width="1" stroke-linejoin="round" shape-rendering="crispEdges"></path><path d="M529,322.2L594.1,306.9L509.1,228.4Z" fill="rgb(34,100,213)" stroke="rgb(34,100,213)" stroke-width="1" stroke-linejoin="round" shape-rendering="crispEdges"></path><path d="M397.3,310.4L441.9,360.8L529,322.2Z" fill="rgb(30,93,201)" stroke="rgb(30,93,201)" stroke-width="1" stroke-linejoin="round" shape-rendering="crispEdges"></path><path d="M529,322.2L586.9,416.1L594.1,306.9Z" fill="rgb(26,86,193)" stroke="rgb(26,86,193)" stroke-width="1" stroke-linejoin="round" shape-rendering="crispEdges"></path><path d="M335.8,205.3L335.9,318.1L397.3,310.4Z" fill="rgb(33,95,199)" stroke="rgb(33,95,199)" stroke-width="1" stroke-linejoin="round" shape-rendering="crispEdges"></path><path d="M397.3,310.4L334.3,411.3L441.9,360.8Z" fill="rgb(26,84,186)" stroke="rgb(26,84,186)" stroke-width="1" stroke-linejoin="round" shape-rendering="crispEdges"></path><path d="M255.6,239.5L335.9,318.1L335.8,205.3Z" fill="rgb(31,90,189)" stroke="rgb(31,90,189)" stroke-width="1" stroke-linejoin="round" shape-rendering="crispEdges"></path><path d="M250.3,75.6L275.8,149.2L330.4,127.6Z" fill="rgb(25,74,157)" stroke="rgb(25,74,157)" stroke-width="1" stroke-linejoin="round" shape-rendering="crispEdges"></path><path d="M330.4,127.6L275.8,149.2L335.8,205.3Z" fill="rgb(28,81,172)" stroke="rgb(28,81,172)" stroke-width="1" stroke-linejoin="round" shape-rendering="crispEdges"></path><path d="M594.1,306.9L659.9,211.5L611.6,197Z" fill="rgb(28,88,192)" stroke="rgb(28,88,192)" stroke-width="1" stroke-linejoin="round" shape-rendering="crispEdges"></path><path d="M611.6,197L704.8,125.6L590.8,161.4Z" fill="rgb(24,79,175)" stroke="rgb(24,79,175)" stroke-width="1" stroke-linejoin="round" shape-rendering="crispEdges"></path><path d="M590.8,161.4L615.5,14.5L539.8,133.7Z" fill="rgb(25,76,167)" stroke="rgb(25,76,167)" stroke-width="1" stroke-linejoin="round" shape-rendering="crispEdges"></path><path d="M441.9,360.8L508.9,385.2L529,322.2Z" fill="rgb(28,90,198)" stroke="rgb(28,90,198)" stroke-width="1" stroke-linejoin="round" shape-rendering="crispEdges"></path><path d="M275.8,149.2L255.6,239.5L335.8,205.3Z" fill="rgb(29,83,176)" stroke="rgb(29,83,176)" stroke-width="1" stroke-linejoin="round" shape-rendering="crispEdges"></path><path d="M519.1,67.5L445.8,-39.7L433.7,52.3Z" fill="rgb(25,70,149)" stroke="rgb(25,70,149)" stroke-width="1" stroke-linejoin="round" shape-rendering="crispEdges"></path><path d="M433.7,52.3L445.8,-39.7L352,68Z" fill="rgb(24,67,144)" stroke="rgb(24,67,144)" stroke-width="1" stroke-linejoin="round" shape-rendering="crispEdges"></path><path d="M352,68L250.3,75.6L330.4,127.6Z" fill="rgb(25,71,152)" stroke="rgb(25,71,152)" stroke-width="1" stroke-linejoin="round" shape-rendering="crispEdges"></path><path d="M521,-65.5L445.8,-39.7L519.1,67.5Z" fill="rgb(24,67,144)" stroke="rgb(24,67,144)" stroke-width="1" stroke-linejoin="round" shape-rendering="crispEdges"></path><path d="M661.6,28.4L615.5,14.5L590.8,161.4Z" fill="rgb(22,67,151)" stroke="rgb(22,67,151)" stroke-width="1" stroke-linejoin="round" shape-rendering="crispEdges"></path><path d="M676.3,376.4L673.4,305.8L594.1,306.9Z" fill="rgb(23,82,187)" stroke="rgb(23,82,187)" stroke-width="1" stroke-linejoin="round" shape-rendering="crispEdges"></path><path d="M594.1,306.9L673.4,305.8L659.9,211.5Z" fill="rgb(28,89,196)" stroke="rgb(28,89,196)" stroke-width="1" stroke-linejoin="round" shape-rendering="crispEdges"></path><path d="M250.7,-32L250.3,75.6L352,68Z" fill="rgb(22,62,134)" stroke="rgb(22,62,134)" stroke-width="1" stroke-linejoin="round" shape-rendering="crispEdges"></path><path d="M275.8,149.2L185.4,203.6L255.6,239.5Z" fill="rgb(27,80,170)" stroke="rgb(27,80,170)" stroke-width="1" stroke-linejoin="round" shape-rendering="crispEdges"></path><path d="M659.9,211.5L704.8,125.6L611.6,197Z" fill="rgb(23,78,175)" stroke="rgb(23,78,175)" stroke-width="1" stroke-linejoin="round" shape-rendering="crispEdges"></path><path d="M752.2,219.8L704.8,125.6L659.9,211.5Z" fill="rgb(21,74,170)" stroke="rgb(21,74,170)" stroke-width="1" stroke-linejoin="round" shape-rendering="crispEdges"></path><path d="M664.9,-63.5L585.4,-32.1L615.5,14.5Z" fill="rgb(19,57,131)" stroke="rgb(19,57,131)" stroke-width="1" stroke-linejoin="round" shape-rendering="crispEdges"></path><path d="M615.5,14.5L585.4,-32.1L519.1,67.5Z" fill="rgb(22,64,142)" stroke="rgb(22,64,142)" stroke-width="1" stroke-linejoin="round" shape-rendering="crispEdges"></path><path d="M704.8,125.6L661.6,28.4L590.8,161.4Z" fill="rgb(21,70,158)" stroke="rgb(21,70,158)" stroke-width="1" stroke-linejoin="round" shape-rendering="crispEdges"></path><path d="M185.4,203.6L235.6,284.5L255.6,239.5Z" fill="rgb(29,83,176)" stroke="rgb(29,83,176)" stroke-width="1" stroke-linejoin="round" shape-rendering="crispEdges"></path><path d="M255.6,239.5L235.6,284.5L335.9,318.1Z" fill="rgb(31,90,191)" stroke="rgb(31,90,191)" stroke-width="1" stroke-linejoin="round" shape-rendering="crispEdges"></path><path d="M335.9,318.1L334.3,411.3L397.3,310.4Z" fill="rgb(27,84,186)" stroke="rgb(27,84,186)" stroke-width="1" stroke-linejoin="round" shape-rendering="crispEdges"></path><path d="M585.4,-32.1L521,-65.5L519.1,67.5Z" fill="rgb(23,65,142)" stroke="rgb(23,65,142)" stroke-width="1" stroke-linejoin="round" shape-rendering="crispEdges"></path><path d="M587.9,441.2L586.9,416.1L508.9,385.2Z" fill="rgb(18,75,178)" stroke="rgb(18,75,178)" stroke-width="1" stroke-linejoin="round" shape-rendering="crispEdges"></path><path d="M508.9,385.2L586.9,416.1L529,322.2Z" fill="rgb(25,85,191)" stroke="rgb(25,85,191)" stroke-width="1" stroke-linejoin="round" shape-rendering="crispEdges"></path><path d="M489.5,485.9L508.9,385.2L441.9,360.8Z" fill="rgb(22,80,183)" stroke="rgb(22,80,183)" stroke-width="1" stroke-linejoin="round" shape-rendering="crispEdges"></path><path d="M269.7,391L334.3,411.3L335.9,318.1Z" fill="rgb(23,77,174)" stroke="rgb(23,77,174)" stroke-width="1" stroke-linejoin="round" shape-rendering="crispEdges"></path><path d="M409.4,-104.7L320.7,-55.4L445.8,-39.7Z" fill="rgb(22,62,134)" stroke="rgb(22,62,134)" stroke-width="1" stroke-linejoin="round" shape-rendering="crispEdges"></path><path d="M445.8,-39.7L320.7,-55.4L352,68Z" fill="rgb(22,61,132)" stroke="rgb(22,61,132)" stroke-width="1" stroke-linejoin="round" shape-rendering="crispEdges"></path><path d="M164,137.2L185.4,203.6L275.8,149.2Z" fill="rgb(26,74,158)" stroke="rgb(26,74,158)" stroke-width="1" stroke-linejoin="round" shape-rendering="crispEdges"></path><path d="M489.5,485.9L587.9,441.2L508.9,385.2Z" fill="rgb(19,76,179)" stroke="rgb(19,76,179)" stroke-width="1" stroke-linejoin="round" shape-rendering="crispEdges"></path><path d="M586.9,416.1L676.3,376.4L594.1,306.9Z" fill="rgb(20,78,182)" stroke="rgb(20,78,182)" stroke-width="1" stroke-linejoin="round" shape-rendering="crispEdges"></path><path d="M587.9,441.2L676.3,376.4L586.9,416.1Z" fill="rgb(15,70,171)" stroke="rgb(15,70,171)" stroke-width="1" stroke-linejoin="round" shape-rendering="crispEdges"></path><path d="M673.4,305.8L752.2,219.8L659.9,211.5Z" fill="rgb(23,81,183)" stroke="rgb(23,81,183)" stroke-width="1" stroke-linejoin="round" shape-rendering="crispEdges"></path><path d="M235.6,284.5L269.7,391L335.9,318.1Z" fill="rgb(27,83,181)" stroke="rgb(27,83,181)" stroke-width="1" stroke-linejoin="round" shape-rendering="crispEdges"></path><path d="M191.5,304.3L269.7,391L235.6,284.5Z" fill="rgb(26,81,176)" stroke="rgb(26,81,176)" stroke-width="1" stroke-linejoin="round" shape-rendering="crispEdges"></path><path d="M790.1,313.8L752.2,219.8L673.4,305.8Z" fill="rgb(22,80,184)" stroke="rgb(22,80,184)" stroke-width="1" stroke-linejoin="round" shape-rendering="crispEdges"></path><path d="M704.8,125.6L754.7,54.6L661.6,28.4Z" fill="rgb(17,59,140)" stroke="rgb(17,59,140)" stroke-width="1" stroke-linejoin="round" shape-rendering="crispEdges"></path><path d="M485,-128.7L409.4,-104.7L445.8,-39.7Z" fill="rgb(23,65,139)" stroke="rgb(23,65,139)" stroke-width="1" stroke-linejoin="round" shape-rendering="crispEdges"></path><path d="M185.4,203.6L191.5,304.3L235.6,284.5Z" fill="rgb(29,83,176)" stroke="rgb(29,83,176)" stroke-width="1" stroke-linejoin="round" shape-rendering="crispEdges"></path><path d="M752.2,219.8L764.5,134.8L704.8,125.6Z" fill="rgb(18,68,160)" stroke="rgb(18,68,160)" stroke-width="1" stroke-linejoin="round" shape-rendering="crispEdges"></path><path d="M420.6,497.7L441.9,360.8L334.3,411.3Z" fill="rgb(19,73,171)" stroke="rgb(19,73,171)" stroke-width="1" stroke-linejoin="round" shape-rendering="crispEdges"></path><path d="M420.6,497.7L489.5,485.9L441.9,360.8Z" fill="rgb(19,75,175)" stroke="rgb(19,75,175)" stroke-width="1" stroke-linejoin="round" shape-rendering="crispEdges"></path><path d="M245.4,-107.4L250.7,-32L320.7,-55.4Z" fill="rgb(20,56,122)" stroke="rgb(20,56,122)" stroke-width="1" stroke-linejoin="round" shape-rendering="crispEdges"></path><path d="M320.7,-55.4L250.7,-32L352,68Z" fill="rgb(21,58,125)" stroke="rgb(21,58,125)" stroke-width="1" stroke-linejoin="round" shape-rendering="crispEdges"></path><path d="M250.3,75.6L164,137.2L275.8,149.2Z" fill="rgb(24,71,151)" stroke="rgb(24,71,151)" stroke-width="1" stroke-linejoin="round" shape-rendering="crispEdges"></path><path d="M186.5,35.9L164,137.2L250.3,75.6Z" fill="rgb(22,62,135)" stroke="rgb(22,62,135)" stroke-width="1" stroke-linejoin="round" shape-rendering="crispEdges"></path><path d="M63.9,298.4L159.4,370.2L191.5,304.3Z" fill="rgb(24,73,160)" stroke="rgb(24,73,160)" stroke-width="1" stroke-linejoin="round" shape-rendering="crispEdges"></path><path d="M409.4,-104.7L331,-96.6L320.7,-55.4Z" fill="rgb(22,60,130)" stroke="rgb(22,60,130)" stroke-width="1" stroke-linejoin="round" shape-rendering="crispEdges"></path><path d="M521,-65.5L485,-128.7L445.8,-39.7Z" fill="rgb(24,67,143)" stroke="rgb(24,67,143)" stroke-width="1" stroke-linejoin="round" shape-rendering="crispEdges"></path><path d="M174.7,-139.8L245.4,-107.4L331,-96.6Z" fill="rgb(20,55,119)" stroke="rgb(20,55,119)" stroke-width="1" stroke-linejoin="round" shape-rendering="crispEdges"></path><path d="M593.3,-136.7L485,-128.7L521,-65.5Z" fill="rgb(23,66,143)" stroke="rgb(23,66,143)" stroke-width="1" stroke-linejoin="round" shape-rendering="crispEdges"></path><path d="M593.3,-136.7L521,-65.5L585.4,-32.1Z" fill="rgb(22,62,138)" stroke="rgb(22,62,138)" stroke-width="1" stroke-linejoin="round" shape-rendering="crispEdges"></path><path d="M764.5,134.8L754.7,54.6L704.8,125.6Z" fill="rgb(16,61,146)" stroke="rgb(16,61,146)" stroke-width="1" stroke-linejoin="round" shape-rendering="crispEdges"></path><path d="M661.6,28.4L664.9,-63.5L615.5,14.5Z" fill="rgb(17,55,127)" stroke="rgb(17,55,127)" stroke-width="1" stroke-linejoin="round" shape-rendering="crispEdges"></path><path d="M250.7,-32L186.5,35.9L250.3,75.6Z" fill="rgb(20,57,123)" stroke="rgb(20,57,123)" stroke-width="1" stroke-linejoin="round" shape-rendering="crispEdges"></path><path d="M792.2,-32.9L664.9,-63.5L661.6,28.4Z" fill="rgb(14,49,120)" stroke="rgb(14,49,120)" stroke-width="1" stroke-linejoin="round" shape-rendering="crispEdges"></path><path d="M317,493.6L420.6,497.7L334.3,411.3Z" fill="rgb(17,70,165)" stroke="rgb(17,70,165)" stroke-width="1" stroke-linejoin="round" shape-rendering="crispEdges"></path><path d="M245.4,-107.4L194.1,-9.1L250.7,-32Z" fill="rgb(19,53,116)" stroke="rgb(19,53,116)" stroke-width="1" stroke-linejoin="round" shape-rendering="crispEdges"></path><path d="M250.7,-32L194.1,-9.1L186.5,35.9Z" fill="rgb(19,51,113)" stroke="rgb(19,51,113)" stroke-width="1" stroke-linejoin="round" shape-rendering="crispEdges"></path><path d="M53.2,151L82.5,209L164,137.2Z" fill="rgb(23,65,140)" stroke="rgb(23,65,140)" stroke-width="1" stroke-linejoin="round" shape-rendering="crispEdges"></path><path d="M227.2,472.2L317,493.6L269.7,391Z" fill="rgb(16,65,156)" stroke="rgb(16,65,156)" stroke-width="1" stroke-linejoin="round" shape-rendering="crispEdges"></path><path d="M269.7,391L317,493.6L334.3,411.3Z" fill="rgb(17,67,160)" stroke="rgb(17,67,160)" stroke-width="1" stroke-linejoin="round" shape-rendering="crispEdges"></path><path d="M664.9,-63.5L593.3,-136.7L585.4,-32.1Z" fill="rgb(19,58,132)" stroke="rgb(19,58,132)" stroke-width="1" stroke-linejoin="round" shape-rendering="crispEdges"></path><path d="M317,493.6L411.3,524.8L420.6,497.7Z" fill="rgb(18,71,168)" stroke="rgb(18,71,168)" stroke-width="1" stroke-linejoin="round" shape-rendering="crispEdges"></path><path d="M420.6,497.7L411.3,524.8L489.5,485.9Z" fill="rgb(19,74,174)" stroke="rgb(19,74,174)" stroke-width="1" stroke-linejoin="round" shape-rendering="crispEdges"></path><path d="M489.5,485.9L524.9,543.9L587.9,441.2Z" fill="rgb(18,75,178)" stroke="rgb(18,75,178)" stroke-width="1" stroke-linejoin="round" shape-rendering="crispEdges"></path><path d="M785,402.4L790.1,313.8L676.3,376.4Z" fill="rgb(11,66,164)" stroke="rgb(11,66,164)" stroke-width="1" stroke-linejoin="round" shape-rendering="crispEdges"></path><path d="M676.3,376.4L790.1,313.8L673.4,305.8Z" fill="rgb(18,75,177)" stroke="rgb(18,75,177)" stroke-width="1" stroke-linejoin="round" shape-rendering="crispEdges"></path><path d="M752.2,219.8L844,186.1L764.5,134.8Z" fill="rgb(17,68,161)" stroke="rgb(17,68,161)" stroke-width="1" stroke-linejoin="round" shape-rendering="crispEdges"></path><path d="M764.5,134.8L833,74.9L754.7,54.6Z" fill="rgb(14,56,138)" stroke="rgb(14,56,138)" stroke-width="1" stroke-linejoin="round" shape-rendering="crispEdges"></path><path d="M191.5,304.3L159.4,370.2L269.7,391Z" fill="rgb(23,73,164)" stroke="rgb(23,73,164)" stroke-width="1" stroke-linejoin="round" shape-rendering="crispEdges"></path><path d="M82.5,209L191.5,304.3L185.4,203.6Z" fill="rgb(27,76,163)" stroke="rgb(27,76,163)" stroke-width="1" stroke-linejoin="round" shape-rendering="crispEdges"></path><path d="M792.2,-32.9L693.5,-97.1L664.9,-63.5Z" fill="rgb(14,48,118)" stroke="rgb(14,48,118)" stroke-width="1" stroke-linejoin="round" shape-rendering="crispEdges"></path><path d="M664.9,-63.5L693.5,-97.1L593.3,-136.7Z" fill="rgb(17,54,127)" stroke="rgb(17,54,127)" stroke-width="1" stroke-linejoin="round" shape-rendering="crispEdges"></path><path d="M411.3,524.8L524.9,543.9L489.5,485.9Z" fill="rgb(20,76,178)" stroke="rgb(20,76,178)" stroke-width="1" stroke-linejoin="round" shape-rendering="crispEdges"></path><path d="M587.9,441.2L694.5,481.5L676.3,376.4Z" fill="rgb(9,64,161)" stroke="rgb(9,64,161)" stroke-width="1" stroke-linejoin="round" shape-rendering="crispEdges"></path><path d="M174.7,-139.8L331,-96.6L409.4,-104.7Z" fill="rgb(21,57,125)" stroke="rgb(21,57,125)" stroke-width="1" stroke-linejoin="round" shape-rendering="crispEdges"></path><path d="M331,-96.6L245.4,-107.4L320.7,-55.4Z" fill="rgb(21,57,124)" stroke="rgb(21,57,124)" stroke-width="1" stroke-linejoin="round" shape-rendering="crispEdges"></path><path d="M159.4,370.2L227.2,472.2L269.7,391Z" fill="rgb(17,65,152)" stroke="rgb(17,65,152)" stroke-width="1" stroke-linejoin="round" shape-rendering="crispEdges"></path><path d="M317,493.6L345.9,569.5L411.3,524.8Z" fill="rgb(17,70,165)" stroke="rgb(17,70,165)" stroke-width="1" stroke-linejoin="round" shape-rendering="crispEdges"></path><path d="M594.7,556.5L694.5,481.5L587.9,441.2Z" fill="rgb(11,66,165)" stroke="rgb(11,66,165)" stroke-width="1" stroke-linejoin="round" shape-rendering="crispEdges"></path><path d="M790.1,313.8L844,186.1L752.2,219.8Z" fill="rgb(19,73,172)" stroke="rgb(19,73,172)" stroke-width="1" stroke-linejoin="round" shape-rendering="crispEdges"></path><path d="M754.7,54.6L792.2,-32.9L661.6,28.4Z" fill="rgb(13,49,121)" stroke="rgb(13,49,121)" stroke-width="1" stroke-linejoin="round" shape-rendering="crispEdges"></path><path d="M694.5,481.5L749.5,438.2L676.3,376.4Z" fill="rgb(4,58,154)" stroke="rgb(4,58,154)" stroke-width="1" stroke-linejoin="round" shape-rendering="crispEdges"></path><path d="M790.1,313.8L879.4,281.4L844,186.1Z" fill="rgb(19,75,176)" stroke="rgb(19,75,176)" stroke-width="1" stroke-linejoin="round" shape-rendering="crispEdges"></path><path d="M868.2,143L833,74.9L764.5,134.8Z" fill="rgb(15,61,146)" stroke="rgb(15,61,146)" stroke-width="1" stroke-linejoin="round" shape-rendering="crispEdges"></path><path d="M58.7,20.2L164,137.2L186.5,35.9Z" fill="rgb(20,55,119)" stroke="rgb(20,55,119)" stroke-width="1" stroke-linejoin="round" shape-rendering="crispEdges"></path><path d="M164,137.2L82.5,209L185.4,203.6Z" fill="rgb(25,70,151)" stroke="rgb(25,70,151)" stroke-width="1" stroke-linejoin="round" shape-rendering="crispEdges"></path><path d="M749.5,438.2L785,402.4L676.3,376.4Z" fill="rgb(5,60,156)" stroke="rgb(5,60,156)" stroke-width="1" stroke-linejoin="round" shape-rendering="crispEdges"></path><path d="M826.7,-15.3L792.2,-32.9L754.7,54.6Z" fill="rgb(11,44,113)" stroke="rgb(11,44,113)" stroke-width="1" stroke-linejoin="round" shape-rendering="crispEdges"></path><path d="M524.9,543.9L594.7,556.5L587.9,441.2Z" fill="rgb(16,72,173)" stroke="rgb(16,72,173)" stroke-width="1" stroke-linejoin="round" shape-rendering="crispEdges"></path><path d="M345.9,569.5L594.7,556.5L524.9,543.9Z" fill="rgb(20,77,179)" stroke="rgb(20,77,179)" stroke-width="1" stroke-linejoin="round" shape-rendering="crispEdges"></path><path d="M785,402.4L822.5,353.5L790.1,313.8Z" fill="rgb(11,66,164)" stroke="rgb(11,66,164)" stroke-width="1" stroke-linejoin="round" shape-rendering="crispEdges"></path><path d="M239.3,585.3L345.9,569.5L317,493.6Z" fill="rgb(16,67,159)" stroke="rgb(16,67,159)" stroke-width="1" stroke-linejoin="round" shape-rendering="crispEdges"></path><path d="M411.3,524.8L345.9,569.5L524.9,543.9Z" fill="rgb(19,74,172)" stroke="rgb(19,74,172)" stroke-width="1" stroke-linejoin="round" shape-rendering="crispEdges"></path><path d="M879.4,281.4L868.2,143L844,186.1Z" fill="rgb(18,70,165)" stroke="rgb(18,70,165)" stroke-width="1" stroke-linejoin="round" shape-rendering="crispEdges"></path><path d="M844,186.1L868.2,143L764.5,134.8Z" fill="rgb(16,65,156)" stroke="rgb(16,65,156)" stroke-width="1" stroke-linejoin="round" shape-rendering="crispEdges"></path><path d="M833,74.9L826.7,-15.3L754.7,54.6Z" fill="rgb(12,49,123)" stroke="rgb(12,49,123)" stroke-width="1" stroke-linejoin="round" shape-rendering="crispEdges"></path><path d="M174.7,-139.8L111.2,-18.5L194.1,-9.1Z" fill="rgb(17,47,105)" stroke="rgb(17,47,105)" stroke-width="1" stroke-linejoin="round" shape-rendering="crispEdges"></path><path d="M194.1,-9.1L111.2,-18.5L186.5,35.9Z" fill="rgb(17,48,106)" stroke="rgb(17,48,106)" stroke-width="1" stroke-linejoin="round" shape-rendering="crispEdges"></path><path d="M868.2,143L826.7,-15.3L833,74.9Z" fill="rgb(13,53,132)" stroke="rgb(13,53,132)" stroke-width="1" stroke-linejoin="round" shape-rendering="crispEdges"></path><path d="M792.2,-32.9L757,-130.5L693.5,-97.1Z" fill="rgb(12,45,114)" stroke="rgb(12,45,114)" stroke-width="1" stroke-linejoin="round" shape-rendering="crispEdges"></path><path d="M58.7,20.2L53.2,151L164,137.2Z" fill="rgb(20,57,123)" stroke="rgb(20,57,123)" stroke-width="1" stroke-linejoin="round" shape-rendering="crispEdges"></path><path d="M82.5,209L63.9,298.4L191.5,304.3Z" fill="rgb(27,76,162)" stroke="rgb(27,76,162)" stroke-width="1" stroke-linejoin="round" shape-rendering="crispEdges"></path><path d="M30.3,327.8L63.9,298.4L-32.2,185.4Z" fill="rgb(25,68,146)" stroke="rgb(25,68,146)" stroke-width="1" stroke-linejoin="round" shape-rendering="crispEdges"></path><path d="M159.4,370.2L166.3,493.5L227.2,472.2Z" fill="rgb(14,59,142)" stroke="rgb(14,59,142)" stroke-width="1" stroke-linejoin="round" shape-rendering="crispEdges"></path><path d="M863.8,442.7L879.4,281.4L822.5,353.5Z" fill="rgb(10,65,163)" stroke="rgb(10,65,163)" stroke-width="1" stroke-linejoin="round" shape-rendering="crispEdges"></path><path d="M822.5,353.5L879.4,281.4L790.1,313.8Z" fill="rgb(16,73,174)" stroke="rgb(16,73,174)" stroke-width="1" stroke-linejoin="round" shape-rendering="crispEdges"></path><path d="M879.1,-124.7L757,-130.5L792.2,-32.9Z" fill="rgb(11,44,112)" stroke="rgb(11,44,112)" stroke-width="1" stroke-linejoin="round" shape-rendering="crispEdges"></path><path d="M693.5,-97.1L757,-130.5L593.3,-136.7Z" fill="rgb(16,52,123)" stroke="rgb(16,52,123)" stroke-width="1" stroke-linejoin="round" shape-rendering="crispEdges"></path><path d="M83.7,461.5L166.3,493.5L159.4,370.2Z" fill="rgb(13,55,134)" stroke="rgb(13,55,134)" stroke-width="1" stroke-linejoin="round" shape-rendering="crispEdges"></path><path d="M227.2,472.2L239.3,585.3L317,493.6Z" fill="rgb(16,65,155)" stroke="rgb(16,65,155)" stroke-width="1" stroke-linejoin="round" shape-rendering="crispEdges"></path><path d="M485,-128.7L174.7,-139.8L409.4,-104.7Z" fill="rgb(22,60,130)" stroke="rgb(22,60,130)" stroke-width="1" stroke-linejoin="round" shape-rendering="crispEdges"></path><path d="M245.4,-107.4L174.7,-139.8L194.1,-9.1Z" fill="rgb(18,51,112)" stroke="rgb(18,51,112)" stroke-width="1" stroke-linejoin="round" shape-rendering="crispEdges"></path><path d="M593.3,-136.7L174.7,-139.8L485,-128.7Z" fill="rgb(23,63,136)" stroke="rgb(23,63,136)" stroke-width="1" stroke-linejoin="round" shape-rendering="crispEdges"></path><path d="M707.3,568.5L737.3,528.1L694.5,481.5Z" fill="rgb(4,58,153)" stroke="rgb(4,58,153)" stroke-width="1" stroke-linejoin="round" shape-rendering="crispEdges"></path><path d="M694.5,481.5L737.3,528.1L749.5,438.2Z" fill="rgb(3,57,151)" stroke="rgb(3,57,151)" stroke-width="1" stroke-linejoin="round" shape-rendering="crispEdges"></path><path d="M749.5,438.2L863.8,442.7L785,402.4Z" fill="rgb(0,53,146)" stroke="rgb(0,53,146)" stroke-width="1" stroke-linejoin="round" shape-rendering="crispEdges"></path><path d="M785,402.4L863.8,442.7L822.5,353.5Z" fill="rgb(4,58,153)" stroke="rgb(4,58,153)" stroke-width="1" stroke-linejoin="round" shape-rendering="crispEdges"></path><path d="M111.2,-18.5L58.7,20.2L186.5,35.9Z" fill="rgb(17,46,102)" stroke="rgb(17,46,102)" stroke-width="1" stroke-linejoin="round" shape-rendering="crispEdges"></path><path d="M16.9,19.3L58.7,20.2L-6.7,-34.1Z" fill="rgb(14,37,84)" stroke="rgb(14,37,84)" stroke-width="1" stroke-linejoin="round" shape-rendering="crispEdges"></path><path d="M63.9,298.4L81.6,401.7L159.4,370.2Z" fill="rgb(20,64,146)" stroke="rgb(20,64,146)" stroke-width="1" stroke-linejoin="round" shape-rendering="crispEdges"></path><path d="M345.9,569.5L707.3,568.5L594.7,556.5Z" fill="rgb(17,74,176)" stroke="rgb(17,74,176)" stroke-width="1" stroke-linejoin="round" shape-rendering="crispEdges"></path><path d="M594.7,556.5L707.3,568.5L694.5,481.5Z" fill="rgb(8,62,160)" stroke="rgb(8,62,160)" stroke-width="1" stroke-linejoin="round" shape-rendering="crispEdges"></path><path d="M-32.2,185.4L63.9,298.4L82.5,209Z" fill="rgb(24,66,142)" stroke="rgb(24,66,142)" stroke-width="1" stroke-linejoin="round" shape-rendering="crispEdges"></path><path d="M63.9,298.4L30.3,327.8L81.6,401.7Z" fill="rgb(21,63,142)" stroke="rgb(21,63,142)" stroke-width="1" stroke-linejoin="round" shape-rendering="crispEdges"></path><path d="M-32.2,185.4L82.5,209L53.2,151Z" fill="rgb(22,61,132)" stroke="rgb(22,61,132)" stroke-width="1" stroke-linejoin="round" shape-rendering="crispEdges"></path><path d="M139,578.2L239.3,585.3L166.3,493.5Z" fill="rgb(14,58,142)" stroke="rgb(14,58,142)" stroke-width="1" stroke-linejoin="round" shape-rendering="crispEdges"></path><path d="M166.3,493.5L239.3,585.3L227.2,472.2Z" fill="rgb(15,61,147)" stroke="rgb(15,61,147)" stroke-width="1" stroke-linejoin="round" shape-rendering="crispEdges"></path><path d="M345.9,569.5L819,586.4L707.3,568.5Z" fill="rgb(11,67,165)" stroke="rgb(11,67,165)" stroke-width="1" stroke-linejoin="round" shape-rendering="crispEdges"></path><path d="M58.7,20.2L4.2,119.8L53.2,151Z" fill="rgb(19,51,113)" stroke="rgb(19,51,113)" stroke-width="1" stroke-linejoin="round" shape-rendering="crispEdges"></path><path d="M81.6,401.7L83.7,461.5L159.4,370.2Z" fill="rgb(15,56,134)" stroke="rgb(15,56,134)" stroke-width="1" stroke-linejoin="round" shape-rendering="crispEdges"></path><path d="M20.7,368.1L83.7,461.5L81.6,401.7Z" fill="rgb(14,52,127)" stroke="rgb(14,52,127)" stroke-width="1" stroke-linejoin="round" shape-rendering="crispEdges"></path><path d="M819,586.4L863.8,442.7L737.3,528.1Z" fill="rgb(0,53,146)" stroke="rgb(0,53,146)" stroke-width="1" stroke-linejoin="round" shape-rendering="crispEdges"></path><path d="M737.3,528.1L863.8,442.7L749.5,438.2Z" fill="rgb(0,53,146)" stroke="rgb(0,53,146)" stroke-width="1" stroke-linejoin="round" shape-rendering="crispEdges"></path><path d="M-6.7,-34.1L58.7,20.2L111.2,-18.5Z" fill="rgb(14,39,88)" stroke="rgb(14,39,88)" stroke-width="1" stroke-linejoin="round" shape-rendering="crispEdges"></path><path d="M58.7,20.2L16.9,19.3L4.2,119.8Z" fill="rgb(16,44,99)" stroke="rgb(16,44,99)" stroke-width="1" stroke-linejoin="round" shape-rendering="crispEdges"></path><path d="M-53.8,323.6L20.7,368.1L30.3,327.8Z" fill="rgb(20,59,133)" stroke="rgb(20,59,133)" stroke-width="1" stroke-linejoin="round" shape-rendering="crispEdges"></path><path d="M30.3,327.8L20.7,368.1L81.6,401.7Z" fill="rgb(18,58,134)" stroke="rgb(18,58,134)" stroke-width="1" stroke-linejoin="round" shape-rendering="crispEdges"></path><path d="M174.7,-139.8L78,-111.9L111.2,-18.5Z" fill="rgb(16,44,99)" stroke="rgb(16,44,99)" stroke-width="1" stroke-linejoin="round" shape-rendering="crispEdges"></path><path d="M4.2,119.8L-32.2,185.4L53.2,151Z" fill="rgb(20,56,123)" stroke="rgb(20,56,123)" stroke-width="1" stroke-linejoin="round" shape-rendering="crispEdges"></path><path d="M-99.1,108.8L-32.2,185.4L4.2,119.8Z" fill="rgb(19,54,118)" stroke="rgb(19,54,118)" stroke-width="1" stroke-linejoin="round" shape-rendering="crispEdges"></path><path d="M89.7,564.3L166.3,493.5L83.7,461.5Z" fill="rgb(13,53,130)" stroke="rgb(13,53,130)" stroke-width="1" stroke-linejoin="round" shape-rendering="crispEdges"></path><path d="M89.7,564.3L139,578.2L166.3,493.5Z" fill="rgb(13,54,133)" stroke="rgb(13,54,133)" stroke-width="1" stroke-linejoin="round" shape-rendering="crispEdges"></path><path d="M868.2,143L879.1,-124.7L826.7,-15.3Z" fill="rgb(11,44,112)" stroke="rgb(11,44,112)" stroke-width="1" stroke-linejoin="round" shape-rendering="crispEdges"></path><path d="M826.7,-15.3L879.1,-124.7L792.2,-32.9Z" fill="rgb(11,44,112)" stroke="rgb(11,44,112)" stroke-width="1" stroke-linejoin="round" shape-rendering="crispEdges"></path><path d="M879.4,281.4L879.1,-124.7L868.2,143Z" fill="rgb(14,58,141)" stroke="rgb(14,58,141)" stroke-width="1" stroke-linejoin="round" shape-rendering="crispEdges"></path><path d="M78,-111.9L-6.7,-34.1L111.2,-18.5Z" fill="rgb(15,40,89)" stroke="rgb(15,40,89)" stroke-width="1" stroke-linejoin="round" shape-rendering="crispEdges"></path><path d="M16.9,19.3L-67.5,54.3L4.2,119.8Z" fill="rgb(16,44,98)" stroke="rgb(16,44,98)" stroke-width="1" stroke-linejoin="round" shape-rendering="crispEdges"></path><path d="M-24.8,484.7L89.7,564.3L83.7,461.5Z" fill="rgb(12,48,120)" stroke="rgb(12,48,120)" stroke-width="1" stroke-linejoin="round" shape-rendering="crispEdges"></path><path d="M239.3,585.3L819,586.4L345.9,569.5Z" fill="rgb(19,76,177)" stroke="rgb(19,76,177)" stroke-width="1" stroke-linejoin="round" shape-rendering="crispEdges"></path><path d="M707.3,568.5L819,586.4L737.3,528.1Z" fill="rgb(1,54,147)" stroke="rgb(1,54,147)" stroke-width="1" stroke-linejoin="round" shape-rendering="crispEdges"></path><path d="M174.7,-139.8L29.3,-127.2L78,-111.9Z" fill="rgb(16,42,94)" stroke="rgb(16,42,94)" stroke-width="1" stroke-linejoin="round" shape-rendering="crispEdges"></path><path d="M78,-111.9L29.3,-127.2L-6.7,-34.1Z" fill="rgb(14,38,85)" stroke="rgb(14,38,85)" stroke-width="1" stroke-linejoin="round" shape-rendering="crispEdges"></path><path d="M-32.2,185.4L-53.8,323.6L30.3,327.8Z" fill="rgb(24,67,145)" stroke="rgb(24,67,145)" stroke-width="1" stroke-linejoin="round" shape-rendering="crispEdges"></path><path d="M20.7,368.1L-24.8,484.7L83.7,461.5Z" fill="rgb(11,46,116)" stroke="rgb(11,46,116)" stroke-width="1" stroke-linejoin="round" shape-rendering="crispEdges"></path><path d="M-110.2,227.8L-53.8,323.6L-32.2,185.4Z" fill="rgb(23,64,138)" stroke="rgb(23,64,138)" stroke-width="1" stroke-linejoin="round" shape-rendering="crispEdges"></path><path d="M-86.2,-50.5L-67.5,54.3L-6.7,-34.1Z" fill="rgb(13,35,80)" stroke="rgb(13,35,80)" stroke-width="1" stroke-linejoin="round" shape-rendering="crispEdges"></path><path d="M-6.7,-34.1L-67.5,54.3L16.9,19.3Z" fill="rgb(14,37,84)" stroke="rgb(14,37,84)" stroke-width="1" stroke-linejoin="round" shape-rendering="crispEdges"></path><path d="M-86.2,-50.5L-99.1,108.8L-67.5,54.3Z" fill="rgb(15,40,90)" stroke="rgb(15,40,90)" stroke-width="1" stroke-linejoin="round" shape-rendering="crispEdges"></path><path d="M-67.5,54.3L-99.1,108.8L4.2,119.8Z" fill="rgb(17,48,106)" stroke="rgb(17,48,106)" stroke-width="1" stroke-linejoin="round" shape-rendering="crispEdges"></path><path d="M-95.6,392L20.7,368.1L-53.8,323.6Z" fill="rgb(18,55,128)" stroke="rgb(18,55,128)" stroke-width="1" stroke-linejoin="round" shape-rendering="crispEdges"></path><path d="M-95.6,392L-24.8,484.7L20.7,368.1Z" fill="rgb(12,46,116)" stroke="rgb(12,46,116)" stroke-width="1" stroke-linejoin="round" shape-rendering="crispEdges"></path><path d="M-99.1,108.8L-110.2,227.8L-32.2,185.4Z" fill="rgb(21,58,125)" stroke="rgb(21,58,125)" stroke-width="1" stroke-linejoin="round" shape-rendering="crispEdges"></path><path d="M-110.2,227.8L-95.6,392L-53.8,323.6Z" fill="rgb(22,63,139)" stroke="rgb(22,63,139)" stroke-width="1" stroke-linejoin="round" shape-rendering="crispEdges"></path><path d="M29.3,-127.2L-86.2,-50.5L-6.7,-34.1Z" fill="rgb(13,35,80)" stroke="rgb(13,35,80)" stroke-width="1" stroke-linejoin="round" shape-rendering="crispEdges"></path><path d="M-99.1,108.8L-110.2,-126.8L-110.2,227.8Z" fill="rgb(16,45,99)" stroke="rgb(16,45,99)" stroke-width="1" stroke-linejoin="round" shape-rendering="crispEdges"></path><path d="M-105.3,537.9L14.2,584.8L-24.8,484.7Z" fill="rgb(11,44,112)" stroke="rgb(11,44,112)" stroke-width="1" stroke-linejoin="round" shape-rendering="crispEdges"></path><path d="M-24.8,484.7L14.2,584.8L89.7,564.3Z" fill="rgb(11,46,116)" stroke="rgb(11,46,116)" stroke-width="1" stroke-linejoin="round" shape-rendering="crispEdges"></path><path d="M89.7,564.3L14.2,584.8L139,578.2Z" fill="rgb(12,50,125)" stroke="rgb(12,50,125)" stroke-width="1" stroke-linejoin="round" shape-rendering="crispEdges"></path><path d="M139,578.2L14.2,584.8L239.3,585.3Z" fill="rgb(13,54,133)" stroke="rgb(13,54,133)" stroke-width="1" stroke-linejoin="round" shape-rendering="crispEdges"></path><path d="M-110.2,227.8L-103.9,472.4L-95.6,392Z" fill="rgb(17,55,127)" stroke="rgb(17,55,127)" stroke-width="1" stroke-linejoin="round" shape-rendering="crispEdges"></path><path d="M-95.6,392L-103.9,472.4L-24.8,484.7Z" fill="rgb(11,44,112)" stroke="rgb(11,44,112)" stroke-width="1" stroke-linejoin="round" shape-rendering="crispEdges"></path><path d="M29.3,-127.2L-110.2,-126.8L-86.2,-50.5Z" fill="rgb(13,35,80)" stroke="rgb(13,35,80)" stroke-width="1" stroke-linejoin="round" shape-rendering="crispEdges"></path><path d="M-86.2,-50.5L-110.2,-126.8L-99.1,108.8Z" fill="rgb(13,35,80)" stroke="rgb(13,35,80)" stroke-width="1" stroke-linejoin="round" shape-rendering="crispEdges"></path><path d="M174.7,-139.8L-110.2,-126.8L29.3,-127.2Z" fill="rgb(14,37,85)" stroke="rgb(14,37,85)" stroke-width="1" stroke-linejoin="round" shape-rendering="crispEdges"></path><path d="M-103.9,472.4L-105.3,537.9L-24.8,484.7Z" fill="rgb(11,44,112)" stroke="rgb(11,44,112)" stroke-width="1" stroke-linejoin="round" shape-rendering="crispEdges"></path><path d="M-110.2,227.8L-105.3,537.9L-103.9,472.4Z" fill="rgb(13,47,116)" stroke="rgb(13,47,116)" stroke-width="1" stroke-linejoin="round" shape-rendering="crispEdges"></path></svg>