<svg xmlns="http://www.w3.org/2000/svg" width="764" height="429.75"><path d="M332,220.2L229.5,213.1L284.3,290.2Z" fill="rgb(19,110,30)" stroke="rgb(19,110,30)" stroke-width="1" stroke-linejoin="round" shape-rendering="crispEdges"></path><path d="M187.4,141.6L198.6,203.5L229.5,213.1Z" fill="rgb(19,125,33)" stroke="rgb(19,125,33)" stroke-width="1" stroke-linejoin="round" shape-rendering="crispEdges"></path><path d="M229.5,213.1L155,274.8L284.3,290.2Z" fill="rgb(19,112,30)" stroke="rgb(19,112,30)" stroke-width="1" stroke-linejoin="round" shape-rendering="crispEdges"></path><path d="M332,220.2L280.8,140L229.5,213.1Z" fill="rgb(19,117,32)" stroke="rgb(19,117,32)" stroke-width="1" stroke-linejoin="round" shape-rendering="crispEdges"></path><path d="M201.3,397.4L308.2,330.7L284.3,290.2Z" fill="rgb(18,96,26)" stroke="rgb(18,96,26)" stroke-width="1" stroke-linejoin="round" shape-rendering="crispEdges"></path><path d="M284.3,290.2L308.2,330.7L332,220.2Z" fill="rgb(18,102,28)" stroke="rgb(18,102,28)" stroke-width="1" stroke-linejoin="round" shape-rendering="crispEdges"></path><path d="M332,220.2L349.1,132.9L280.8,140Z" fill="rgb(19,118,32)" stroke="rgb(19,118,32)" stroke-width="1" stroke-linejoin="round" shape-rendering="crispEdges"></path><path d="M198.6,203.5L155,274.8L229.5,213.1Z" fill="rgb(19,119,32)" stroke="rgb(19,119,32)" stroke-width="1" stroke-linejoin="round" shape-rendering="crispEdges"></path><path d="M283.4,55.1L187.4,141.6L280.8,140Z" fill="rgb(19,132,35)" stroke="rgb(19,132,35)" stroke-width="1" stroke-linejoin="round" shape-rendering="crispEdges"></path><path d="M280.8,140L187.4,141.6L229.5,213.1Z" fill="rgb(19,126,34)" stroke="rgb(19,126,34)" stroke-width="1" stroke-linejoin="round" shape-rendering="crispEdges"></path><path d="M198.6,203.5L102.9,220.4L155,274.8Z" fill="rgb(19,122,33)" stroke="rgb(19,122,33)" stroke-width="1" stroke-linejoin="round" shape-rendering="crispEdges"></path><path d="M404.7,328L433,233.8L332,220.2Z" fill="rgb(18,98,27)" stroke="rgb(18,98,27)" stroke-width="1" stroke-linejoin="round" shape-rendering="crispEdges"></path><path d="M332,220.2L402.7,137.4L349.1,132.9Z" fill="rgb(19,115,31)" stroke="rgb(19,115,31)" stroke-width="1" stroke-linejoin="round" shape-rendering="crispEdges"></path><path d="M308.2,330.7L404.7,328L332,220.2Z" fill="rgb(18,96,26)" stroke="rgb(18,96,26)" stroke-width="1" stroke-linejoin="round" shape-rendering="crispEdges"></path><path d="M245.4,414.8L316.8,388L308.2,330.7Z" fill="rgb(18,89,24)" stroke="rgb(18,89,24)" stroke-width="1" stroke-linejoin="round" shape-rendering="crispEdges"></path><path d="M308.2,330.7L316.8,388L404.7,328Z" fill="rgb(18,89,24)" stroke="rgb(18,89,24)" stroke-width="1" stroke-linejoin="round" shape-rendering="crispEdges"></path><path d="M433,233.8L402.7,137.4L332,220.2Z" fill="rgb(19,107,29)" stroke="rgb(19,107,29)" stroke-width="1" stroke-linejoin="round" shape-rendering="crispEdges"></path><path d="M402.7,137.4L326.7,68.5L349.1,132.9Z" fill="rgb(19,122,33)" stroke="rgb(19,122,33)" stroke-width="1" stroke-linejoin="round" shape-rendering="crispEdges"></path><path d="M349.1,132.9L326.7,68.5L280.8,140Z" fill="rgb(19,126,34)" stroke="rgb(19,126,34)" stroke-width="1" stroke-linejoin="round" shape-rendering="crispEdges"></path><path d="M187.4,141.6L102.9,220.4L198.6,203.5Z" fill="rgb(19,128,34)" stroke="rgb(19,128,34)" stroke-width="1" stroke-linejoin="round" shape-rendering="crispEdges"></path><path d="M109.9,415.1L201.3,397.4L155,274.8Z" fill="rgb(18,102,28)" stroke="rgb(18,102,28)" stroke-width="1" stroke-linejoin="round" shape-rendering="crispEdges"></path><path d="M155,274.8L201.3,397.4L284.3,290.2Z" fill="rgb(18,103,28)" stroke="rgb(18,103,28)" stroke-width="1" stroke-linejoin="round" shape-rendering="crispEdges"></path><path d="M326.7,68.5L283.4,55.1L280.8,140Z" fill="rgb(19,132,35)" stroke="rgb(19,132,35)" stroke-width="1" stroke-linejoin="round" shape-rendering="crispEdges"></path><path d="M201.3,397.4L245.4,414.8L308.2,330.7Z" fill="rgb(18,92,25)" stroke="rgb(18,92,25)" stroke-width="1" stroke-linejoin="round" shape-rendering="crispEdges"></path><path d="M102.9,220.4L74.9,269.6L155,274.8Z" fill="rgb(19,122,33)" stroke="rgb(19,122,33)" stroke-width="1" stroke-linejoin="round" shape-rendering="crispEdges"></path><path d="M187.4,141.6L81.2,148.7L102.9,220.4Z" fill="rgb(19,134,36)" stroke="rgb(19,134,36)" stroke-width="1" stroke-linejoin="round" shape-rendering="crispEdges"></path><path d="M102.9,220.4L-28.9,192.8L74.9,269.6Z" fill="rgb(19,132,35)" stroke="rgb(19,132,35)" stroke-width="1" stroke-linejoin="round" shape-rendering="crispEdges"></path><path d="M176.2,16.8L81.2,148.7L187.4,141.6Z" fill="rgb(18,143,38)" stroke="rgb(18,143,38)" stroke-width="1" stroke-linejoin="round" shape-rendering="crispEdges"></path><path d="M316.8,388L447.8,379.7L404.7,328Z" fill="rgb(17,82,23)" stroke="rgb(17,82,23)" stroke-width="1" stroke-linejoin="round" shape-rendering="crispEdges"></path><path d="M404.7,328L534.5,326.4L433,233.8Z" fill="rgb(17,87,24)" stroke="rgb(17,87,24)" stroke-width="1" stroke-linejoin="round" shape-rendering="crispEdges"></path><path d="M357.3,475.4L447.8,379.7L316.8,388Z" fill="rgb(16,77,21)" stroke="rgb(16,77,21)" stroke-width="1" stroke-linejoin="round" shape-rendering="crispEdges"></path><path d="M433,233.8L489.7,148.7L402.7,137.4Z" fill="rgb(19,106,29)" stroke="rgb(19,106,29)" stroke-width="1" stroke-linejoin="round" shape-rendering="crispEdges"></path><path d="M402.7,137.4L431.5,46.3L326.7,68.5Z" fill="rgb(19,124,34)" stroke="rgb(19,124,34)" stroke-width="1" stroke-linejoin="round" shape-rendering="crispEdges"></path><path d="M519.3,188.4L489.7,148.7L433,233.8Z" fill="rgb(18,100,27)" stroke="rgb(18,100,27)" stroke-width="1" stroke-linejoin="round" shape-rendering="crispEdges"></path><path d="M198.1,487.9L267.7,471.9L245.4,414.8Z" fill="rgb(17,86,23)" stroke="rgb(17,86,23)" stroke-width="1" stroke-linejoin="round" shape-rendering="crispEdges"></path><path d="M245.4,414.8L267.7,471.9L316.8,388Z" fill="rgb(17,83,23)" stroke="rgb(17,83,23)" stroke-width="1" stroke-linejoin="round" shape-rendering="crispEdges"></path><path d="M198.1,487.9L245.4,414.8L201.3,397.4Z" fill="rgb(17,87,24)" stroke="rgb(17,87,24)" stroke-width="1" stroke-linejoin="round" shape-rendering="crispEdges"></path><path d="M265.8,-66.3L176.2,16.8L283.4,55.1Z" fill="rgb(18,150,40)" stroke="rgb(18,150,40)" stroke-width="1" stroke-linejoin="round" shape-rendering="crispEdges"></path><path d="M283.4,55.1L176.2,16.8L187.4,141.6Z" fill="rgb(18,141,38)" stroke="rgb(18,141,38)" stroke-width="1" stroke-linejoin="round" shape-rendering="crispEdges"></path><path d="M489.7,148.7L431.5,46.3L402.7,137.4Z" fill="rgb(19,116,31)" stroke="rgb(19,116,31)" stroke-width="1" stroke-linejoin="round" shape-rendering="crispEdges"></path><path d="M326.7,68.5L367.5,-51.9L283.4,55.1Z" fill="rgb(18,139,37)" stroke="rgb(18,139,37)" stroke-width="1" stroke-linejoin="round" shape-rendering="crispEdges"></path><path d="M534.5,326.4L519.3,188.4L433,233.8Z" fill="rgb(18,90,25)" stroke="rgb(18,90,25)" stroke-width="1" stroke-linejoin="round" shape-rendering="crispEdges"></path><path d="M489.7,148.7L495.4,33.4L431.5,46.3Z" fill="rgb(19,118,32)" stroke="rgb(19,118,32)" stroke-width="1" stroke-linejoin="round" shape-rendering="crispEdges"></path><path d="M74.9,269.6L109.9,415.1L155,274.8Z" fill="rgb(19,112,30)" stroke="rgb(19,112,30)" stroke-width="1" stroke-linejoin="round" shape-rendering="crispEdges"></path><path d="M267.7,471.9L357.3,475.4L316.8,388Z" fill="rgb(17,79,22)" stroke="rgb(17,79,22)" stroke-width="1" stroke-linejoin="round" shape-rendering="crispEdges"></path><path d="M109.9,415.1L198.1,487.9L201.3,397.4Z" fill="rgb(18,91,25)" stroke="rgb(18,91,25)" stroke-width="1" stroke-linejoin="round" shape-rendering="crispEdges"></path><path d="M267.7,471.9L273,525.7L357.3,475.4Z" fill="rgb(17,81,22)" stroke="rgb(17,81,22)" stroke-width="1" stroke-linejoin="round" shape-rendering="crispEdges"></path><path d="M529.2,455.6L515,358.4L447.8,379.7Z" fill="rgb(15,69,19)" stroke="rgb(15,69,19)" stroke-width="1" stroke-linejoin="round" shape-rendering="crispEdges"></path><path d="M447.8,379.7L515,358.4L404.7,328Z" fill="rgb(17,79,22)" stroke="rgb(17,79,22)" stroke-width="1" stroke-linejoin="round" shape-rendering="crispEdges"></path><path d="M515,358.4L534.5,326.4L404.7,328Z" fill="rgb(17,79,22)" stroke="rgb(17,79,22)" stroke-width="1" stroke-linejoin="round" shape-rendering="crispEdges"></path><path d="M-28.9,192.8L15.5,324.2L74.9,269.6Z" fill="rgb(19,129,35)" stroke="rgb(19,129,35)" stroke-width="1" stroke-linejoin="round" shape-rendering="crispEdges"></path><path d="M74.9,269.6L15.5,324.2L109.9,415.1Z" fill="rgb(19,113,31)" stroke="rgb(19,113,31)" stroke-width="1" stroke-linejoin="round" shape-rendering="crispEdges"></path><path d="M405.8,532.6L403.7,485.5L357.3,475.4Z" fill="rgb(16,73,20)" stroke="rgb(16,73,20)" stroke-width="1" stroke-linejoin="round" shape-rendering="crispEdges"></path><path d="M357.3,475.4L403.7,485.5L447.8,379.7Z" fill="rgb(16,72,20)" stroke="rgb(16,72,20)" stroke-width="1" stroke-linejoin="round" shape-rendering="crispEdges"></path><path d="M534.5,326.4L567,202L519.3,188.4Z" fill="rgb(17,88,24)" stroke="rgb(17,88,24)" stroke-width="1" stroke-linejoin="round" shape-rendering="crispEdges"></path><path d="M519.3,188.4L611,140.9L489.7,148.7Z" fill="rgb(18,100,27)" stroke="rgb(18,100,27)" stroke-width="1" stroke-linejoin="round" shape-rendering="crispEdges"></path><path d="M198.1,487.9L273,525.7L267.7,471.9Z" fill="rgb(17,85,23)" stroke="rgb(17,85,23)" stroke-width="1" stroke-linejoin="round" shape-rendering="crispEdges"></path><path d="M611,140.9L495.4,33.4L489.7,148.7Z" fill="rgb(19,108,29)" stroke="rgb(19,108,29)" stroke-width="1" stroke-linejoin="round" shape-rendering="crispEdges"></path><path d="M431.5,46.3L367.5,-51.9L326.7,68.5Z" fill="rgb(18,135,36)" stroke="rgb(18,135,36)" stroke-width="1" stroke-linejoin="round" shape-rendering="crispEdges"></path><path d="M64.2,28.3L-1.5,139.3L81.2,148.7Z" fill="rgb(17,151,40)" stroke="rgb(17,151,40)" stroke-width="1" stroke-linejoin="round" shape-rendering="crispEdges"></path><path d="M81.2,148.7L-28.9,192.8L102.9,220.4Z" fill="rgb(18,138,37)" stroke="rgb(18,138,37)" stroke-width="1" stroke-linejoin="round" shape-rendering="crispEdges"></path><path d="M176.2,16.8L64.2,28.3L81.2,148.7Z" fill="rgb(17,152,41)" stroke="rgb(17,152,41)" stroke-width="1" stroke-linejoin="round" shape-rendering="crispEdges"></path><path d="M436.5,-50.6L367.5,-51.9L431.5,46.3Z" fill="rgb(18,135,36)" stroke="rgb(18,135,36)" stroke-width="1" stroke-linejoin="round" shape-rendering="crispEdges"></path><path d="M176.2,16.8L96,-49.3L64.2,28.3Z" fill="rgb(16,162,43)" stroke="rgb(16,162,43)" stroke-width="1" stroke-linejoin="round" shape-rendering="crispEdges"></path><path d="M367.5,-51.9L265.8,-66.3L283.4,55.1Z" fill="rgb(18,145,39)" stroke="rgb(18,145,39)" stroke-width="1" stroke-linejoin="round" shape-rendering="crispEdges"></path><path d="M265.8,-66.3L197.1,-57L176.2,16.8Z" fill="rgb(17,153,41)" stroke="rgb(17,153,41)" stroke-width="1" stroke-linejoin="round" shape-rendering="crispEdges"></path><path d="M15.5,324.2L57.1,444.2L109.9,415.1Z" fill="rgb(19,105,29)" stroke="rgb(19,105,29)" stroke-width="1" stroke-linejoin="round" shape-rendering="crispEdges"></path><path d="M109.9,415.1L57.1,444.2L198.1,487.9Z" fill="rgb(18,95,26)" stroke="rgb(18,95,26)" stroke-width="1" stroke-linejoin="round" shape-rendering="crispEdges"></path><path d="M198.1,487.9L196.8,581.6L273,525.7Z" fill="rgb(17,87,24)" stroke="rgb(17,87,24)" stroke-width="1" stroke-linejoin="round" shape-rendering="crispEdges"></path><path d="M-1.5,139.3L-28.9,192.8L81.2,148.7Z" fill="rgb(18,145,39)" stroke="rgb(18,145,39)" stroke-width="1" stroke-linejoin="round" shape-rendering="crispEdges"></path><path d="M273,525.7L332.9,544.5L357.3,475.4Z" fill="rgb(17,79,22)" stroke="rgb(17,79,22)" stroke-width="1" stroke-linejoin="round" shape-rendering="crispEdges"></path><path d="M332.9,544.5L405.8,532.6L357.3,475.4Z" fill="rgb(16,75,21)" stroke="rgb(16,75,21)" stroke-width="1" stroke-linejoin="round" shape-rendering="crispEdges"></path><path d="M403.7,485.5L529.2,455.6L447.8,379.7Z" fill="rgb(15,68,19)" stroke="rgb(15,68,19)" stroke-width="1" stroke-linejoin="round" shape-rendering="crispEdges"></path><path d="M495.4,33.4L436.5,-50.6L431.5,46.3Z" fill="rgb(19,130,35)" stroke="rgb(19,130,35)" stroke-width="1" stroke-linejoin="round" shape-rendering="crispEdges"></path><path d="M367.5,-51.9L314.5,-96.2L265.8,-66.3Z" fill="rgb(18,144,39)" stroke="rgb(18,144,39)" stroke-width="1" stroke-linejoin="round" shape-rendering="crispEdges"></path><path d="M601.6,396.4L606.8,316.5L534.5,326.4Z" fill="rgb(15,70,19)" stroke="rgb(15,70,19)" stroke-width="1" stroke-linejoin="round" shape-rendering="crispEdges"></path><path d="M534.5,326.4L606.8,316.5L567,202Z" fill="rgb(17,80,22)" stroke="rgb(17,80,22)" stroke-width="1" stroke-linejoin="round" shape-rendering="crispEdges"></path><path d="M491.1,569.7L529.2,455.6L403.7,485.5Z" fill="rgb(15,67,18)" stroke="rgb(15,67,18)" stroke-width="1" stroke-linejoin="round" shape-rendering="crispEdges"></path><path d="M421.3,-151.2L314.5,-96.2L367.5,-51.9Z" fill="rgb(18,139,37)" stroke="rgb(18,139,37)" stroke-width="1" stroke-linejoin="round" shape-rendering="crispEdges"></path><path d="M265.8,-66.3L242.7,-111L197.1,-57Z" fill="rgb(17,151,40)" stroke="rgb(17,151,40)" stroke-width="1" stroke-linejoin="round" shape-rendering="crispEdges"></path><path d="M15.5,324.2L-6.8,408.5L57.1,444.2Z" fill="rgb(19,109,30)" stroke="rgb(19,109,30)" stroke-width="1" stroke-linejoin="round" shape-rendering="crispEdges"></path><path d="M-80.8,406.7L-6.8,408.5L15.5,324.2Z" fill="rgb(19,112,31)" stroke="rgb(19,112,31)" stroke-width="1" stroke-linejoin="round" shape-rendering="crispEdges"></path><path d="M601.6,396.4L534.5,326.4L515,358.4Z" fill="rgb(16,70,19)" stroke="rgb(16,70,19)" stroke-width="1" stroke-linejoin="round" shape-rendering="crispEdges"></path><path d="M160.5,-107.6L96,-49.3L197.1,-57Z" fill="rgb(16,158,42)" stroke="rgb(16,158,42)" stroke-width="1" stroke-linejoin="round" shape-rendering="crispEdges"></path><path d="M197.1,-57L96,-49.3L176.2,16.8Z" fill="rgb(17,158,42)" stroke="rgb(17,158,42)" stroke-width="1" stroke-linejoin="round" shape-rendering="crispEdges"></path><path d="M64.2,28.3L-25.1,63.2L-1.5,139.3Z" fill="rgb(16,159,42)" stroke="rgb(16,159,42)" stroke-width="1" stroke-linejoin="round" shape-rendering="crispEdges"></path><path d="M-6.8,408.5L13.4,449.7L57.1,444.2Z" fill="rgb(18,103,28)" stroke="rgb(18,103,28)" stroke-width="1" stroke-linejoin="round" shape-rendering="crispEdges"></path><path d="M66.5,558.9L196.8,581.6L198.1,487.9Z" fill="rgb(18,92,25)" stroke="rgb(18,92,25)" stroke-width="1" stroke-linejoin="round" shape-rendering="crispEdges"></path><path d="M273,525.7L196.8,581.6L332.9,544.5Z" fill="rgb(17,83,23)" stroke="rgb(17,83,23)" stroke-width="1" stroke-linejoin="round" shape-rendering="crispEdges"></path><path d="M567,202L611,140.9L519.3,188.4Z" fill="rgb(18,95,26)" stroke="rgb(18,95,26)" stroke-width="1" stroke-linejoin="round" shape-rendering="crispEdges"></path><path d="M495.4,33.4L493.7,-58.3L436.5,-50.6Z" fill="rgb(19,130,35)" stroke="rgb(19,130,35)" stroke-width="1" stroke-linejoin="round" shape-rendering="crispEdges"></path><path d="M651,207.1L611,140.9L567,202Z" fill="rgb(18,91,25)" stroke="rgb(18,91,25)" stroke-width="1" stroke-linejoin="round" shape-rendering="crispEdges"></path><path d="M314.5,-96.2L242.7,-111L265.8,-66.3Z" fill="rgb(18,147,40)" stroke="rgb(18,147,40)" stroke-width="1" stroke-linejoin="round" shape-rendering="crispEdges"></path><path d="M-84,128.5L-90.5,205.8L-28.9,192.8Z" fill="rgb(18,144,39)" stroke="rgb(18,144,39)" stroke-width="1" stroke-linejoin="round" shape-rendering="crispEdges"></path><path d="M-4.4,-10.3L-25.1,63.2L64.2,28.3Z" fill="rgb(15,167,45)" stroke="rgb(15,167,45)" stroke-width="1" stroke-linejoin="round" shape-rendering="crispEdges"></path><path d="M66.5,558.9L198.1,487.9L57.1,444.2Z" fill="rgb(18,96,26)" stroke="rgb(18,96,26)" stroke-width="1" stroke-linejoin="round" shape-rendering="crispEdges"></path><path d="M332.9,544.5L491.1,569.7L405.8,532.6Z" fill="rgb(16,72,20)" stroke="rgb(16,72,20)" stroke-width="1" stroke-linejoin="round" shape-rendering="crispEdges"></path><path d="M529.2,455.6L601.6,396.4L515,358.4Z" fill="rgb(15,65,18)" stroke="rgb(15,65,18)" stroke-width="1" stroke-linejoin="round" shape-rendering="crispEdges"></path><path d="M242.7,-111L160.5,-107.6L197.1,-57Z" fill="rgb(17,154,41)" stroke="rgb(17,154,41)" stroke-width="1" stroke-linejoin="round" shape-rendering="crispEdges"></path><path d="M436.5,-50.6L421.3,-151.2L367.5,-51.9Z" fill="rgb(18,135,37)" stroke="rgb(18,135,37)" stroke-width="1" stroke-linejoin="round" shape-rendering="crispEdges"></path><path d="M573.3,-20.9L493.7,-58.3L495.4,33.4Z" fill="rgb(19,126,34)" stroke="rgb(19,126,34)" stroke-width="1" stroke-linejoin="round" shape-rendering="crispEdges"></path><path d="M-84,128.5L-28.9,192.8L-1.5,139.3Z" fill="rgb(18,148,40)" stroke="rgb(18,148,40)" stroke-width="1" stroke-linejoin="round" shape-rendering="crispEdges"></path><path d="M-28.9,192.8L-93,280.8L15.5,324.2Z" fill="rgb(19,130,35)" stroke="rgb(19,130,35)" stroke-width="1" stroke-linejoin="round" shape-rendering="crispEdges"></path><path d="M688.4,301.3L651,207.1L606.8,316.5Z" fill="rgb(16,75,20)" stroke="rgb(16,75,20)" stroke-width="1" stroke-linejoin="round" shape-rendering="crispEdges"></path><path d="M606.8,316.5L651,207.1L567,202Z" fill="rgb(17,83,23)" stroke="rgb(17,83,23)" stroke-width="1" stroke-linejoin="round" shape-rendering="crispEdges"></path><path d="M611,140.9L595.7,23.4L495.4,33.4Z" fill="rgb(19,112,30)" stroke="rgb(19,112,30)" stroke-width="1" stroke-linejoin="round" shape-rendering="crispEdges"></path><path d="M-90.5,205.8L-93,280.8L-28.9,192.8Z" fill="rgb(18,136,37)" stroke="rgb(18,136,37)" stroke-width="1" stroke-linejoin="round" shape-rendering="crispEdges"></path><path d="M-6.8,408.5L-60.2,495.7L13.4,449.7Z" fill="rgb(18,105,29)" stroke="rgb(18,105,29)" stroke-width="1" stroke-linejoin="round" shape-rendering="crispEdges"></path><path d="M28.7,-99.1L-4.4,-10.3L96,-49.3Z" fill="rgb(15,168,45)" stroke="rgb(15,168,45)" stroke-width="1" stroke-linejoin="round" shape-rendering="crispEdges"></path><path d="M96,-49.3L-4.4,-10.3L64.2,28.3Z" fill="rgb(15,167,45)" stroke="rgb(15,167,45)" stroke-width="1" stroke-linejoin="round" shape-rendering="crispEdges"></path><path d="M-25.1,63.2L-84,128.5L-1.5,139.3Z" fill="rgb(17,154,41)" stroke="rgb(17,154,41)" stroke-width="1" stroke-linejoin="round" shape-rendering="crispEdges"></path><path d="M-116.1,61L-84,128.5L-25.1,63.2Z" fill="rgb(16,159,42)" stroke="rgb(16,159,42)" stroke-width="1" stroke-linejoin="round" shape-rendering="crispEdges"></path><path d="M681.2,37.9L595.7,23.4L611,140.9Z" fill="rgb(19,106,29)" stroke="rgb(19,106,29)" stroke-width="1" stroke-linejoin="round" shape-rendering="crispEdges"></path><path d="M529.2,455.6L591.5,456.5L601.6,396.4Z" fill="rgb(14,59,16)" stroke="rgb(14,59,16)" stroke-width="1" stroke-linejoin="round" shape-rendering="crispEdges"></path><path d="M699.3,387.4L688.4,301.3L606.8,316.5Z" fill="rgb(15,65,18)" stroke="rgb(15,65,18)" stroke-width="1" stroke-linejoin="round" shape-rendering="crispEdges"></path><path d="M614.4,571.3L591.5,456.5L529.2,455.6Z" fill="rgb(14,59,16)" stroke="rgb(14,59,16)" stroke-width="1" stroke-linejoin="round" shape-rendering="crispEdges"></path><path d="M-1.2,532.7L57.1,444.2L13.4,449.7Z" fill="rgb(18,103,28)" stroke="rgb(18,103,28)" stroke-width="1" stroke-linejoin="round" shape-rendering="crispEdges"></path><path d="M-1.2,532.7L66.5,558.9L57.1,444.2Z" fill="rgb(18,102,28)" stroke="rgb(18,102,28)" stroke-width="1" stroke-linejoin="round" shape-rendering="crispEdges"></path><path d="M595.7,23.4L573.3,-20.9L495.4,33.4Z" fill="rgb(19,121,33)" stroke="rgb(19,121,33)" stroke-width="1" stroke-linejoin="round" shape-rendering="crispEdges"></path><path d="M160.5,-107.6L106.1,-118.2L96,-49.3Z" fill="rgb(16,161,43)" stroke="rgb(16,161,43)" stroke-width="1" stroke-linejoin="round" shape-rendering="crispEdges"></path><path d="M242.7,-111L106.1,-118.2L160.5,-107.6Z" fill="rgb(17,157,42)" stroke="rgb(17,157,42)" stroke-width="1" stroke-linejoin="round" shape-rendering="crispEdges"></path><path d="M196.8,581.6L491.1,569.7L332.9,544.5Z" fill="rgb(16,77,21)" stroke="rgb(16,77,21)" stroke-width="1" stroke-linejoin="round" shape-rendering="crispEdges"></path><path d="M405.8,532.6L491.1,569.7L403.7,485.5Z" fill="rgb(16,70,19)" stroke="rgb(16,70,19)" stroke-width="1" stroke-linejoin="round" shape-rendering="crispEdges"></path><path d="M-93,280.8L-80.8,406.7L15.5,324.2Z" fill="rgb(19,119,32)" stroke="rgb(19,119,32)" stroke-width="1" stroke-linejoin="round" shape-rendering="crispEdges"></path><path d="M-60.2,495.7L-1.2,532.7L13.4,449.7Z" fill="rgb(18,105,29)" stroke="rgb(18,105,29)" stroke-width="1" stroke-linejoin="round" shape-rendering="crispEdges"></path><path d="M584.8,-121.3L498.1,-111L493.7,-58.3Z" fill="rgb(19,125,34)" stroke="rgb(19,125,34)" stroke-width="1" stroke-linejoin="round" shape-rendering="crispEdges"></path><path d="M493.7,-58.3L498.1,-111L436.5,-50.6Z" fill="rgb(19,130,35)" stroke="rgb(19,130,35)" stroke-width="1" stroke-linejoin="round" shape-rendering="crispEdges"></path><path d="M314.5,-96.2L421.3,-151.2L242.7,-111Z" fill="rgb(18,143,38)" stroke="rgb(18,143,38)" stroke-width="1" stroke-linejoin="round" shape-rendering="crispEdges"></path><path d="M242.7,-111L421.3,-151.2L106.1,-118.2Z" fill="rgb(18,149,40)" stroke="rgb(18,149,40)" stroke-width="1" stroke-linejoin="round" shape-rendering="crispEdges"></path><path d="M498.1,-111L421.3,-151.2L436.5,-50.6Z" fill="rgb(19,132,36)" stroke="rgb(19,132,36)" stroke-width="1" stroke-linejoin="round" shape-rendering="crispEdges"></path><path d="M699.3,387.4L606.8,316.5L601.6,396.4Z" fill="rgb(15,63,17)" stroke="rgb(15,63,17)" stroke-width="1" stroke-linejoin="round" shape-rendering="crispEdges"></path><path d="M651,207.1L694.3,151.5L611,140.9Z" fill="rgb(18,90,25)" stroke="rgb(18,90,25)" stroke-width="1" stroke-linejoin="round" shape-rendering="crispEdges"></path><path d="M106.1,-118.2L28.7,-99.1L96,-49.3Z" fill="rgb(15,165,44)" stroke="rgb(15,165,44)" stroke-width="1" stroke-linejoin="round" shape-rendering="crispEdges"></path><path d="M-91.3,-18.2L-116.1,61L-25.1,63.2Z" fill="rgb(15,166,44)" stroke="rgb(15,166,44)" stroke-width="1" stroke-linejoin="round" shape-rendering="crispEdges"></path><path d="M742.1,208.4L694.3,151.5L651,207.1Z" fill="rgb(17,83,23)" stroke="rgb(17,83,23)" stroke-width="1" stroke-linejoin="round" shape-rendering="crispEdges"></path><path d="M595.7,23.4L673.4,-27.1L573.3,-20.9Z" fill="rgb(19,118,32)" stroke="rgb(19,118,32)" stroke-width="1" stroke-linejoin="round" shape-rendering="crispEdges"></path><path d="M-80.8,406.7L-60.2,495.7L-6.8,408.5Z" fill="rgb(18,105,29)" stroke="rgb(18,105,29)" stroke-width="1" stroke-linejoin="round" shape-rendering="crispEdges"></path><path d="M-91.3,-18.2L-25.1,63.2L-4.4,-10.3Z" fill="rgb(14,170,46)" stroke="rgb(14,170,46)" stroke-width="1" stroke-linejoin="round" shape-rendering="crispEdges"></path><path d="M-84,128.5L-116.1,61L-90.5,205.8Z" fill="rgb(17,151,40)" stroke="rgb(17,151,40)" stroke-width="1" stroke-linejoin="round" shape-rendering="crispEdges"></path><path d="M-90.5,205.8L-116.1,61L-93,280.8Z" fill="rgb(18,143,38)" stroke="rgb(18,143,38)" stroke-width="1" stroke-linejoin="round" shape-rendering="crispEdges"></path><path d="M-93,280.8L-71.9,564.7L-80.8,406.7Z" fill="rgb(19,107,29)" stroke="rgb(19,107,29)" stroke-width="1" stroke-linejoin="round" shape-rendering="crispEdges"></path><path d="M614.4,571.3L659.5,462.2L591.5,456.5Z" fill="rgb(13,56,15)" stroke="rgb(13,56,15)" stroke-width="1" stroke-linejoin="round" shape-rendering="crispEdges"></path><path d="M591.5,456.5L659.5,462.2L601.6,396.4Z" fill="rgb(13,56,15)" stroke="rgb(13,56,15)" stroke-width="1" stroke-linejoin="round" shape-rendering="crispEdges"></path><path d="M659.5,462.2L699.3,387.4L601.6,396.4Z" fill="rgb(13,55,15)" stroke="rgb(13,55,15)" stroke-width="1" stroke-linejoin="round" shape-rendering="crispEdges"></path><path d="M688.4,301.3L742.1,208.4L651,207.1Z" fill="rgb(16,76,21)" stroke="rgb(16,76,21)" stroke-width="1" stroke-linejoin="round" shape-rendering="crispEdges"></path><path d="M694.3,151.5L681.2,37.9L611,140.9Z" fill="rgb(18,97,27)" stroke="rgb(18,97,27)" stroke-width="1" stroke-linejoin="round" shape-rendering="crispEdges"></path><path d="M573.3,-20.9L584.8,-121.3L493.7,-58.3Z" fill="rgb(19,123,33)" stroke="rgb(19,123,33)" stroke-width="1" stroke-linejoin="round" shape-rendering="crispEdges"></path><path d="M-72.7,-133.3L-91.3,-18.2L-4.4,-10.3Z" fill="rgb(14,172,46)" stroke="rgb(14,172,46)" stroke-width="1" stroke-linejoin="round" shape-rendering="crispEdges"></path><path d="M749.3,314.3L742.1,208.4L688.4,301.3Z" fill="rgb(15,69,19)" stroke="rgb(15,69,19)" stroke-width="1" stroke-linejoin="round" shape-rendering="crispEdges"></path><path d="M781.5,123.9L732.9,18.1L681.2,37.9Z" fill="rgb(18,99,27)" stroke="rgb(18,99,27)" stroke-width="1" stroke-linejoin="round" shape-rendering="crispEdges"></path><path d="M667.7,-111.1L584.8,-121.3L573.3,-20.9Z" fill="rgb(19,118,32)" stroke="rgb(19,118,32)" stroke-width="1" stroke-linejoin="round" shape-rendering="crispEdges"></path><path d="M498.1,-111L584.8,-121.3L421.3,-151.2Z" fill="rgb(19,127,35)" stroke="rgb(19,127,35)" stroke-width="1" stroke-linejoin="round" shape-rendering="crispEdges"></path><path d="M732.9,18.1L673.4,-27.1L681.2,37.9Z" fill="rgb(19,109,30)" stroke="rgb(19,109,30)" stroke-width="1" stroke-linejoin="round" shape-rendering="crispEdges"></path><path d="M681.2,37.9L673.4,-27.1L595.7,23.4Z" fill="rgb(19,113,31)" stroke="rgb(19,113,31)" stroke-width="1" stroke-linejoin="round" shape-rendering="crispEdges"></path><path d="M791,411.8L749.3,314.3L699.3,387.4Z" fill="rgb(13,54,15)" stroke="rgb(13,54,15)" stroke-width="1" stroke-linejoin="round" shape-rendering="crispEdges"></path><path d="M491.1,569.7L614.4,571.3L529.2,455.6Z" fill="rgb(14,61,17)" stroke="rgb(14,61,17)" stroke-width="1" stroke-linejoin="round" shape-rendering="crispEdges"></path><path d="M657.2,573.6L614.4,571.3L491.1,569.7Z" fill="rgb(14,58,16)" stroke="rgb(14,58,16)" stroke-width="1" stroke-linejoin="round" shape-rendering="crispEdges"></path><path d="M699.3,387.4L749.3,314.3L688.4,301.3Z" fill="rgb(14,61,17)" stroke="rgb(14,61,17)" stroke-width="1" stroke-linejoin="round" shape-rendering="crispEdges"></path><path d="M791,411.8L699.3,387.4L779.5,484.3Z" fill="rgb(12,46,11)" stroke="rgb(12,46,11)" stroke-width="1" stroke-linejoin="round" shape-rendering="crispEdges"></path><path d="M-80.8,406.7L-71.9,564.7L-60.2,495.7Z" fill="rgb(18,105,29)" stroke="rgb(18,105,29)" stroke-width="1" stroke-linejoin="round" shape-rendering="crispEdges"></path><path d="M-60.2,495.7L-71.9,564.7L-1.2,532.7Z" fill="rgb(18,105,29)" stroke="rgb(18,105,29)" stroke-width="1" stroke-linejoin="round" shape-rendering="crispEdges"></path><path d="M-1.2,532.7L-71.9,564.7L66.5,558.9Z" fill="rgb(18,105,29)" stroke="rgb(18,105,29)" stroke-width="1" stroke-linejoin="round" shape-rendering="crispEdges"></path><path d="M66.5,558.9L-71.9,564.7L196.8,581.6Z" fill="rgb(18,100,27)" stroke="rgb(18,100,27)" stroke-width="1" stroke-linejoin="round" shape-rendering="crispEdges"></path><path d="M-116.1,61L-71.9,564.7L-93,280.8Z" fill="rgb(19,124,34)" stroke="rgb(19,124,34)" stroke-width="1" stroke-linejoin="round" shape-rendering="crispEdges"></path><path d="M781.5,123.9L681.2,37.9L694.3,151.5Z" fill="rgb(18,93,26)" stroke="rgb(18,93,26)" stroke-width="1" stroke-linejoin="round" shape-rendering="crispEdges"></path><path d="M673.4,-27.1L667.7,-111.1L573.3,-20.9Z" fill="rgb(19,116,32)" stroke="rgb(19,116,32)" stroke-width="1" stroke-linejoin="round" shape-rendering="crispEdges"></path><path d="M781.5,123.9L694.3,151.5L742.1,208.4Z" fill="rgb(17,84,23)" stroke="rgb(17,84,23)" stroke-width="1" stroke-linejoin="round" shape-rendering="crispEdges"></path><path d="M196.8,581.6L657.2,573.6L491.1,569.7Z" fill="rgb(15,69,19)" stroke="rgb(15,69,19)" stroke-width="1" stroke-linejoin="round" shape-rendering="crispEdges"></path><path d="M614.4,571.3L657.2,573.6L659.5,462.2Z" fill="rgb(13,54,15)" stroke="rgb(13,54,15)" stroke-width="1" stroke-linejoin="round" shape-rendering="crispEdges"></path><path d="M106.1,-118.2L-72.7,-133.3L28.7,-99.1Z" fill="rgb(14,170,46)" stroke="rgb(14,170,46)" stroke-width="1" stroke-linejoin="round" shape-rendering="crispEdges"></path><path d="M28.7,-99.1L-72.7,-133.3L-4.4,-10.3Z" fill="rgb(14,172,46)" stroke="rgb(14,172,46)" stroke-width="1" stroke-linejoin="round" shape-rendering="crispEdges"></path><path d="M-91.3,-18.2L-72.7,-133.3L-116.1,61Z" fill="rgb(14,172,46)" stroke="rgb(14,172,46)" stroke-width="1" stroke-linejoin="round" shape-rendering="crispEdges"></path><path d="M421.3,-151.2L-72.7,-133.3L106.1,-118.2Z" fill="rgb(16,158,42)" stroke="rgb(16,158,42)" stroke-width="1" stroke-linejoin="round" shape-rendering="crispEdges"></path><path d="M828.7,196.6L781.5,123.9L742.1,208.4Z" fill="rgb(17,80,22)" stroke="rgb(17,80,22)" stroke-width="1" stroke-linejoin="round" shape-rendering="crispEdges"></path><path d="M785.6,-51.8L667.7,-111.1L673.4,-27.1Z" fill="rgb(19,110,30)" stroke="rgb(19,110,30)" stroke-width="1" stroke-linejoin="round" shape-rendering="crispEdges"></path><path d="M584.8,-121.3L783.5,-144.7L421.3,-151.2Z" fill="rgb(19,119,32)" stroke="rgb(19,119,32)" stroke-width="1" stroke-linejoin="round" shape-rendering="crispEdges"></path><path d="M779.5,484.3L699.3,387.4L659.5,462.2Z" fill="rgb(12,49,13)" stroke="rgb(12,49,13)" stroke-width="1" stroke-linejoin="round" shape-rendering="crispEdges"></path><path d="M832,314.8L828.7,196.6L742.1,208.4Z" fill="rgb(16,71,19)" stroke="rgb(16,71,19)" stroke-width="1" stroke-linejoin="round" shape-rendering="crispEdges"></path><path d="M832,314.8L742.1,208.4L749.3,314.3Z" fill="rgb(15,65,18)" stroke="rgb(15,65,18)" stroke-width="1" stroke-linejoin="round" shape-rendering="crispEdges"></path><path d="M838.5,44.8L785.6,-51.8L732.9,18.1Z" fill="rgb(18,104,29)" stroke="rgb(18,104,29)" stroke-width="1" stroke-linejoin="round" shape-rendering="crispEdges"></path><path d="M732.9,18.1L785.6,-51.8L673.4,-27.1Z" fill="rgb(19,108,30)" stroke="rgb(19,108,30)" stroke-width="1" stroke-linejoin="round" shape-rendering="crispEdges"></path><path d="M844.4,362.4L832,314.8L749.3,314.3Z" fill="rgb(14,58,16)" stroke="rgb(14,58,16)" stroke-width="1" stroke-linejoin="round" shape-rendering="crispEdges"></path><path d="M657.2,573.6L779.5,484.3L659.5,462.2Z" fill="rgb(13,50,13)" stroke="rgb(13,50,13)" stroke-width="1" stroke-linejoin="round" shape-rendering="crispEdges"></path><path d="M791,411.8L844.4,362.4L749.3,314.3Z" fill="rgb(13,54,15)" stroke="rgb(13,54,15)" stroke-width="1" stroke-linejoin="round" shape-rendering="crispEdges"></path><path d="M848.9,488.9L844.4,362.4L791,411.8Z" fill="rgb(12,46,12)" stroke="rgb(12,46,12)" stroke-width="1" stroke-linejoin="round" shape-rendering="crispEdges"></path><path d="M832,314.8L858,134.2L828.7,196.6Z" fill="rgb(16,74,20)" stroke="rgb(16,74,20)" stroke-width="1" stroke-linejoin="round" shape-rendering="crispEdges"></path><path d="M838.5,44.8L732.9,18.1L781.5,123.9Z" fill="rgb(18,96,26)" stroke="rgb(18,96,26)" stroke-width="1" stroke-linejoin="round" shape-rendering="crispEdges"></path><path d="M844.4,362.4L858,134.2L832,314.8Z" fill="rgb(15,66,18)" stroke="rgb(15,66,18)" stroke-width="1" stroke-linejoin="round" shape-rendering="crispEdges"></path><path d="M828.7,196.6L858,134.2L781.5,123.9Z" fill="rgb(17,83,23)" stroke="rgb(17,83,23)" stroke-width="1" stroke-linejoin="round" shape-rendering="crispEdges"></path><path d="M858,134.2L838.5,44.8L781.5,123.9Z" fill="rgb(18,90,25)" stroke="rgb(18,90,25)" stroke-width="1" stroke-linejoin="round" shape-rendering="crispEdges"></path><path d="M779.5,484.3L848.9,488.9L791,411.8Z" fill="rgb(12,45,11)" stroke="rgb(12,45,11)" stroke-width="1" stroke-linejoin="round" shape-rendering="crispEdges"></path><path d="M657.2,573.6L782.3,549.2L779.5,484.3Z" fill="rgb(12,47,12)" stroke="rgb(12,47,12)" stroke-width="1" stroke-linejoin="round" shape-rendering="crispEdges"></path><path d="M858.7,-145L829.2,-53.1L838.5,44.8Z" fill="rgb(18,105,29)" stroke="rgb(18,105,29)" stroke-width="1" stroke-linejoin="round" shape-rendering="crispEdges"></path><path d="M838.5,44.8L829.2,-53.1L785.6,-51.8Z" fill="rgb(18,105,29)" stroke="rgb(18,105,29)" stroke-width="1" stroke-linejoin="round" shape-rendering="crispEdges"></path><path d="M785.6,-51.8L783.5,-144.7L667.7,-111.1Z" fill="rgb(19,107,29)" stroke="rgb(19,107,29)" stroke-width="1" stroke-linejoin="round" shape-rendering="crispEdges"></path><path d="M782.3,549.2L848.9,488.9L779.5,484.3Z" fill="rgb(12,45,11)" stroke="rgb(12,45,11)" stroke-width="1" stroke-linejoin="round" shape-rendering="crispEdges"></path><path d="M844.4,362.4L867.6,550.7L858,134.2Z" fill="rgb(13,56,15)" stroke="rgb(13,56,15)" stroke-width="1" stroke-linejoin="round" shape-rendering="crispEdges"></path><path d="M829.2,-53.1L783.5,-144.7L785.6,-51.8Z" fill="rgb(18,105,29)" stroke="rgb(18,105,29)" stroke-width="1" stroke-linejoin="round" shape-rendering="crispEdges"></path><path d="M667.7,-111.1L783.5,-144.7L584.8,-121.3Z" fill="rgb(19,112,31)" stroke="rgb(19,112,31)" stroke-width="1" stroke-linejoin="round" shape-rendering="crispEdges"></path><path d="M657.2,573.6L867.6,550.7L782.3,549.2Z" fill="rgb(12,45,11)" stroke="rgb(12,45,11)" stroke-width="1" stroke-linejoin="round" shape-rendering="crispEdges"></path><path d="M782.3,549.2L867.6,550.7L848.9,488.9Z" fill="rgb(12,45,11)" stroke="rgb(12,45,11)" stroke-width="1" stroke-linejoin="round" shape-rendering="crispEdges"></path><path d="M848.9,488.9L867.6,550.7L844.4,362.4Z" fill="rgb(12,45,11)" stroke="rgb(12,45,11)" stroke-width="1" stroke-linejoin="round" shape-rendering="crispEdges"></path><path d="M858,134.2L858.7,-145L838.5,44.8Z" fill="rgb(18,103,28)" stroke="rgb(18,103,28)" stroke-width="1" stroke-linejoin="round" shape-rendering="crispEdges"></path><path d="M829.2,-53.1L858.7,-145L783.5,-144.7Z" fill="rgb(18,105,29)" stroke="rgb(18,105,29)" stroke-width="1" stroke-linejoin="round" shape-rendering="crispEdges"></path><path d="M783.5,-144.7L858.7,-145L421.3,-151.2Z" fill="rgb(19,111,30)" stroke="rgb(19,111,30)" stroke-width="1" stroke-linejoin="round" shape-rendering="crispEdges"></path><path d="M867.6,550.7L858.7,-145L858,134.2Z" fill="rgb(17,79,22)" stroke="rgb(17,79,22)" stroke-width="1" stroke-linejoin="round" shape-rendering="crispEdges"></path></svg>