<svg xmlns="http://www.w3.org/2000/svg" width="764" height="429.75"><path d="M414.1,214.9L457.5,270.6L438.5,179.3Z" fill="rgb(148,0,4)" stroke="rgb(148,0,4)" stroke-width="1" stroke-linejoin="round" shape-rendering="crispEdges"></path><path d="M457.5,270.6L462.9,163L438.5,179.3Z" fill="rgb(145,0,4)" stroke="rgb(145,0,4)" stroke-width="1" stroke-linejoin="round" shape-rendering="crispEdges"></path><path d="M414.1,214.9L400.5,280.3L457.5,270.6Z" fill="rgb(157,0,3)" stroke="rgb(157,0,3)" stroke-width="1" stroke-linejoin="round" shape-rendering="crispEdges"></path><path d="M457.5,270.6L559.8,190.6L462.9,163Z" fill="rgb(154,0,3)" stroke="rgb(154,0,3)" stroke-width="1" stroke-linejoin="round" shape-rendering="crispEdges"></path><path d="M501.2,334.7L543.7,291.3L457.5,270.6Z" fill="rgb(184,0,0)" stroke="rgb(184,0,0)" stroke-width="1" stroke-linejoin="round" shape-rendering="crispEdges"></path><path d="M457.5,270.6L543.7,291.3L559.8,190.6Z" fill="rgb(173,0,2)" stroke="rgb(173,0,2)" stroke-width="1" stroke-linejoin="round" shape-rendering="crispEdges"></path><path d="M462.9,163L410.3,117L438.5,179.3Z" fill="rgb(123,0,3)" stroke="rgb(123,0,3)" stroke-width="1" stroke-linejoin="round" shape-rendering="crispEdges"></path><path d="M438.5,179.3L410.3,117L414.1,214.9Z" fill="rgb(126,0,4)" stroke="rgb(126,0,4)" stroke-width="1" stroke-linejoin="round" shape-rendering="crispEdges"></path><path d="M414.1,214.9L314.1,260.5L400.5,280.3Z" fill="rgb(146,0,4)" stroke="rgb(146,0,4)" stroke-width="1" stroke-linejoin="round" shape-rendering="crispEdges"></path><path d="M428.7,55.8L410.3,117L462.9,163Z" fill="rgb(111,5,4)" stroke="rgb(111,5,4)" stroke-width="1" stroke-linejoin="round" shape-rendering="crispEdges"></path><path d="M400.5,280.3L501.2,334.7L457.5,270.6Z" fill="rgb(174,0,2)" stroke="rgb(174,0,2)" stroke-width="1" stroke-linejoin="round" shape-rendering="crispEdges"></path><path d="M633.8,262L611.3,231.2L543.7,291.3Z" fill="rgb(171,0,1)" stroke="rgb(171,0,1)" stroke-width="1" stroke-linejoin="round" shape-rendering="crispEdges"></path><path d="M543.7,291.3L611.3,231.2L559.8,190.6Z" fill="rgb(164,0,2)" stroke="rgb(164,0,2)" stroke-width="1" stroke-linejoin="round" shape-rendering="crispEdges"></path><path d="M621.8,122.9L551.8,102.3L559.8,190.6Z" fill="rgb(128,1,3)" stroke="rgb(128,1,3)" stroke-width="1" stroke-linejoin="round" shape-rendering="crispEdges"></path><path d="M559.8,190.6L551.8,102.3L462.9,163Z" fill="rgb(136,0,4)" stroke="rgb(136,0,4)" stroke-width="1" stroke-linejoin="round" shape-rendering="crispEdges"></path><path d="M338.5,123.6L314.1,260.5L414.1,214.9Z" fill="rgb(123,0,3)" stroke="rgb(123,0,3)" stroke-width="1" stroke-linejoin="round" shape-rendering="crispEdges"></path><path d="M400.5,280.3L467.8,403.6L501.2,334.7Z" fill="rgb(169,0,2)" stroke="rgb(169,0,2)" stroke-width="1" stroke-linejoin="round" shape-rendering="crispEdges"></path><path d="M390.9,42.6L338.5,123.6L410.3,117Z" fill="rgb(96,7,3)" stroke="rgb(96,7,3)" stroke-width="1" stroke-linejoin="round" shape-rendering="crispEdges"></path><path d="M410.3,117L338.5,123.6L414.1,214.9Z" fill="rgb(113,0,3)" stroke="rgb(113,0,3)" stroke-width="1" stroke-linejoin="round" shape-rendering="crispEdges"></path><path d="M314.1,260.5L348.1,334.7L400.5,280.3Z" fill="rgb(154,0,3)" stroke="rgb(154,0,3)" stroke-width="1" stroke-linejoin="round" shape-rendering="crispEdges"></path><path d="M540.1,62.8L428.7,55.8L462.9,163Z" fill="rgb(115,9,4)" stroke="rgb(115,9,4)" stroke-width="1" stroke-linejoin="round" shape-rendering="crispEdges"></path><path d="M582,400.7L633.8,262L543.7,291.3Z" fill="rgb(177,0,0)" stroke="rgb(177,0,0)" stroke-width="1" stroke-linejoin="round" shape-rendering="crispEdges"></path><path d="M611.3,231.2L621.8,122.9L559.8,190.6Z" fill="rgb(142,0,3)" stroke="rgb(142,0,3)" stroke-width="1" stroke-linejoin="round" shape-rendering="crispEdges"></path><path d="M600.9,83.2L540.1,62.8L551.8,102.3Z" fill="rgb(114,11,4)" stroke="rgb(114,11,4)" stroke-width="1" stroke-linejoin="round" shape-rendering="crispEdges"></path><path d="M551.8,102.3L540.1,62.8L462.9,163Z" fill="rgb(124,7,4)" stroke="rgb(124,7,4)" stroke-width="1" stroke-linejoin="round" shape-rendering="crispEdges"></path><path d="M348.1,334.7L467.8,403.6L400.5,280.3Z" fill="rgb(158,0,2)" stroke="rgb(158,0,2)" stroke-width="1" stroke-linejoin="round" shape-rendering="crispEdges"></path><path d="M501.2,334.7L582,400.7L543.7,291.3Z" fill="rgb(177,0,0)" stroke="rgb(177,0,0)" stroke-width="1" stroke-linejoin="round" shape-rendering="crispEdges"></path><path d="M712.6,170.3L621.8,122.9L611.3,231.2Z" fill="rgb(135,0,3)" stroke="rgb(135,0,3)" stroke-width="1" stroke-linejoin="round" shape-rendering="crispEdges"></path><path d="M428.7,55.8L390.9,42.6L410.3,117Z" fill="rgb(96,10,4)" stroke="rgb(96,10,4)" stroke-width="1" stroke-linejoin="round" shape-rendering="crispEdges"></path><path d="M375.6,8.5L390.9,42.6L428.7,55.8Z" fill="rgb(85,13,4)" stroke="rgb(85,13,4)" stroke-width="1" stroke-linejoin="round" shape-rendering="crispEdges"></path><path d="M252.3,203.5L267.4,241.1L314.1,260.5Z" fill="rgb(121,0,3)" stroke="rgb(121,0,3)" stroke-width="1" stroke-linejoin="round" shape-rendering="crispEdges"></path><path d="M249.3,316.5L305.1,379.3L348.1,334.7Z" fill="rgb(136,0,3)" stroke="rgb(136,0,3)" stroke-width="1" stroke-linejoin="round" shape-rendering="crispEdges"></path><path d="M621.8,122.9L600.9,83.2L551.8,102.3Z" fill="rgb(117,7,4)" stroke="rgb(117,7,4)" stroke-width="1" stroke-linejoin="round" shape-rendering="crispEdges"></path><path d="M390.9,42.6L310.2,93L338.5,123.6Z" fill="rgb(88,7,2)" stroke="rgb(88,7,2)" stroke-width="1" stroke-linejoin="round" shape-rendering="crispEdges"></path><path d="M338.5,123.6L252.3,203.5L314.1,260.5Z" fill="rgb(112,0,3)" stroke="rgb(112,0,3)" stroke-width="1" stroke-linejoin="round" shape-rendering="crispEdges"></path><path d="M348.1,334.7L432.9,429.9L467.8,403.6Z" fill="rgb(154,0,2)" stroke="rgb(154,0,2)" stroke-width="1" stroke-linejoin="round" shape-rendering="crispEdges"></path><path d="M310.2,93L252.3,203.5L338.5,123.6Z" fill="rgb(93,0,1)" stroke="rgb(93,0,1)" stroke-width="1" stroke-linejoin="round" shape-rendering="crispEdges"></path><path d="M567.6,419.8L501.2,334.7L467.8,403.6Z" fill="rgb(173,0,1)" stroke="rgb(173,0,1)" stroke-width="1" stroke-linejoin="round" shape-rendering="crispEdges"></path><path d="M567.6,419.8L582,400.7L501.2,334.7Z" fill="rgb(171,0,1)" stroke="rgb(171,0,1)" stroke-width="1" stroke-linejoin="round" shape-rendering="crispEdges"></path><path d="M249.3,316.5L348.1,334.7L314.1,260.5Z" fill="rgb(142,0,3)" stroke="rgb(142,0,3)" stroke-width="1" stroke-linejoin="round" shape-rendering="crispEdges"></path><path d="M348.1,334.7L333.8,422.8L432.9,429.9Z" fill="rgb(144,0,2)" stroke="rgb(144,0,2)" stroke-width="1" stroke-linejoin="round" shape-rendering="crispEdges"></path><path d="M249.3,316.5L314.1,260.5L267.4,241.1Z" fill="rgb(134,0,4)" stroke="rgb(134,0,4)" stroke-width="1" stroke-linejoin="round" shape-rendering="crispEdges"></path><path d="M503.3,496.7L567.6,419.8L467.8,403.6Z" fill="rgb(168,0,1)" stroke="rgb(168,0,1)" stroke-width="1" stroke-linejoin="round" shape-rendering="crispEdges"></path><path d="M390.9,42.6L375.6,8.5L310.2,93Z" fill="rgb(80,11,3)" stroke="rgb(80,11,3)" stroke-width="1" stroke-linejoin="round" shape-rendering="crispEdges"></path><path d="M480.7,-48.2L375.6,8.5L428.7,55.8Z" fill="rgb(83,15,5)" stroke="rgb(83,15,5)" stroke-width="1" stroke-linejoin="round" shape-rendering="crispEdges"></path><path d="M148.3,290.6L249.3,316.5L267.4,241.1Z" fill="rgb(128,4,4)" stroke="rgb(128,4,4)" stroke-width="1" stroke-linejoin="round" shape-rendering="crispEdges"></path><path d="M356.2,477.8L333.8,422.8L267.8,512.5Z" fill="rgb(129,0,2)" stroke="rgb(129,0,2)" stroke-width="1" stroke-linejoin="round" shape-rendering="crispEdges"></path><path d="M305.1,379.3L333.8,422.8L348.1,334.7Z" fill="rgb(137,0,3)" stroke="rgb(137,0,3)" stroke-width="1" stroke-linejoin="round" shape-rendering="crispEdges"></path><path d="M685.5,319.5L704.8,239L633.8,262Z" fill="rgb(170,0,1)" stroke="rgb(170,0,1)" stroke-width="1" stroke-linejoin="round" shape-rendering="crispEdges"></path><path d="M633.8,262L704.8,239L611.3,231.2Z" fill="rgb(161,0,2)" stroke="rgb(161,0,2)" stroke-width="1" stroke-linejoin="round" shape-rendering="crispEdges"></path><path d="M621.8,122.9L668.7,39.8L600.9,83.2Z" fill="rgb(109,10,4)" stroke="rgb(109,10,4)" stroke-width="1" stroke-linejoin="round" shape-rendering="crispEdges"></path><path d="M685.5,319.5L633.8,262L582,400.7Z" fill="rgb(172,0,1)" stroke="rgb(172,0,1)" stroke-width="1" stroke-linejoin="round" shape-rendering="crispEdges"></path><path d="M720,353.7L685.5,319.5L582,400.7Z" fill="rgb(166,0,1)" stroke="rgb(166,0,1)" stroke-width="1" stroke-linejoin="round" shape-rendering="crispEdges"></path><path d="M704.8,239L712.6,170.3L611.3,231.2Z" fill="rgb(147,0,2)" stroke="rgb(147,0,2)" stroke-width="1" stroke-linejoin="round" shape-rendering="crispEdges"></path><path d="M600.9,83.2L551.3,-21.1L540.1,62.8Z" fill="rgb(103,15,5)" stroke="rgb(103,15,5)" stroke-width="1" stroke-linejoin="round" shape-rendering="crispEdges"></path><path d="M540.1,62.8L480.7,-48.2L428.7,55.8Z" fill="rgb(97,16,6)" stroke="rgb(97,16,6)" stroke-width="1" stroke-linejoin="round" shape-rendering="crispEdges"></path><path d="M668.7,39.8L551.3,-21.1L600.9,83.2Z" fill="rgb(98,15,5)" stroke="rgb(98,15,5)" stroke-width="1" stroke-linejoin="round" shape-rendering="crispEdges"></path><path d="M551.3,-21.1L480.7,-48.2L540.1,62.8Z" fill="rgb(95,18,6)" stroke="rgb(95,18,6)" stroke-width="1" stroke-linejoin="round" shape-rendering="crispEdges"></path><path d="M712.6,170.3L668.7,39.8L621.8,122.9Z" fill="rgb(114,6,3)" stroke="rgb(114,6,3)" stroke-width="1" stroke-linejoin="round" shape-rendering="crispEdges"></path><path d="M239.4,430.5L333.8,422.8L305.1,379.3Z" fill="rgb(126,0,2)" stroke="rgb(126,0,2)" stroke-width="1" stroke-linejoin="round" shape-rendering="crispEdges"></path><path d="M333.8,422.8L356.2,477.8L432.9,429.9Z" fill="rgb(140,0,2)" stroke="rgb(140,0,2)" stroke-width="1" stroke-linejoin="round" shape-rendering="crispEdges"></path><path d="M432.9,429.9L503.3,496.7L467.8,403.6Z" fill="rgb(159,0,1)" stroke="rgb(159,0,1)" stroke-width="1" stroke-linejoin="round" shape-rendering="crispEdges"></path><path d="M310.2,93L203.8,122.3L252.3,203.5Z" fill="rgb(84,0,0)" stroke="rgb(84,0,0)" stroke-width="1" stroke-linejoin="round" shape-rendering="crispEdges"></path><path d="M252.3,203.5L148.3,290.6L267.4,241.1Z" fill="rgb(115,3,4)" stroke="rgb(115,3,4)" stroke-width="1" stroke-linejoin="round" shape-rendering="crispEdges"></path><path d="M213.5,73.7L203.8,122.3L310.2,93Z" fill="rgb(72,5,0)" stroke="rgb(72,5,0)" stroke-width="1" stroke-linejoin="round" shape-rendering="crispEdges"></path><path d="M407.1,522.6L503.3,496.7L432.9,429.9Z" fill="rgb(155,0,1)" stroke="rgb(155,0,1)" stroke-width="1" stroke-linejoin="round" shape-rendering="crispEdges"></path><path d="M717.8,481.9L720,353.7L582,400.7Z" fill="rgb(158,0,0)" stroke="rgb(158,0,0)" stroke-width="1" stroke-linejoin="round" shape-rendering="crispEdges"></path><path d="M604.9,476.2L582,400.7L567.6,419.8Z" fill="rgb(162,0,0)" stroke="rgb(162,0,0)" stroke-width="1" stroke-linejoin="round" shape-rendering="crispEdges"></path><path d="M685.5,319.5L761.4,314.8L704.8,239Z" fill="rgb(171,0,1)" stroke="rgb(171,0,1)" stroke-width="1" stroke-linejoin="round" shape-rendering="crispEdges"></path><path d="M704.8,239L775.3,197.5L712.6,170.3Z" fill="rgb(139,0,2)" stroke="rgb(139,0,2)" stroke-width="1" stroke-linejoin="round" shape-rendering="crispEdges"></path><path d="M257.2,8.9L310.2,93L375.6,8.5Z" fill="rgb(70,10,2)" stroke="rgb(70,10,2)" stroke-width="1" stroke-linejoin="round" shape-rendering="crispEdges"></path><path d="M257.2,8.9L213.5,73.7L310.2,93Z" fill="rgb(65,7,0)" stroke="rgb(65,7,0)" stroke-width="1" stroke-linejoin="round" shape-rendering="crispEdges"></path><path d="M503.3,496.7L604.9,476.2L567.6,419.8Z" fill="rgb(164,0,1)" stroke="rgb(164,0,1)" stroke-width="1" stroke-linejoin="round" shape-rendering="crispEdges"></path><path d="M249.3,316.5L225,397.8L305.1,379.3Z" fill="rgb(125,0,3)" stroke="rgb(125,0,3)" stroke-width="1" stroke-linejoin="round" shape-rendering="crispEdges"></path><path d="M174.6,402.9L225,397.8L249.3,316.5Z" fill="rgb(118,4,3)" stroke="rgb(118,4,3)" stroke-width="1" stroke-linejoin="round" shape-rendering="crispEdges"></path><path d="M316.9,-56L257.2,8.9L375.6,8.5Z" fill="rgb(61,11,2)" stroke="rgb(61,11,2)" stroke-width="1" stroke-linejoin="round" shape-rendering="crispEdges"></path><path d="M213.5,73.7L180.7,127.2L203.8,122.3Z" fill="rgb(69,6,0)" stroke="rgb(69,6,0)" stroke-width="1" stroke-linejoin="round" shape-rendering="crispEdges"></path><path d="M203.8,122.3L180.7,127.2L252.3,203.5Z" fill="rgb(82,3,0)" stroke="rgb(82,3,0)" stroke-width="1" stroke-linejoin="round" shape-rendering="crispEdges"></path><path d="M225,397.8L239.4,430.5L305.1,379.3Z" fill="rgb(120,0,2)" stroke="rgb(120,0,2)" stroke-width="1" stroke-linejoin="round" shape-rendering="crispEdges"></path><path d="M506.7,-116.9L427.1,-81.7L480.7,-48.2Z" fill="rgb(89,17,6)" stroke="rgb(89,17,6)" stroke-width="1" stroke-linejoin="round" shape-rendering="crispEdges"></path><path d="M480.7,-48.2L427.1,-81.7L375.6,8.5Z" fill="rgb(81,16,5)" stroke="rgb(81,16,5)" stroke-width="1" stroke-linejoin="round" shape-rendering="crispEdges"></path><path d="M267.8,512.5L407.1,522.6L356.2,477.8Z" fill="rgb(134,0,2)" stroke="rgb(134,0,2)" stroke-width="1" stroke-linejoin="round" shape-rendering="crispEdges"></path><path d="M356.2,477.8L407.1,522.6L432.9,429.9Z" fill="rgb(145,0,2)" stroke="rgb(145,0,2)" stroke-width="1" stroke-linejoin="round" shape-rendering="crispEdges"></path><path d="M503.3,496.7L617.9,548.8L604.9,476.2Z" fill="rgb(163,0,1)" stroke="rgb(163,0,1)" stroke-width="1" stroke-linejoin="round" shape-rendering="crispEdges"></path><path d="M802.4,335.4L761.4,314.8L720,353.7Z" fill="rgb(162,0,0)" stroke="rgb(162,0,0)" stroke-width="1" stroke-linejoin="round" shape-rendering="crispEdges"></path><path d="M720,353.7L761.4,314.8L685.5,319.5Z" fill="rgb(165,0,1)" stroke="rgb(165,0,1)" stroke-width="1" stroke-linejoin="round" shape-rendering="crispEdges"></path><path d="M777.9,47.2L711.2,12.2L668.7,39.8Z" fill="rgb(91,14,3)" stroke="rgb(91,14,3)" stroke-width="1" stroke-linejoin="round" shape-rendering="crispEdges"></path><path d="M427.1,-81.7L316.9,-56L375.6,8.5Z" fill="rgb(71,14,4)" stroke="rgb(71,14,4)" stroke-width="1" stroke-linejoin="round" shape-rendering="crispEdges"></path><path d="M761.4,314.8L775.3,197.5L704.8,239Z" fill="rgb(156,0,2)" stroke="rgb(156,0,2)" stroke-width="1" stroke-linejoin="round" shape-rendering="crispEdges"></path><path d="M125.3,226.7L148.3,290.6L252.3,203.5Z" fill="rgb(106,7,4)" stroke="rgb(106,7,4)" stroke-width="1" stroke-linejoin="round" shape-rendering="crispEdges"></path><path d="M225,397.8L174.6,402.9L239.4,430.5Z" fill="rgb(112,4,2)" stroke="rgb(112,4,2)" stroke-width="1" stroke-linejoin="round" shape-rendering="crispEdges"></path><path d="M668.7,39.8L646.9,-44.9L551.3,-21.1Z" fill="rgb(89,17,5)" stroke="rgb(89,17,5)" stroke-width="1" stroke-linejoin="round" shape-rendering="crispEdges"></path><path d="M551.3,-21.1L506.7,-116.9L480.7,-48.2Z" fill="rgb(96,19,6)" stroke="rgb(96,19,6)" stroke-width="1" stroke-linejoin="round" shape-rendering="crispEdges"></path><path d="M711.2,12.2L646.9,-44.9L668.7,39.8Z" fill="rgb(86,16,4)" stroke="rgb(86,16,4)" stroke-width="1" stroke-linejoin="round" shape-rendering="crispEdges"></path><path d="M777.9,47.2L668.7,39.8L712.6,170.3Z" fill="rgb(104,9,3)" stroke="rgb(104,9,3)" stroke-width="1" stroke-linejoin="round" shape-rendering="crispEdges"></path><path d="M180.7,127.2L125.3,226.7L252.3,203.5Z" fill="rgb(89,5,2)" stroke="rgb(89,5,2)" stroke-width="1" stroke-linejoin="round" shape-rendering="crispEdges"></path><path d="M233.7,550.4L467.3,560.1L407.1,522.6Z" fill="rgb(139,0,2)" stroke="rgb(139,0,2)" stroke-width="1" stroke-linejoin="round" shape-rendering="crispEdges"></path><path d="M407.1,522.6L467.3,560.1L503.3,496.7Z" fill="rgb(157,0,1)" stroke="rgb(157,0,1)" stroke-width="1" stroke-linejoin="round" shape-rendering="crispEdges"></path><path d="M148.3,290.6L174.6,402.9L249.3,316.5Z" fill="rgb(118,7,4)" stroke="rgb(118,7,4)" stroke-width="1" stroke-linejoin="round" shape-rendering="crispEdges"></path><path d="M239.4,430.5L267.8,512.5L333.8,422.8Z" fill="rgb(121,0,2)" stroke="rgb(121,0,2)" stroke-width="1" stroke-linejoin="round" shape-rendering="crispEdges"></path><path d="M60.4,366.5L174.6,402.9L148.3,290.6Z" fill="rgb(107,11,4)" stroke="rgb(107,11,4)" stroke-width="1" stroke-linejoin="round" shape-rendering="crispEdges"></path><path d="M588.6,-98.5L506.7,-116.9L551.3,-21.1Z" fill="rgb(94,18,6)" stroke="rgb(94,18,6)" stroke-width="1" stroke-linejoin="round" shape-rendering="crispEdges"></path><path d="M384.8,-129.3L308.1,-94.8L316.9,-56Z" fill="rgb(65,12,3)" stroke="rgb(65,12,3)" stroke-width="1" stroke-linejoin="round" shape-rendering="crispEdges"></path><path d="M725.8,-118.7L588.6,-98.5L646.9,-44.9Z" fill="rgb(87,17,4)" stroke="rgb(87,17,4)" stroke-width="1" stroke-linejoin="round" shape-rendering="crispEdges"></path><path d="M646.9,-44.9L588.6,-98.5L551.3,-21.1Z" fill="rgb(91,17,5)" stroke="rgb(91,17,5)" stroke-width="1" stroke-linejoin="round" shape-rendering="crispEdges"></path><path d="M166.4,475.3L267.8,512.5L239.4,430.5Z" fill="rgb(112,3,2)" stroke="rgb(112,3,2)" stroke-width="1" stroke-linejoin="round" shape-rendering="crispEdges"></path><path d="M384.8,-129.3L316.9,-56L427.1,-81.7Z" fill="rgb(72,14,4)" stroke="rgb(72,14,4)" stroke-width="1" stroke-linejoin="round" shape-rendering="crispEdges"></path><path d="M316.9,-56L211.7,-109.2L257.2,8.9Z" fill="rgb(52,9,0)" stroke="rgb(52,9,0)" stroke-width="1" stroke-linejoin="round" shape-rendering="crispEdges"></path><path d="M138.5,-42.4L123.9,45.1L213.5,73.7Z" fill="rgb(44,9,0)" stroke="rgb(44,9,0)" stroke-width="1" stroke-linejoin="round" shape-rendering="crispEdges"></path><path d="M65.4,166.9L125.3,226.7L180.7,127.2Z" fill="rgb(77,8,2)" stroke="rgb(77,8,2)" stroke-width="1" stroke-linejoin="round" shape-rendering="crispEdges"></path><path d="M753.4,446.4L802.4,335.4L720,353.7Z" fill="rgb(156,0,0)" stroke="rgb(156,0,0)" stroke-width="1" stroke-linejoin="round" shape-rendering="crispEdges"></path><path d="M761.4,314.8L841.3,221.7L775.3,197.5Z" fill="rgb(152,0,2)" stroke="rgb(152,0,2)" stroke-width="1" stroke-linejoin="round" shape-rendering="crispEdges"></path><path d="M506.7,-116.9L384.8,-129.3L427.1,-81.7Z" fill="rgb(83,16,5)" stroke="rgb(83,16,5)" stroke-width="1" stroke-linejoin="round" shape-rendering="crispEdges"></path><path d="M805.7,108.5L777.9,47.2L712.6,170.3Z" fill="rgb(107,6,2)" stroke="rgb(107,6,2)" stroke-width="1" stroke-linejoin="round" shape-rendering="crispEdges"></path><path d="M711.2,12.2L725.8,-118.7L646.9,-44.9Z" fill="rgb(84,16,4)" stroke="rgb(84,16,4)" stroke-width="1" stroke-linejoin="round" shape-rendering="crispEdges"></path><path d="M805.7,108.5L712.6,170.3L775.3,197.5Z" fill="rgb(122,0,2)" stroke="rgb(122,0,2)" stroke-width="1" stroke-linejoin="round" shape-rendering="crispEdges"></path><path d="M864,162.9L805.7,108.5L775.3,197.5Z" fill="rgb(121,0,2)" stroke="rgb(121,0,2)" stroke-width="1" stroke-linejoin="round" shape-rendering="crispEdges"></path><path d="M467.3,560.1L617.9,548.8L503.3,496.7Z" fill="rgb(166,0,1)" stroke="rgb(166,0,1)" stroke-width="1" stroke-linejoin="round" shape-rendering="crispEdges"></path><path d="M604.9,476.2L717.8,481.9L582,400.7Z" fill="rgb(158,0,0)" stroke="rgb(158,0,0)" stroke-width="1" stroke-linejoin="round" shape-rendering="crispEdges"></path><path d="M617.9,548.8L717.8,481.9L604.9,476.2Z" fill="rgb(158,0,0)" stroke="rgb(158,0,0)" stroke-width="1" stroke-linejoin="round" shape-rendering="crispEdges"></path><path d="M717.8,481.9L753.4,446.4L720,353.7Z" fill="rgb(152,0,0)" stroke="rgb(152,0,0)" stroke-width="1" stroke-linejoin="round" shape-rendering="crispEdges"></path><path d="M65.4,166.9L94.6,225.4L125.3,226.7Z" fill="rgb(83,10,3)" stroke="rgb(83,10,3)" stroke-width="1" stroke-linejoin="round" shape-rendering="crispEdges"></path><path d="M125.3,226.7L94.6,225.4L148.3,290.6Z" fill="rgb(101,11,4)" stroke="rgb(101,11,4)" stroke-width="1" stroke-linejoin="round" shape-rendering="crispEdges"></path><path d="M123.9,45.1L180.7,127.2L213.5,73.7Z" fill="rgb(59,8,0)" stroke="rgb(59,8,0)" stroke-width="1" stroke-linejoin="round" shape-rendering="crispEdges"></path><path d="M802.4,335.4L841.3,221.7L761.4,314.8Z" fill="rgb(167,0,1)" stroke="rgb(167,0,1)" stroke-width="1" stroke-linejoin="round" shape-rendering="crispEdges"></path><path d="M138.5,-42.4L213.5,73.7L257.2,8.9Z" fill="rgb(47,9,0)" stroke="rgb(47,9,0)" stroke-width="1" stroke-linejoin="round" shape-rendering="crispEdges"></path><path d="M753.4,446.4L828.3,348.1L802.4,335.4Z" fill="rgb(156,0,0)" stroke="rgb(156,0,0)" stroke-width="1" stroke-linejoin="round" shape-rendering="crispEdges"></path><path d="M802.4,335.4L875,307.2L841.3,221.7Z" fill="rgb(168,0,1)" stroke="rgb(168,0,1)" stroke-width="1" stroke-linejoin="round" shape-rendering="crispEdges"></path><path d="M56.5,469L166.4,475.3L174.6,402.9Z" fill="rgb(98,10,2)" stroke="rgb(98,10,2)" stroke-width="1" stroke-linejoin="round" shape-rendering="crispEdges"></path><path d="M174.6,402.9L166.4,475.3L239.4,430.5Z" fill="rgb(107,5,2)" stroke="rgb(107,5,2)" stroke-width="1" stroke-linejoin="round" shape-rendering="crispEdges"></path><path d="M831.9,59.8L777.9,47.2L805.7,108.5Z" fill="rgb(98,10,2)" stroke="rgb(98,10,2)" stroke-width="1" stroke-linejoin="round" shape-rendering="crispEdges"></path><path d="M831.9,59.8L785.1,-10.2L777.9,47.2Z" fill="rgb(88,14,3)" stroke="rgb(88,14,3)" stroke-width="1" stroke-linejoin="round" shape-rendering="crispEdges"></path><path d="M777.9,47.2L785.1,-10.2L711.2,12.2Z" fill="rgb(84,15,3)" stroke="rgb(84,15,3)" stroke-width="1" stroke-linejoin="round" shape-rendering="crispEdges"></path><path d="M166.4,475.3L233.7,550.4L267.8,512.5Z" fill="rgb(111,3,2)" stroke="rgb(111,3,2)" stroke-width="1" stroke-linejoin="round" shape-rendering="crispEdges"></path><path d="M267.8,512.5L233.7,550.4L407.1,522.6Z" fill="rgb(126,0,2)" stroke="rgb(126,0,2)" stroke-width="1" stroke-linejoin="round" shape-rendering="crispEdges"></path><path d="M123.9,45.1L65.4,166.9L180.7,127.2Z" fill="rgb(60,8,0)" stroke="rgb(60,8,0)" stroke-width="1" stroke-linejoin="round" shape-rendering="crispEdges"></path><path d="M94.6,225.4L60.2,286.8L148.3,290.6Z" fill="rgb(105,13,5)" stroke="rgb(105,13,5)" stroke-width="1" stroke-linejoin="round" shape-rendering="crispEdges"></path><path d="M864,162.9L831.9,59.8L805.7,108.5Z" fill="rgb(108,5,2)" stroke="rgb(108,5,2)" stroke-width="1" stroke-linejoin="round" shape-rendering="crispEdges"></path><path d="M875,307.2L864,162.9L841.3,221.7Z" fill="rgb(147,0,2)" stroke="rgb(147,0,2)" stroke-width="1" stroke-linejoin="round" shape-rendering="crispEdges"></path><path d="M841.3,221.7L864,162.9L775.3,197.5Z" fill="rgb(134,0,2)" stroke="rgb(134,0,2)" stroke-width="1" stroke-linejoin="round" shape-rendering="crispEdges"></path><path d="M8.2,215.9L60.2,286.8L94.6,225.4Z" fill="rgb(89,14,5)" stroke="rgb(89,14,5)" stroke-width="1" stroke-linejoin="round" shape-rendering="crispEdges"></path><path d="M384.8,-129.3L211.7,-109.2L308.1,-94.8Z" fill="rgb(59,11,1)" stroke="rgb(59,11,1)" stroke-width="1" stroke-linejoin="round" shape-rendering="crispEdges"></path><path d="M308.1,-94.8L211.7,-109.2L316.9,-56Z" fill="rgb(55,10,1)" stroke="rgb(55,10,1)" stroke-width="1" stroke-linejoin="round" shape-rendering="crispEdges"></path><path d="M211.7,-109.2L138.5,-42.4L257.2,8.9Z" fill="rgb(44,9,0)" stroke="rgb(44,9,0)" stroke-width="1" stroke-linejoin="round" shape-rendering="crispEdges"></path><path d="M123.9,45.1L37.3,84L65.4,166.9Z" fill="rgb(50,9,0)" stroke="rgb(50,9,0)" stroke-width="1" stroke-linejoin="round" shape-rendering="crispEdges"></path><path d="M808.5,557.3L725.5,548L617.9,548.8Z" fill="rgb(152,0,0)" stroke="rgb(152,0,0)" stroke-width="1" stroke-linejoin="round" shape-rendering="crispEdges"></path><path d="M617.9,548.8L725.5,548L717.8,481.9Z" fill="rgb(155,0,0)" stroke="rgb(155,0,0)" stroke-width="1" stroke-linejoin="round" shape-rendering="crispEdges"></path><path d="M808.5,557.3L826.9,462L753.4,446.4Z" fill="rgb(149,0,0)" stroke="rgb(149,0,0)" stroke-width="1" stroke-linejoin="round" shape-rendering="crispEdges"></path><path d="M753.4,446.4L826.9,462L828.3,348.1Z" fill="rgb(150,0,0)" stroke="rgb(150,0,0)" stroke-width="1" stroke-linejoin="round" shape-rendering="crispEdges"></path><path d="M828.3,348.1L875,307.2L802.4,335.4Z" fill="rgb(162,0,0)" stroke="rgb(162,0,0)" stroke-width="1" stroke-linejoin="round" shape-rendering="crispEdges"></path><path d="M826.9,462L875,307.2L828.3,348.1Z" fill="rgb(156,0,0)" stroke="rgb(156,0,0)" stroke-width="1" stroke-linejoin="round" shape-rendering="crispEdges"></path><path d="M60.2,286.8L60.4,366.5L148.3,290.6Z" fill="rgb(106,14,5)" stroke="rgb(106,14,5)" stroke-width="1" stroke-linejoin="round" shape-rendering="crispEdges"></path><path d="M166.4,475.3L140.1,546.5L233.7,550.4Z" fill="rgb(105,7,2)" stroke="rgb(105,7,2)" stroke-width="1" stroke-linejoin="round" shape-rendering="crispEdges"></path><path d="M588.6,-98.5L735.9,-123.2L506.7,-116.9Z" fill="rgb(90,17,5)" stroke="rgb(90,17,5)" stroke-width="1" stroke-linejoin="round" shape-rendering="crispEdges"></path><path d="M506.7,-116.9L735.9,-123.2L384.8,-129.3Z" fill="rgb(94,18,6)" stroke="rgb(94,18,6)" stroke-width="1" stroke-linejoin="round" shape-rendering="crispEdges"></path><path d="M785.1,-10.2L725.8,-118.7L711.2,12.2Z" fill="rgb(81,16,3)" stroke="rgb(81,16,3)" stroke-width="1" stroke-linejoin="round" shape-rendering="crispEdges"></path><path d="M735.9,-123.2L725.8,-118.7L785.1,-10.2Z" fill="rgb(80,15,3)" stroke="rgb(80,15,3)" stroke-width="1" stroke-linejoin="round" shape-rendering="crispEdges"></path><path d="M808.5,557.3L753.4,446.4L717.8,481.9Z" fill="rgb(149,0,0)" stroke="rgb(149,0,0)" stroke-width="1" stroke-linejoin="round" shape-rendering="crispEdges"></path><path d="M211.7,-109.2L128.8,-63.9L138.5,-42.4Z" fill="rgb(39,8,0)" stroke="rgb(39,8,0)" stroke-width="1" stroke-linejoin="round" shape-rendering="crispEdges"></path><path d="M57.5,15.5L37.3,84L123.9,45.1Z" fill="rgb(39,8,0)" stroke="rgb(39,8,0)" stroke-width="1" stroke-linejoin="round" shape-rendering="crispEdges"></path><path d="M839.6,-82.2L735.9,-123.2L785.1,-10.2Z" fill="rgb(79,15,3)" stroke="rgb(79,15,3)" stroke-width="1" stroke-linejoin="round" shape-rendering="crispEdges"></path><path d="M725.8,-118.7L735.9,-123.2L588.6,-98.5Z" fill="rgb(85,16,4)" stroke="rgb(85,16,4)" stroke-width="1" stroke-linejoin="round" shape-rendering="crispEdges"></path><path d="M57.5,15.5L123.9,45.1L138.5,-42.4Z" fill="rgb(34,6,0)" stroke="rgb(34,6,0)" stroke-width="1" stroke-linejoin="round" shape-rendering="crispEdges"></path><path d="M65.4,166.9L8.2,215.9L94.6,225.4Z" fill="rgb(77,12,3)" stroke="rgb(77,12,3)" stroke-width="1" stroke-linejoin="round" shape-rendering="crispEdges"></path><path d="M60.2,286.8L-29.4,371.1L60.4,366.5Z" fill="rgb(94,16,5)" stroke="rgb(94,16,5)" stroke-width="1" stroke-linejoin="round" shape-rendering="crispEdges"></path><path d="M14.6,124.8L8.2,215.9L65.4,166.9Z" fill="rgb(62,10,1)" stroke="rgb(62,10,1)" stroke-width="1" stroke-linejoin="round" shape-rendering="crispEdges"></path><path d="M128.8,-63.9L57.5,15.5L138.5,-42.4Z" fill="rgb(33,5,0)" stroke="rgb(33,5,0)" stroke-width="1" stroke-linejoin="round" shape-rendering="crispEdges"></path><path d="M82,508.4L140.1,546.5L166.4,475.3Z" fill="rgb(98,10,2)" stroke="rgb(98,10,2)" stroke-width="1" stroke-linejoin="round" shape-rendering="crispEdges"></path><path d="M233.7,550.4L140.1,546.5L467.3,560.1Z" fill="rgb(121,0,2)" stroke="rgb(121,0,2)" stroke-width="1" stroke-linejoin="round" shape-rendering="crispEdges"></path><path d="M18,60.4L14.6,124.8L37.3,84Z" fill="rgb(42,8,0)" stroke="rgb(42,8,0)" stroke-width="1" stroke-linejoin="round" shape-rendering="crispEdges"></path><path d="M37.3,84L14.6,124.8L65.4,166.9Z" fill="rgb(52,9,0)" stroke="rgb(52,9,0)" stroke-width="1" stroke-linejoin="round" shape-rendering="crispEdges"></path><path d="M864,162.9L855.2,-38L831.9,59.8Z" fill="rgb(95,11,2)" stroke="rgb(95,11,2)" stroke-width="1" stroke-linejoin="round" shape-rendering="crispEdges"></path><path d="M831.9,59.8L855.2,-38L785.1,-10.2Z" fill="rgb(80,15,3)" stroke="rgb(80,15,3)" stroke-width="1" stroke-linejoin="round" shape-rendering="crispEdges"></path><path d="M875,307.2L855.2,-38L864,162.9Z" fill="rgb(116,0,1)" stroke="rgb(116,0,1)" stroke-width="1" stroke-linejoin="round" shape-rendering="crispEdges"></path><path d="M57.5,15.5L18,60.4L37.3,84Z" fill="rgb(36,6,0)" stroke="rgb(36,6,0)" stroke-width="1" stroke-linejoin="round" shape-rendering="crispEdges"></path><path d="M-62.9,183.9L-32.1,265.8L8.2,215.9Z" fill="rgb(75,14,4)" stroke="rgb(75,14,4)" stroke-width="1" stroke-linejoin="round" shape-rendering="crispEdges"></path><path d="M60.4,366.5L56.5,469L174.6,402.9Z" fill="rgb(95,12,3)" stroke="rgb(95,12,3)" stroke-width="1" stroke-linejoin="round" shape-rendering="crispEdges"></path><path d="M13.8,440.5L56.5,469L60.4,366.5Z" fill="rgb(86,14,3)" stroke="rgb(86,14,3)" stroke-width="1" stroke-linejoin="round" shape-rendering="crispEdges"></path><path d="M56.5,469L82,508.4L166.4,475.3Z" fill="rgb(94,12,3)" stroke="rgb(94,12,3)" stroke-width="1" stroke-linejoin="round" shape-rendering="crispEdges"></path><path d="M725.5,548L808.5,557.3L717.8,481.9Z" fill="rgb(150,0,0)" stroke="rgb(150,0,0)" stroke-width="1" stroke-linejoin="round" shape-rendering="crispEdges"></path><path d="M826.9,462L860.5,538.4L875,307.2Z" fill="rgb(149,0,0)" stroke="rgb(149,0,0)" stroke-width="1" stroke-linejoin="round" shape-rendering="crispEdges"></path><path d="M467.3,560.1L808.5,557.3L617.9,548.8Z" fill="rgb(159,0,0)" stroke="rgb(159,0,0)" stroke-width="1" stroke-linejoin="round" shape-rendering="crispEdges"></path><path d="M855.2,-38L839.6,-82.2L785.1,-10.2Z" fill="rgb(79,15,3)" stroke="rgb(79,15,3)" stroke-width="1" stroke-linejoin="round" shape-rendering="crispEdges"></path><path d="M211.7,-109.2L98,-109.6L128.8,-63.9Z" fill="rgb(38,7,0)" stroke="rgb(38,7,0)" stroke-width="1" stroke-linejoin="round" shape-rendering="crispEdges"></path><path d="M128.8,-63.9L-4,-39.7L57.5,15.5Z" fill="rgb(27,3,0)" stroke="rgb(27,3,0)" stroke-width="1" stroke-linejoin="round" shape-rendering="crispEdges"></path><path d="M57.5,15.5L-4,-39.7L18,60.4Z" fill="rgb(25,2,0)" stroke="rgb(25,2,0)" stroke-width="1" stroke-linejoin="round" shape-rendering="crispEdges"></path><path d="M384.8,-129.3L98,-109.6L211.7,-109.2Z" fill="rgb(48,9,0)" stroke="rgb(48,9,0)" stroke-width="1" stroke-linejoin="round" shape-rendering="crispEdges"></path><path d="M-62.9,183.9L8.2,215.9L14.6,124.8Z" fill="rgb(60,11,2)" stroke="rgb(60,11,2)" stroke-width="1" stroke-linejoin="round" shape-rendering="crispEdges"></path><path d="M8.2,215.9L-32.1,265.8L60.2,286.8Z" fill="rgb(88,16,5)" stroke="rgb(88,16,5)" stroke-width="1" stroke-linejoin="round" shape-rendering="crispEdges"></path><path d="M-29.4,371.1L13.8,440.5L60.4,366.5Z" fill="rgb(86,16,4)" stroke="rgb(86,16,4)" stroke-width="1" stroke-linejoin="round" shape-rendering="crispEdges"></path><path d="M56.5,469L15,495.2L82,508.4Z" fill="rgb(87,14,3)" stroke="rgb(87,14,3)" stroke-width="1" stroke-linejoin="round" shape-rendering="crispEdges"></path><path d="M808.5,557.3L860.5,538.4L826.9,462Z" fill="rgb(149,0,0)" stroke="rgb(149,0,0)" stroke-width="1" stroke-linejoin="round" shape-rendering="crispEdges"></path><path d="M-53.6,311.4L-29.4,371.1L60.2,286.8Z" fill="rgb(92,18,6)" stroke="rgb(92,18,6)" stroke-width="1" stroke-linejoin="round" shape-rendering="crispEdges"></path><path d="M-62.9,183.9L-53.6,311.4L-32.1,265.8Z" fill="rgb(85,16,5)" stroke="rgb(85,16,5)" stroke-width="1" stroke-linejoin="round" shape-rendering="crispEdges"></path><path d="M-32.1,265.8L-53.6,311.4L60.2,286.8Z" fill="rgb(96,19,6)" stroke="rgb(96,19,6)" stroke-width="1" stroke-linejoin="round" shape-rendering="crispEdges"></path><path d="M-73.4,398.1L13.8,440.5L-29.4,371.1Z" fill="rgb(83,16,4)" stroke="rgb(83,16,4)" stroke-width="1" stroke-linejoin="round" shape-rendering="crispEdges"></path><path d="M-54.5,481.9L15,495.2L13.8,440.5Z" fill="rgb(79,15,3)" stroke="rgb(79,15,3)" stroke-width="1" stroke-linejoin="round" shape-rendering="crispEdges"></path><path d="M13.8,440.5L15,495.2L56.5,469Z" fill="rgb(83,14,3)" stroke="rgb(83,14,3)" stroke-width="1" stroke-linejoin="round" shape-rendering="crispEdges"></path><path d="M82,508.4L15,495.2L140.1,546.5Z" fill="rgb(91,13,3)" stroke="rgb(91,13,3)" stroke-width="1" stroke-linejoin="round" shape-rendering="crispEdges"></path><path d="M-81.9,168.9L14.6,124.8L-84.3,86.4Z" fill="rgb(47,9,0)" stroke="rgb(47,9,0)" stroke-width="1" stroke-linejoin="round" shape-rendering="crispEdges"></path><path d="M-81.9,168.9L-62.9,183.9L14.6,124.8Z" fill="rgb(55,10,1)" stroke="rgb(55,10,1)" stroke-width="1" stroke-linejoin="round" shape-rendering="crispEdges"></path><path d="M98,-109.6L-4,-39.7L128.8,-63.9Z" fill="rgb(29,4,0)" stroke="rgb(29,4,0)" stroke-width="1" stroke-linejoin="round" shape-rendering="crispEdges"></path><path d="M-84.3,86.4L14.6,124.8L18,60.4Z" fill="rgb(39,8,0)" stroke="rgb(39,8,0)" stroke-width="1" stroke-linejoin="round" shape-rendering="crispEdges"></path><path d="M-62.9,183.9L-81.9,168.9L-53.6,311.4Z" fill="rgb(75,14,4)" stroke="rgb(75,14,4)" stroke-width="1" stroke-linejoin="round" shape-rendering="crispEdges"></path><path d="M-94.7,17.3L-84.3,86.4L18,60.4Z" fill="rgb(32,5,0)" stroke="rgb(32,5,0)" stroke-width="1" stroke-linejoin="round" shape-rendering="crispEdges"></path><path d="M-81.9,168.9L-73.4,398.1L-53.6,311.4Z" fill="rgb(96,18,6)" stroke="rgb(96,18,6)" stroke-width="1" stroke-linejoin="round" shape-rendering="crispEdges"></path><path d="M-53.6,311.4L-73.4,398.1L-29.4,371.1Z" fill="rgb(88,17,5)" stroke="rgb(88,17,5)" stroke-width="1" stroke-linejoin="round" shape-rendering="crispEdges"></path><path d="M384.8,-129.3L-10.4,-106L98,-109.6Z" fill="rgb(39,8,0)" stroke="rgb(39,8,0)" stroke-width="1" stroke-linejoin="round" shape-rendering="crispEdges"></path><path d="M98,-109.6L-10.4,-106L-4,-39.7Z" fill="rgb(22,1,0)" stroke="rgb(22,1,0)" stroke-width="1" stroke-linejoin="round" shape-rendering="crispEdges"></path><path d="M-4,-39.7L-94.7,17.3L18,60.4Z" fill="rgb(21,1,0)" stroke="rgb(21,1,0)" stroke-width="1" stroke-linejoin="round" shape-rendering="crispEdges"></path><path d="M-73.4,398.1L-54.5,481.9L13.8,440.5Z" fill="rgb(79,15,3)" stroke="rgb(79,15,3)" stroke-width="1" stroke-linejoin="round" shape-rendering="crispEdges"></path><path d="M15,495.2L-87.1,524.6L140.1,546.5Z" fill="rgb(83,15,3)" stroke="rgb(83,15,3)" stroke-width="1" stroke-linejoin="round" shape-rendering="crispEdges"></path><path d="M-84.3,86.4L-94.7,17.3L-81.9,168.9Z" fill="rgb(39,8,0)" stroke="rgb(39,8,0)" stroke-width="1" stroke-linejoin="round" shape-rendering="crispEdges"></path><path d="M-81.9,168.9L-87.1,524.6L-73.4,398.1Z" fill="rgb(87,17,5)" stroke="rgb(87,17,5)" stroke-width="1" stroke-linejoin="round" shape-rendering="crispEdges"></path><path d="M-103,-69.8L-94.7,17.3L-4,-39.7Z" fill="rgb(16,0,0)" stroke="rgb(16,0,0)" stroke-width="1" stroke-linejoin="round" shape-rendering="crispEdges"></path><path d="M-94.7,17.3L-87.1,524.6L-81.9,168.9Z" fill="rgb(80,15,5)" stroke="rgb(80,15,5)" stroke-width="1" stroke-linejoin="round" shape-rendering="crispEdges"></path><path d="M-73.4,398.1L-87.1,524.6L-54.5,481.9Z" fill="rgb(79,15,3)" stroke="rgb(79,15,3)" stroke-width="1" stroke-linejoin="round" shape-rendering="crispEdges"></path><path d="M-54.5,481.9L-87.1,524.6L15,495.2Z" fill="rgb(79,15,3)" stroke="rgb(79,15,3)" stroke-width="1" stroke-linejoin="round" shape-rendering="crispEdges"></path><path d="M-10.4,-106L-103,-69.8L-4,-39.7Z" fill="rgb(16,0,0)" stroke="rgb(16,0,0)" stroke-width="1" stroke-linejoin="round" shape-rendering="crispEdges"></path><path d="M-94.7,17.3L-103,-69.8L-87.1,524.6Z" fill="rgb(55,10,1)" stroke="rgb(55,10,1)" stroke-width="1" stroke-linejoin="round" shape-rendering="crispEdges"></path></svg>